<?xml version="1.0" encoding="UTF-8" standalone="no"?>
<!DOCTYPE svg PUBLIC "-//W3C//DTD SVG 1.1//EN" "http://www.w3.org/Graphics/SVG/1.1/DTD/svg11.dtd">
<svg xmlns="http://www.w3.org/2000/svg" xmlns:xlink="http://www.w3.org/1999/xlink" xml:space="preserve" fill-rule="evenodd" stroke-linejoin="round" stroke-miterlimit="1.41421" clip-rule="evenodd" viewBox="0 0 83 83">
  <defs>
    <path id="a" fill="#fff" fill-rule="nonzero" d="M5.556-2.85C5.556-1.015 4.045.496 2.21.496.374.496-1.136-1.015-1.136-2.85c0-1.836 1.51-3.346 3.346-3.346 1.835 0 3.346 1.51 3.346 3.346Z"/>
  </defs>
  <g transform="translate(-6.51025 -6.75952) scale(2.98086)">
    <path fill="#fff" fill-rule="nonzero" d="M5.8 10.158c-.994 0-1.8.806-1.8 1.8v6.3c0 .994.806 1.8 1.8 1.8v7.2c0 .994.806 1.8 1.8 1.8h3.6v-8.1c-.994 0-1.8-.806-1.8-1.8v-9H5.8Z"/>
    <path d="M5.8 10.158h3.6v9.023l.001.023v.023l.001.023.002.023.001.023.002.023.002.023.003.022.002.023.003.022.004.023.003.022.004.022.004.022.005.022.004.022.005.022.005.022.006.022.005.021.006.021.006.022.007.021.007.021.007.021.007.021.007.021.008.02.008.021.008.02.008.02.009.02.009.02.009.02.009.02.01.02.01.019.01.019.01.02.011.019.01.019.011.018.012.019.011.019.012.018.011.018.012.018.013.018.012.018.013.017.013.018.013.017.013.017.013.017.014.017.014.016.014.017.014.016.015.016.014.016.015.016.015.015.015.015.016.016.015.015.016.014.016.015.016.015.016.014.016.014.017.014.017.013.017.014.017.013.017.013.017.013.018.013.018.012.018.012.018.012.018.012.018.012.019.011.018.011.019.011.019.011.019.01.019.011.02.01.019.01.02.009.019.01.02.009.02.009.02.008.021.009.02.008.02.008.021.007.021.008.021.007.021.007.021.007.021.006.021.006.022.006.021.006.022.005.021.006.022.005.022.004.022.004.022.005.023.003.022.004.022.003.023.003.022.003.023.002.023.003.023.001.022.002.023.001.023.001.024.001.023.001h.023v8.1H7.577l-.023-.001-.024-.001-.023-.001-.023-.001-.022-.002-.023-.001-.023-.003-.023-.002-.022-.003-.023-.003-.022-.003-.022-.004-.023-.003-.022-.005-.022-.004-.022-.004-.022-.005-.021-.006-.022-.005-.021-.006-.022-.006-.021-.006-.021-.006-.021-.007-.021-.007-.021-.007-.021-.008-.021-.007-.02-.008-.02-.008-.021-.009-.02-.008-.02-.009-.02-.009-.019-.01-.02-.009-.019-.01-.02-.01-.019-.011-.019-.01-.019-.011-.019-.011-.018-.011-.019-.011-.018-.012-.018-.012-.018-.012-.018-.012-.018-.012-.018-.013-.017-.013-.017-.013-.017-.013-.017-.014-.017-.013-.017-.014-.016-.014-.016-.014-.016-.015-.016-.015-.016-.014-.015-.015-.016-.016-.015-.015-.015-.015-.015-.016-.014-.016-.015-.016-.014-.016-.014-.017-.014-.016-.014-.017-.013-.017-.013-.017-.013-.017-.013-.018-.013-.017-.012-.018-.013-.018-.012-.018-.011-.018-.012-.018-.011-.019-.012-.019-.011-.018-.01-.019-.011-.019-.01-.02-.01-.019-.01-.019-.01-.02-.009-.02-.009-.02-.009-.02-.009-.02-.008-.02-.008-.02-.008-.021-.008-.02-.007-.021-.007-.021-.007-.021-.007-.021-.007-.021-.006-.022-.006-.021-.005-.021-.006-.022-.005-.022-.005-.022-.004-.022-.005-.022-.004-.022-.004-.022-.003-.022-.004-.023-.003-.022-.002-.023-.003-.022-.002-.023-.002-.023-.001-.023-.002-.023-.001-.023v-.023l-.001-.023v-7.223h-.023l-.023-.001-.024-.001-.023-.001-.023-.001-.022-.002-.023-.001-.023-.003-.023-.002-.022-.003-.023-.003-.022-.003-.022-.004-.023-.003-.022-.005-.022-.004-.022-.004-.022-.005-.021-.006-.022-.005-.021-.006-.022-.006-.021-.006-.021-.006-.021-.007-.021-.007-.021-.007-.021-.008-.021-.007-.02-.008-.02-.008-.021-.009-.02-.008-.02-.009-.02-.009-.019-.01-.02-.009-.019-.01-.02-.01-.019-.011-.019-.01-.019-.011-.019-.011-.018-.011-.019-.011-.018-.012-.018-.012-.018-.012-.018-.012-.018-.012-.018-.013-.017-.013-.017-.013-.017-.013-.017-.014-.017-.013-.017-.014-.016-.014-.016-.014-.016-.015-.016-.015-.016-.014-.015-.015-.016-.016-.015-.015-.015-.015-.015-.016-.014-.016-.015-.016-.014-.016-.014-.017-.014-.016-.014-.017-.013-.017-.013-.017-.013-.017-.013-.018-.013-.017-.012-.018-.013-.018-.012-.018-.011-.018-.012-.018-.011-.019-.012-.019-.011-.018-.01-.019-.011-.019-.01-.02-.01-.019-.01-.019-.01-.02-.009-.02-.009-.02-.009-.02-.009-.02-.008-.02-.008-.02-.008-.021-.008-.02-.007-.021-.007-.021-.007-.021-.007-.021-.007-.021-.006-.022-.006-.021-.005-.021-.006-.022-.005-.022-.005-.022-.004-.022-.005-.022-.004-.022-.004-.022-.003-.022-.004-.023-.003-.022-.002-.023-.003-.022-.002-.023-.002-.023-.001-.023-.002-.023-.001-.023v-.023L4 18.281v-6.347l.001-.023v-.023l.001-.023.002-.023.001-.023.002-.023.002-.022.003-.023.002-.023.003-.022.004-.022.003-.023.004-.022.004-.022.005-.022.004-.022.005-.022.005-.022.006-.021.005-.022.006-.021.006-.021.007-.022.007-.021.007-.021.007-.02.007-.021.008-.021.008-.02.008-.021.008-.02.009-.02.009-.02.009-.02.009-.02.01-.019.01-.02.01-.019.01-.019.011-.019.01-.019.011-.019.012-.019.011-.018.012-.018.011-.019.012-.018.013-.018.012-.017.013-.018.013-.017.013-.018.013-.017.013-.017.014-.016.014-.017.014-.016.014-.017.015-.016.014-.015.015-.016.015-.016.015-.015.016-.015.015-.015.016-.015.016-.015.016-.014.016-.014.016-.014.017-.014.017-.014.017-.013.017-.014.017-.013.017-.013.018-.012.018-.013.018-.012.018-.012.018-.012.018-.011.019-.012.018-.011.019-.011.019-.011.019-.01.019-.01.02-.01.019-.01.02-.01.019-.009.02-.009.02-.009.02-.009.021-.008.02-.008.02-.008.021-.008.021-.008.021-.007.021-.007.021-.006.021-.007.021-.006.022-.006.021-.006.022-.005.021-.005.022-.005.022-.005.022-.004.022-.004.023-.004.022-.004.022-.003.023-.003.022-.003.023-.002.023-.002.023-.002.022-.002.023-.001.023-.001.024-.001H5.8Zm.003.978h-.025l-.01.001h-.011l-.011.001-.01.001h-.011l-.01.001-.011.002-.01.001-.01.001-.01.002-.01.001-.011.002-.01.002-.01.002-.01.002-.009.002-.01.003-.01.002-.01.003-.009.002-.01.003-.01.003-.009.003-.01.003-.009.003-.009.004-.01.003-.009.004-.009.004-.009.003-.01.004-.009.004-.009.004-.009.005-.009.004-.008.005-.009.004-.009.005-.009.005-.008.004-.009.005-.008.006-.009.005-.008.005-.008.005-.009.006-.008.006-.008.005-.008.006-.008.006-.008.006-.008.006-.007.006-.008.006-.008.007-.007.006-.008.007-.007.006-.007.007-.008.007-.007.007-.007.007-.007.007-.007.007-.007.007-.006.008-.007.007-.006.007-.007.008-.006.008-.007.007-.006.008-.006.008-.006.008-.006.008-.005.008-.006.008-.006.008-.005.008-.006.009-.005.008-.005.008-.005.009-.005.008-.005.009-.005.009-.005.009-.004.008-.005.009-.004.009-.004.009-.004.009-.004.009-.004.009-.004.009-.004.01-.003.009-.004.009-.003.01-.004.009-.003.01-.003.009-.003.01-.002.009-.003.01-.003.01-.002.009-.002.01-.003.01-.002.01-.002.01-.002.01-.001.01-.002.01-.001.011-.002.01-.001.01-.001.011-.001.01-.001.01-.001.011v.011l-.001.01v.022l-.001.014v6.294l.001.024.001.022.001.021.002.021.002.021.003.02.003.02.004.02.005.02.004.02.006.019.005.019.006.019.007.019.007.019.008.018.008.018.008.018.009.018.009.018.01.017.01.017.01.017.011.016.012.017.011.016.012.015.013.016.013.015.013.015.013.014.014.015.014.013.015.014.015.013.015.013.015.012.016.013.016.011.016.011.017.011.017.011.017.01.017.01.018.009.017.009.018.008.019.008.018.008.019.007.018.006.019.006.02.006.019.005.02.005.019.005.02.003.021.004.02.003.021.002.021.002.021.001.021.001h.028l.085.004.084.012.083.019.081.026.079.033.075.039.071.046.068.052.062.058.057.063.052.067.045.072.04.076.032.078.025.081.019.083.011.085.003.085v7.197l.001.024.001.022.001.021.002.021.002.021.003.02.003.02.004.02.005.02.004.02.006.019.005.019.006.019.007.019.007.019.008.018.008.018.008.018.009.018.009.018.01.017.01.017.01.017.011.016.011.017.012.016.012.015.013.016.013.015.013.015.013.014.014.015.014.013.015.014.015.013.015.013.015.012.016.012.016.012.016.012.017.01.017.011.017.01.017.01.018.009.017.009.018.008.019.008.018.008.019.007.018.006.019.006.02.006.019.005.02.005.019.005.02.003.021.004.02.003.021.002.021.002.021.001.021.001h2.644v-6.32l-.009-.004-.032-.012-.032-.013-.031-.013-.031-.013-.031-.014-.031-.014-.03-.014-.03-.015-.031-.015-.029-.016-.03-.016-.03-.016-.029-.017-.029-.016-.028-.018-.029-.017-.028-.018-.028-.018-.028-.019-.028-.019-.027-.019-.027-.019-.027-.02-.027-.02-.026-.021-.026-.021-.026-.021-.025-.021-.026-.022-.025-.022-.024-.022-.025-.022-.024-.023-.024-.023-.024-.024-.023-.023-.023-.024-.023-.024-.022-.025-.023-.025-.022-.025-.021-.025-.022-.026-.021-.025-.02-.026-.021-.027-.02-.026-.02-.027-.019-.027-.02-.028-.018-.027-.019-.028-.018-.028-.018-.028-.018-.029-.017-.029-.017-.029-.016-.029-.017-.029-.015-.03-.016-.03-.015-.03-.015-.03-.014-.031-.015-.03-.013-.031-.014-.031-.013-.032-.012-.031-.013-.032-.012-.032-.011-.032-.011-.032-.011-.033-.01-.032-.01-.033-.01-.033-.009-.033-.009-.034-.008-.033-.008-.034-.008-.033-.007-.034-.007-.034-.006-.035-.006-.034-.006-.034-.005-.035-.004-.035-.004-.034-.004-.035-.004-.035-.002-.036-.003-.035-.002-.035-.001-.036-.002-.035v-8.093H5.803Z"/>
    <g transform="matrix(.9 0 0 .9 6.72823 8.67297)">
      <use xlink:href="#a" fill-rule="nonzero"/>
      <path d="m2.253-6.196.043.001.042.001.043.002.042.002.043.003.042.004.042.004.042.005.041.005.042.005.041.006.042.007.041.007.041.008.041.008.04.009.041.009.04.01.04.01.04.01.039.011.04.012.039.012.039.013.039.013.039.013.038.014.039.014.038.015.037.016.038.015.037.016.037.017.037.017.037.018.036.018.037.018.036.019.035.019.036.02.035.02.035.02.034.021.035.021.034.022.034.022.033.022.033.023.033.023.033.024.032.024.033.024.031.025.032.025.031.026.031.026.03.026.031.026.03.027.029.027.03.028.029.028.028.028.028.029.028.029.028.029.027.03.027.03.027.03.026.031.026.03.025.032.025.031.025.032.024.032.024.032.024.033.023.033.023.033.023.034.022.034.021.034.022.034.02.035.021.035.02.035.019.035.02.036.018.036.019.036.018.036.017.037.017.037.017.037.016.037.016.038.015.038.015.038.014.038.014.039.014.038.013.039.012.039.012.04.012.039.011.04.011.04.01.04.01.04.009.04.008.041.009.041.007.041.007.041.007.041.006.041.006.042.005.042.004.042.004.042.004.042.003.042.002.043.002.042.002.043.001.043v.086l-.001.043-.002.042-.002.043-.002.042-.003.043-.004.042-.004.042-.004.042-.005.041-.006.042-.006.041-.007.042-.007.041-.007.041-.009.041-.008.04-.009.041-.01.04-.01.04-.011.04-.011.039-.012.04-.012.039-.012.039-.013.039-.014.039-.014.038-.014.039-.015.038-.015.037-.016.038-.016.037-.017.037-.017.037-.017.037-.018.036-.019.037-.018.036-.02.035-.019.036-.02.035-.021.035-.02.034-.022.035-.021.034-.022.034-.023.033-.023.033-.023.033-.024.033-.024.032-.024.033-.025.031-.025.032-.025.031-.026.031-.026.03-.027.031-.027.03-.027.029-.028.03-.028.029-.028.028-.028.028-.029.028-.03.028-.029.027-.03.027-.031.027-.03.026-.031.026-.031.025-.032.025-.031.025-.033.024-.032.024-.033.024-.033.023-.033.023-.033.023-.034.022-.034.021-.035.022-.034.02L3.87.05l-.035.02-.036.02-.035.019-.036.019-.037.018-.036.018-.037.017-.037.017-.037.017-.037.016-.038.016-.037.015-.038.015-.039.014-.038.014-.039.014-.039.013L3.2.344l-.039.012-.04.012-.039.011-.04.011-.04.01-.04.01-.041.009-.04.008-.041.009-.041.007-.041.007-.042.007-.041.006-.042.006-.041.005-.042.004-.042.005-.042.003-.043.003-.042.002-.043.002-.042.002-.043.001h-.086L2.124.495 2.081.493 2.039.491 1.996.489 1.954.486 1.912.483 1.87.478 1.828.474 1.786.469 1.744.463 1.703.457 1.662.45 1.621.443 1.58.436 1.539.427 1.498.419 1.458.41 1.418.4l-.04-.01-.04-.011-.04-.011-.039-.012-.04-.012L1.18.332 1.141.319 1.103.305 1.064.291 1.026.277.988.262.95.247.912.231.875.215.838.198.801.181.764.164.728.146.692.128.656.109.62.09.585.07.55.05.515.029.48.009.446-.013.412-.034.378-.056.344-.079.311-.102.278-.125.245-.149.213-.173.181-.197.149-.222.118-.247.086-.272l-.03-.026-.031-.026-.03-.027-.03-.027-.03-.027-.029-.028-.029-.028-.029-.028-.028-.028-.028-.029-.028-.03-.027-.029-.027-.03-.026-.031-.026-.03-.026-.031-.026-.031-.025-.032-.025-.031-.024-.033-.024-.032-.024-.033-.023-.033-.023-.033-.022-.033-.022-.034-.022-.034-.021-.035-.021-.034-.02-.035-.02-.035-.02-.036-.019-.035-.019-.036-.018-.037-.018-.036-.018-.037-.017-.037-.017-.037-.016-.037-.015-.038-.016-.037-.015-.038-.014-.039-.014-.038-.013-.039-.013-.039-.013-.039-.012-.039-.012-.04-.011-.039-.01-.04-.01-.04-.01-.04-.009-.041-.009-.04-.008-.041-.008-.041-.007-.041-.007-.042-.006-.041-.005-.042-.005-.041-.005-.042-.004-.042-.004-.042-.003-.043-.002-.042-.002-.043-.001-.042-.001-.043v-.086l.001-.043.001-.043.002-.042.002-.043.003-.042.004-.042.004-.042.005-.042.005-.042.005-.042.006-.041.007-.041.007-.041.008-.041.008-.041.009-.041.009-.04.01-.04.01-.04.01-.04.011-.04.012-.039.012-.04.013-.039.013-.039.013-.038.014-.039.014-.038.015-.038.016-.038.015-.038.016-.037.017-.037.017-.037.018-.037.018-.036.018-.036.019-.036.019-.036.02-.035.02-.035.02-.035.021-.035.021-.034.022-.034.022-.034.022-.034.023-.033.023-.033.024-.033.024-.032.024-.032.025-.032.025-.031.026-.032.026-.03.026-.031.026-.03.027-.03.027-.03.028-.029.028-.029.028-.029.029-.028.029-.028.029-.028.03-.027.03-.027.03-.026.031-.026.03-.026.032-.026.031-.025.032-.025.032-.024.032-.024.033-.024.033-.023.033-.023.034-.022.034-.022.034-.022.034-.021.035-.021.035-.02.035-.02.035-.02.036-.019.036-.019.036-.018.036-.018.037-.018.037-.017.037-.017.037-.016.038-.015.038-.016.038-.015.038-.014.039-.014.038-.013.039-.013.039-.013.04-.012.039-.012.04-.011.04-.01.04-.01.04-.01.04-.009.041-.009.041-.008.041-.008.041-.007.041-.007.041-.006.042-.005.042-.005.042-.005.042-.004.042-.004.042-.003.043-.002.042-.002.043-.001.043-.001h.086Zm-.072 1.087-.029.001h-.029l-.029.002-.028.001-.029.002-.028.003-.028.003-.028.003-.028.003-.028.004-.028.004-.028.004-.027.005-.028.005-.027.006-.027.006-.027.006-.027.006-.027.007-.027.007-.026.008-.027.007-.026.008-.026.009-.027.009-.026.009-.025.009-.026.01-.026.01-.025.01-.025.011-.026.01-.025.012-.025.011-.024.012-.025.012-.024.012-.025.013-.024.013-.024.013-.023.014-.024.014-.024.014-.023.014L1-4.752l-.023.015-.023.015-.022.016-.023.016-.022.016-.022.016-.022.016-.021.017-.022.017-.021.018-.021.017-.021.018-.02.018-.021.018-.02.019-.02.019-.019.019-.02.019-.019.02-.019.019-.019.02-.019.02-.018.021-.018.02-.018.021-.017.021-.018.021-.017.022-.017.021-.016.022-.016.022-.017.022-.015.023-.016.022-.015.023-.015.023-.015.023-.014.024-.014.023-.014.024-.014.023-.013.024-.013.024-.013.025-.012.024-.012.025-.012.025-.011.024-.012.025-.01.026-.011.025-.01.025-.01.026-.01.026-.009.026-.009.026-.009.026-.009.026-.008.026-.007.027-.008.026-.007.027-.007.027-.006.027-.006.027-.006.027-.006.027-.005.028-.005.027-.004.028-.004.028-.004.028-.003.028-.004.028-.002.028-.003.028-.002.029-.001.028-.002.029v.029l-.001.029v.058l.001.029v.028l.002.029.001.029.002.028.003.028.002.029.004.028.003.028.004.028.004.027.004.028.005.028.005.027.006.027.006.028.006.027.006.027.007.026.007.027.008.027.007.026.008.027.009.026.009.026.009.026.009.026.01.026.01.025.01.026.011.025.01.025.012.025.011.025.012.025.012.024.012.025.013.024.013.024.013.024.014.024.014.023.014.024.014.023.015.023.015.023.015.023.016.023.015.022.017.022.016.022.016.022.017.022.017.021.018.021.017.021.018.021.018.021.018.02.019.02.019.02.019.02.019.019.02.02.019.019.02.018.02.019.021.018.02.018.021.018.021.018.021.017.022.017.021.017.022.017.022.016.022.016.023.016.022.015.023.015L1-.949l.023.015.023.015.024.014.024.014.023.013.024.013.024.013.025.013.024.012.025.013.024.011.025.012.025.011.026.011.025.011.025.01.026.01.026.009.025.01.026.009.027.009.026.008.026.008.027.008.026.007.027.008.027.006.027.007.027.006.027.006.027.005.028.005.027.005.028.005.028.004.028.003.028.004.028.003.028.003.028.002.029.002.028.002.029.001.029.001h.029l.029.001.029-.001h.029l.028-.001.029-.001.029-.002.028-.002L2.41-.6l.029-.003.028-.003.028-.004.028-.003.027-.004.028-.005.028-.005.027-.005.027-.005.027-.006.028-.006.027-.007.026-.006.027-.008.027-.007.026-.008.027-.008.026-.008.026-.009.026-.009.026-.01.026-.009.025-.01.026-.01.025-.011.025-.011.025-.011.025-.012.025-.011.024-.013.025-.012.024-.013.024-.013.024-.013.024-.013.023-.014.024-.014.023-.015.023-.015.023-.015.023-.015.023-.015.022-.016.022-.016.022-.016.022-.017.022-.017.021-.017.021-.017.021-.018.021-.018.021-.018.02-.018.02-.019.02-.018.02-.019.019-.02.02-.019.019-.02.018-.02.019-.02.018-.02.018-.021.018-.021.018-.021.017-.021.017-.021.017-.022.017-.022.016-.022.016-.022.016-.022.015-.023.015-.023.015-.023.015-.023.015-.023.014-.024.013-.023.014-.024.013-.024.013-.024.013-.024.012-.025.012-.024.012-.025.012-.025.011-.025.011-.025.011-.025.01-.026.01-.025.009-.026.01-.026.009-.026.009-.026.008-.026.008-.027.008-.026.007-.027.007-.027.007-.026.007-.027.006-.028.006-.027.005-.027.005-.027.005-.028.005-.028.004-.027.003-.028.004-.028.003-.028.003-.029.002-.028.002-.028.002-.029.001-.029.001-.028v-.029l.001-.029-.001-.029v-.029l-.001-.029-.001-.029-.002-.028-.002-.029-.002-.028-.003-.028-.003-.028-.004-.028-.003-.028-.004-.028-.005-.028-.005-.027-.005-.027-.005-.028-.006-.027-.006-.027-.007-.027-.007-.027-.007-.027-.007-.026-.008-.027-.008-.026-.008-.026-.009-.027-.009-.025-.01-.026-.009-.026-.01-.026-.01-.025-.011-.025-.011-.026-.011-.025-.012-.024-.012-.025-.012-.025-.012-.024-.013-.025-.013-.024-.013-.024-.014-.023-.013-.024-.014-.023-.015-.024-.015-.023-.015-.023-.015-.023-.015-.022-.016-.023-.016-.022-.016-.022-.017-.022-.017-.021-.017-.022-.017-.021-.018-.021-.018-.021-.018-.02-.018-.021-.019-.02-.018-.02-.019-.019-.02-.02-.019-.019-.02-.019-.02-.019-.02-.019-.02-.018-.021-.018-.021-.018-.021-.017-.021-.018-.021-.017-.022-.017-.022-.016-.022-.016-.022-.016-.022-.016-.023-.016-.023-.015-.023-.015-.023-.015-.023-.014-.024-.014-.023-.014-.024-.014-.024-.013-.024-.013-.024-.013-.025-.012-.024-.012-.025-.012-.025-.011-.025-.012-.025-.01-.025-.011-.026-.01-.025-.01-.026-.01-.026-.009-.026-.009-.026-.009-.026-.009-.027-.008-.026-.007-.027-.008-.027-.007-.026-.007-.027-.006-.028-.006-.027-.006-.027-.006-.027-.005-.028-.005-.028-.004-.027-.004-.028-.004-.028-.003-.028-.003L2.41-5.1l-.028-.003-.028-.002-.029-.001-.029-.002h-.028l-.029-.001h-.058Z"/>
    </g>
    <g transform="matrix(.9 0 0 .9 14.0113 8.67297)">
      <use xlink:href="#a" fill-rule="nonzero"/>
      <path d="m2.253-6.196.043.001.042.001.043.002.042.002.043.003.042.004.042.004.042.005.041.005.042.005.041.006.042.007.041.007.041.008.041.008.04.009.041.009.04.01.04.01.04.01.039.011.04.012.039.012.039.013.039.013.039.013.038.014.039.014.038.015.037.016.038.015.037.016.037.017.037.017.037.018.036.018.037.018.036.019.035.019.036.02.035.02.035.02.034.021.035.021.034.022.034.022.033.022.033.023.033.023.033.024.032.024.033.024.031.025.032.025.031.026.031.026.03.026.031.026.03.027.029.027.03.028.029.028.028.028.028.029.028.029.028.029.027.03.027.03.027.03.026.031.026.03.025.032.025.031.025.032.024.032.024.032.024.033.023.033.023.033.023.034.022.034.021.034.022.034.02.035.021.035.02.035.019.035.02.036.018.036.019.036.018.036.017.037.017.037.017.037.016.037.016.038.015.038.015.038.014.038.014.039.014.038.013.039.012.039.012.04.012.039.011.04.011.04.01.04.01.04.009.04.008.041.009.041.007.041.007.041.007.041.006.041.006.042.005.042.004.042.004.042.004.042.003.042.002.043.002.042.002.043.001.043v.086l-.001.043-.002.042-.002.043-.002.042-.003.043-.004.042-.004.042-.004.042-.005.041-.006.042-.006.041-.007.042-.007.041-.007.041-.009.041-.008.04-.009.041-.01.04-.01.04-.011.04-.011.039-.012.04-.012.039-.012.039-.013.039-.014.039-.014.038-.014.039-.015.038-.015.037-.016.038-.016.037-.017.037-.017.037-.017.037-.018.036-.019.037-.018.036-.02.035-.019.036-.02.035-.021.035-.02.034-.022.035-.021.034-.022.034-.023.033-.023.033-.023.033-.024.033-.024.032-.024.033-.025.031-.025.032-.025.031-.026.031-.026.03-.027.031-.027.03-.027.029-.028.03-.028.029-.028.028-.028.028-.029.028-.03.028-.029.027-.03.027-.031.027-.03.026-.031.026-.031.025-.032.025-.031.025-.033.024-.032.024-.033.024-.033.023-.033.023-.033.023-.034.022-.034.021-.035.022-.034.02L3.87.05l-.035.02-.036.02-.035.019-.036.019-.037.018-.036.018-.037.017-.037.017-.037.017-.037.016-.038.016-.037.015-.038.015-.039.014-.038.014-.039.014-.039.013L3.2.344l-.039.012-.04.012-.039.011-.04.011-.04.01-.04.01-.041.009-.04.008-.041.009-.041.007-.041.007-.042.007-.041.006-.042.006-.041.005-.042.004-.042.005-.042.003-.043.003-.042.002-.043.002-.042.002-.043.001h-.086L2.124.495 2.081.493 2.039.491 1.996.489 1.954.486 1.912.483 1.87.478 1.828.474 1.786.469 1.744.463 1.703.457 1.662.45 1.621.443 1.58.436 1.539.427 1.498.419 1.458.41 1.418.4l-.04-.01-.04-.011-.04-.011-.039-.012-.04-.012L1.18.332 1.141.319 1.103.305 1.064.291 1.026.277.988.262.95.247.912.231.875.215.838.198.801.181.764.164.728.146.692.128.656.109.62.09.585.07.55.05.515.029.48.009.446-.013.412-.034.378-.056.344-.079.311-.102.278-.125.245-.149.213-.173.181-.197.149-.222.118-.247.086-.272l-.03-.026-.031-.026-.03-.027-.03-.027-.03-.027-.029-.028-.029-.028-.029-.028-.028-.028-.028-.029-.028-.03-.027-.029-.027-.03-.026-.031-.026-.03-.026-.031-.026-.031-.025-.032-.025-.031-.024-.033-.024-.032-.024-.033-.023-.033-.023-.033-.022-.033-.022-.034-.022-.034-.021-.035-.021-.034-.02-.035-.02-.035-.02-.036-.019-.035-.019-.036-.018-.037-.018-.036-.018-.037-.017-.037-.017-.037-.016-.037-.015-.038-.016-.037-.015-.038-.014-.039-.014-.038-.013-.039-.013-.039-.013-.039-.012-.039-.012-.04-.011-.039-.01-.04-.01-.04-.01-.04-.009-.041-.009-.04-.008-.041-.008-.041-.007-.041-.007-.042-.006-.041-.005-.042-.005-.041-.005-.042-.004-.042-.004-.042-.003-.043-.002-.042-.002-.043-.001-.042-.001-.043v-.086l.001-.043.001-.043.002-.042.002-.043.003-.042.004-.042.004-.042.005-.042.005-.042.005-.042.006-.041.007-.041.007-.041.008-.041.008-.041.009-.041.009-.04.01-.04.01-.04.01-.04.011-.04.012-.039.012-.04.013-.039.013-.039.013-.038.014-.039.014-.038.015-.038.016-.038.015-.038.016-.037.017-.037.017-.037.018-.037.018-.036.018-.036.019-.036.019-.036.02-.035.02-.035.02-.035.021-.035.021-.034.022-.034.022-.034.022-.034.023-.033.023-.033.024-.033.024-.032.024-.032.025-.032.025-.031.026-.032.026-.03.026-.031.026-.03.027-.03.027-.03.028-.029.028-.029.028-.029.029-.028.029-.028.029-.028.03-.027.03-.027.03-.026.031-.026.03-.026.032-.026.031-.025.032-.025.032-.024.032-.024.033-.024.033-.023.033-.023.034-.022.034-.022.034-.022.034-.021.035-.021.035-.02.035-.02.035-.02.036-.019.036-.019.036-.018.036-.018.037-.018.037-.017.037-.017.037-.016.038-.015.038-.016.038-.015.038-.014.039-.014.038-.013.039-.013.039-.013.04-.012.039-.012.04-.011.04-.01.04-.01.04-.01.04-.009.041-.009.041-.008.041-.008.041-.007.041-.007.041-.006.042-.005.042-.005.042-.005.042-.004.042-.004.042-.003.043-.002.042-.002.043-.001.043-.001h.086Zm-.072 1.087-.029.001h-.029l-.029.002-.028.001-.029.002-.028.003-.028.003-.028.003-.028.003-.028.004-.028.004-.028.004-.027.005-.028.005-.027.006-.027.006-.027.006-.027.006-.027.007-.027.007-.026.008-.027.007-.026.008-.026.009-.027.009-.026.009-.025.009-.026.01-.026.01-.025.01-.025.011-.026.01-.025.012-.025.011-.024.012-.025.012-.024.012-.025.013-.024.013-.024.013-.023.014-.024.014-.023.014-.024.014L1-4.752l-.023.015-.023.015-.022.016-.023.015-.022.017-.022.016-.022.016-.021.017-.022.017-.021.018-.021.017-.021.018-.02.018-.021.018-.02.019-.02.019-.019.019-.02.019-.019.02-.019.019-.019.02-.019.02-.018.021-.018.02-.018.021-.017.021-.018.021-.017.022-.017.021-.016.022-.016.022-.017.022-.015.023-.016.022-.015.023-.015.023-.015.023-.014.024-.014.023-.014.024-.014.023-.013.024-.013.024-.013.025-.012.024-.012.025-.012.025-.011.024-.012.025-.01.026-.011.025-.01.025-.01.026-.01.026-.009.026-.009.026-.009.026-.009.026-.008.026-.007.027-.008.026-.007.027-.007.027-.006.027-.006.027-.006.027-.006.028-.005.027-.005.027-.004.028-.004.028-.004.028-.003.028-.004.028-.002.028-.003.028-.002.029-.001.028-.002.029v.029l-.001.029v.058l.001.029v.028l.002.029.001.029.002.028.003.028.002.029.004.028.003.028.004.028.004.027.004.028.005.028.005.027.006.027.006.028.006.027.006.027.007.026.007.027.008.027.007.026.008.027.009.026.009.026.009.026.009.026.01.026.01.025.01.026.011.025.01.025.012.025.011.025.012.025.012.024.012.025.013.024.013.024.013.024.014.024.014.023.014.024.014.023.015.023.015.023.015.023.016.023.015.022.017.022.016.022.016.022.017.022.017.021.018.021.017.021.018.021.018.021.018.02.019.02.019.02.019.02.019.019.02.02.019.019.02.018.02.019.021.018.02.018.021.018.021.018.021.017.022.017.021.017.022.017.022.016.022.016.023.016.022.015.023.015L1-.949l.023.015.024.015.023.014.024.014.023.013.024.013.024.013.025.013.024.012.025.013.024.011.025.012.025.011.026.011.025.011.025.01.026.01.026.009.025.01.026.009.027.009.026.008.026.008.027.008.026.007.027.008.027.006.027.007.027.006.027.006.027.005.028.005.027.005.028.005.028.004.028.003.028.004.028.003.028.003.028.002.029.002.028.002.029.001.029.001h.029l.029.001.029-.001h.029l.028-.001.029-.001.029-.002.028-.002L2.41-.6l.029-.003.028-.003.028-.004.028-.003.027-.004.028-.005.028-.005.027-.005.027-.005.027-.006.028-.006.027-.007.026-.006.027-.008.027-.007.026-.008.027-.008.026-.008.026-.009.026-.009.026-.01.026-.009.025-.01.026-.01.025-.011.025-.011.025-.011.025-.012.025-.011.024-.013.025-.012.024-.013.024-.013.024-.013.024-.013.023-.014.024-.014.023-.015.023-.015.023-.015.023-.015.023-.015.022-.016.022-.016.022-.016.022-.017.022-.017.021-.017.021-.017.021-.018.021-.018.021-.018.02-.018.02-.019.02-.018.02-.019.019-.02.02-.019.019-.02.018-.02.019-.02.018-.02.018-.021.018-.021.018-.021.017-.021.017-.021.017-.022.017-.022.016-.022.016-.022.016-.022.015-.023.015-.023.015-.023.015-.023.015-.023.014-.024.013-.023.014-.024.013-.024.013-.024.013-.024.012-.025.012-.024.012-.025.012-.025.011-.025.011-.025.011-.025.01-.026.01-.025.009-.026.01-.026.009-.026.009-.026.008-.026.008-.027.008-.026.007-.027.007-.027.007-.026.007-.027.006-.028.006-.027.005-.027.005-.027.005-.028.005-.028.004-.027.003-.028.004-.028.003-.028.003-.029.002-.028.002-.028.002-.029.001-.029.001-.028v-.029l.001-.029-.001-.029v-.029l-.001-.029-.001-.029-.002-.028-.002-.029-.002-.028-.003-.028-.003-.028-.004-.028-.003-.028-.004-.028-.005-.028-.005-.027-.005-.028-.005-.027-.006-.027-.006-.027-.007-.027-.007-.027-.007-.027-.007-.026-.008-.027-.008-.026-.008-.026-.009-.026-.009-.026-.01-.026-.009-.026-.01-.026-.01-.025-.011-.025-.011-.026-.011-.025-.012-.024-.012-.025-.012-.025-.012-.024-.013-.025-.013-.024-.013-.024-.014-.023-.013-.024-.014-.023-.015-.024-.015-.023-.015-.023-.015-.023-.015-.022-.016-.023-.016-.022-.016-.022-.017-.022-.017-.021-.017-.022-.017-.021-.018-.021-.018-.021-.018-.02-.018-.021-.019-.02-.018-.02-.019-.019-.02-.02-.019-.019-.02-.019-.02-.019-.02-.019-.02-.018-.021-.018-.021-.018-.021-.017-.021-.018-.021-.017-.022-.017-.022-.016-.022-.016-.022-.017-.022-.015-.023-.016-.023-.015-.023-.015-.023-.015-.023-.014-.024-.014-.023-.014-.024-.014-.024-.013-.024-.013-.024-.013-.025-.012-.024-.012-.025-.012-.025-.011-.025-.012-.025-.01-.025-.011-.026-.01-.025-.01-.026-.01-.026-.009-.026-.009-.026-.009-.026-.009-.027-.008-.026-.007-.027-.008-.027-.007-.026-.007-.027-.006-.028-.006-.027-.006-.027-.006-.027-.005-.028-.005-.028-.004-.027-.004-.028-.004-.028-.003-.028-.003L2.41-5.1l-.028-.003-.028-.002-.029-.001-.029-.002h-.028l-.029-.001h-.058Z"/>
    </g>
    <path fill="#fff" fill-rule="nonzero" d="M12.406 10.156c-.994 0-1.812.819-1.812 1.813v6.281c0 .994.818 1.813 1.812 1.813v7.187c0 .994.787 1.813 1.782 1.813h3.625c.994 0 1.781-.819 1.781-1.813v-7.187c.994 0 1.812-.819 1.812-1.813v-6.281c0-.994-.818-1.813-1.812-1.813h-7.188Z"/>
    <path d="m19.617 10.156.023.001.023.001.023.001.023.001.023.002.023.001.023.003.023.002.022.003.023.003.022.003.023.004.022.004.022.004.022.004.022.005.022.005.022.005.021.006.022.005.022.007.021.006.021.006.021.007.021.007.021.007.021.008.021.008.021.008.02.008.02.009.021.008.02.009.02.01.02.009.019.01.02.01.019.01.02.01.019.011.019.011.019.011.019.011.018.012.019.012.018.011.018.013.018.012.018.013.018.012.017.013.018.014.017.013.017.014.017.013.017.014.016.015.016.014.017.015.016.014.016.015.015.015.016.016.015.015.015.016.015.016.015.016.015.016.014.016.014.017.014.017.014.017.014.017.013.017.013.017.013.018.013.018.013.017.012.018.012.019.012.018.012.018.011.019.012.019.011.019.01.019.011.019.011.019.01.02.01.019.009.02.01.02.009.02.009.02.009.02.008.021.009.02.008.021.007.02.008.021.007.021.007.021.007.021.007.022.006.021.006.021.006.022.005.022.005.022.005.021.005.022.005.023.004.022.004.022.003.022.004.023.003.022.002.023.003.023.002.022.002.023.002.023.001.023.001.023.001.023v6.374l-.001.024-.001.023-.001.023-.002.023-.002.022-.002.023-.003.023-.002.022-.003.023-.004.022-.003.023-.004.022-.004.022-.005.022-.005.022-.005.022-.005.022-.005.022-.006.021-.006.022-.006.021-.007.021-.007.022-.007.021-.007.021-.008.02-.007.021-.008.021-.009.02-.008.021-.009.02-.009.02-.009.02-.01.02-.009.02-.01.019-.01.02-.011.019-.011.019-.01.019-.011.019-.012.019-.011.018-.012.019-.012.018-.012.018-.012.018-.013.018-.013.018-.013.017-.013.018-.013.017-.014.017-.014.017-.014.017-.014.016-.014.017-.015.016-.015.016-.015.016-.015.016-.015.015-.016.015-.015.016-.016.014-.016.015-.017.015-.016.014-.016.014-.017.014-.017.014-.017.014-.017.013-.018.013-.017.013-.018.013-.018.013-.018.012-.018.012-.018.012-.019.012-.018.011-.019.012-.019.011-.019.011-.019.01-.02.011-.019.01-.02.01-.019.01-.02.009-.02.009-.02.009-.021.009-.02.009-.02.008-.021.008-.021.008-.021.007-.021.008-.021.007-.021.006-.021.007-.021.006-.022.006-.022.006-.021.006-.022.005-.022.005-.022.004-.022.005-.022.004-.022.004-.023.003-.022.004-.023.003-.022.003-.023.002-.023.002-.023.002-.023.002-.023.001-.023.001-.023.001h-.023l-.023.001v7.21l-.001.023-.001.024-.001.023-.001.023-.001.023-.002.022-.002.023-.003.023-.002.022-.003.023-.004.022-.003.023-.004.022-.004.022-.004.022-.005.022-.004.022-.005.022-.006.022-.005.021-.006.022-.006.021-.006.021-.007.022-.007.021-.007.021-.007.02-.008.021-.007.021-.009.02-.008.021-.008.02-.009.02-.009.02-.009.02-.01.02-.009.019-.01.02-.01.019-.01.019-.011.019-.011.019-.011.019-.011.018-.011.019-.012.018-.012.018-.012.018-.012.018-.012.018-.013.017-.013.018-.013.017-.013.017-.014.017-.013.017-.014.016-.014.017-.014.016-.015.016-.014.016-.015.016-.015.015-.015.015-.016.016-.015.014-.016.015-.016.015-.016.014-.016.014-.016.014-.017.014-.016.014-.017.013-.017.013-.017.013-.018.013-.017.013-.018.012-.018.012-.018.012-.018.012-.018.011-.019.012-.018.011-.019.011-.019.01-.019.011-.019.01-.019.01-.02.01-.019.009-.02.009-.02.009-.02.009-.02.009-.02.008-.02.008-.021.008-.02.007-.021.008-.021.007-.021.006-.021.007-.021.006-.021.006-.022.006-.021.006-.022.005-.022.005-.022.004-.021.005-.022.004-.023.004-.022.003-.022.004-.023.003-.022.003-.023.002-.022.002-.023.002-.023.002-.023.001-.023.001-.023.001h-.023l-.023.001h-3.625l-.024-.001h-.023l-.023-.001-.023-.001-.023-.001-.023-.002-.023-.002-.022-.002-.023-.002-.022-.003-.023-.003-.022-.004-.022-.003-.023-.004-.022-.004-.021-.005-.022-.004-.022-.005-.022-.005-.021-.006-.022-.006-.021-.006-.021-.006-.021-.007-.021-.006-.021-.007-.021-.008-.02-.007-.021-.008-.02-.008-.02-.008-.02-.009-.02-.009-.02-.009-.02-.009-.019-.009-.02-.01-.019-.01-.019-.01-.019-.011-.019-.01-.019-.011-.018-.011-.019-.012-.018-.011-.018-.012-.018-.012-.018-.012-.018-.012-.017-.013-.018-.013-.017-.013-.017-.013-.017-.013-.016-.014-.017-.014-.016-.014-.016-.014-.016-.014-.016-.015-.016-.015-.015-.014-.016-.016-.015-.015-.015-.015-.015-.016-.014-.016-.015-.016-.014-.016-.014-.017-.014-.016-.013-.017-.014-.017-.013-.017-.013-.017-.013-.018-.013-.017-.012-.018-.012-.018-.012-.018-.012-.018-.012-.018-.011-.019-.011-.018-.011-.019-.011-.019-.011-.019-.01-.019-.01-.019-.01-.02-.009-.019-.01-.02-.009-.02-.009-.02-.009-.02-.008-.02-.008-.021-.009-.02-.007-.021-.008-.021-.007-.02-.007-.021-.007-.021-.007-.022-.006-.021-.006-.021-.006-.022-.005-.021-.006-.022-.005-.022-.004-.022-.005-.022-.004-.022-.004-.022-.004-.022-.003-.023-.004-.022-.003-.023-.002-.022-.003-.023-.002-.023-.002-.022-.001-.023-.001-.023-.001-.023-.001-.024-.001-.023v-7.21l-.023-.001h-.023l-.023-.001-.023-.001-.023-.001-.023-.002-.023-.002-.023-.002-.023-.002-.022-.003-.023-.003-.022-.004-.023-.003-.022-.004-.022-.004-.022-.005-.022-.004-.022-.005-.022-.005-.021-.006-.022-.006-.022-.006-.021-.006-.021-.007-.021-.006-.021-.007-.021-.008-.021-.007-.021-.008-.021-.008-.02-.008-.02-.009-.021-.009-.02-.009-.02-.009-.02-.009-.019-.01-.02-.01-.019-.01-.02-.011-.019-.01-.019-.011-.019-.011-.019-.012-.018-.011-.019-.012-.018-.012-.018-.012-.018-.012-.018-.013-.018-.013-.017-.013-.018-.013-.017-.013-.017-.014-.017-.014-.017-.014-.016-.014-.016-.014-.017-.015-.016-.015-.016-.014-.015-.016-.016-.015-.015-.015-.015-.016-.015-.016-.015-.016-.015-.016-.014-.017-.014-.016-.014-.017-.014-.017-.014-.017-.013-.017-.013-.018-.013-.017-.013-.018-.013-.018-.012-.018-.012-.018-.012-.018-.012-.019-.011-.018-.012-.019-.011-.019-.01-.019-.011-.019-.011-.019-.01-.02-.01-.019-.009-.02-.01-.02-.009-.02-.009-.02-.009-.02-.008-.021-.009-.02-.008-.021-.007-.021-.008-.02-.007-.021-.007-.021-.007-.022-.007-.021-.006-.021-.006-.022-.006-.021-.005-.022-.005-.022-.005-.022-.005-.022-.005-.022-.004-.022-.004-.022-.003-.023-.004-.022-.003-.023-.002-.022-.003-.023-.002-.023-.002-.022-.002-.023-.001-.023-.001-.023-.001-.024v-6.374l.001-.023.001-.023.001-.023.002-.023.002-.023.002-.022.003-.023.002-.023.003-.022.004-.023.003-.022.004-.022.004-.022.005-.023.005-.022.005-.021.005-.022.005-.022.006-.022.006-.021.006-.021.007-.022.007-.021.007-.021.007-.021.008-.021.007-.02.008-.021.009-.02.008-.021.009-.02.009-.02.009-.02.01-.02.009-.02.01-.019.01-.02.011-.019.011-.019.01-.019.011-.019.012-.019.011-.019.012-.018.012-.018.012-.019.012-.018.013-.017.013-.018.013-.018.013-.017.013-.017.014-.017.014-.017.014-.017.014-.017.014-.016.015-.016.015-.016.015-.016.015-.016.015-.015.016-.016.015-.015.016-.015.016-.014.017-.015.016-.014.016-.015.017-.014.017-.013.017-.014.017-.013.018-.014.017-.013.018-.012.018-.013.018-.012.018-.013.018-.011.019-.012.018-.012.019-.011.019-.011.019-.011.019-.011.02-.01.019-.01.02-.01.019-.01.02-.009.02-.01.02-.009.021-.008.02-.009.02-.008.021-.008.021-.008.021-.008.021-.007.021-.007.021-.007.021-.006.021-.006.022-.007.022-.005.021-.006.022-.005.022-.005.022-.005.022-.004.022-.004.022-.004.023-.004.022-.003.023-.003.022-.003.023-.002.023-.003.023-.001.023-.002.023-.001.023-.001.023-.001.023-.001h7.234Zm-7.208.979h-.035l-.01.001h-.011l-.01.001-.01.001-.011.001-.01.001-.01.001-.01.002-.011.001-.01.002-.01.002-.01.002-.01.002-.01.002-.01.002-.009.002-.01.003-.01.002-.01.003-.009.003-.01.003-.01.003-.009.003-.01.003-.009.004-.01.003-.009.004-.009.004-.01.004-.009.004-.009.004-.009.004-.01.005-.009.004-.009.005-.009.004-.009.005-.008.005-.009.005-.009.005-.009.005-.008.006-.009.005-.009.006-.008.005-.008.006-.009.006-.008.006-.008.006-.008.006-.008.007-.008.006-.008.006-.008.007-.008.007-.008.006-.007.007-.008.007-.007.007-.008.007-.007.008-.007.007-.007.007-.007.008-.007.007-.007.008-.007.008-.006.007-.007.008-.006.008-.007.008-.006.008-.006.008-.006.009-.006.008-.006.008-.006.009-.006.008-.005.009-.006.008-.005.009-.005.008-.005.009-.005.009-.005.009-.005.009-.005.009-.004.009-.005.009-.004.009-.005.009-.004.009-.004.01-.004.009-.003.009-.004.01-.004.009-.003.01-.003.009-.004.01-.003.009-.003.01-.002.01-.003.009-.003.01-.002.01-.003.01-.002.01-.002.01-.002.01-.002.01-.002.01-.001.01-.002.01-.001.01-.001.01-.001.011-.001.01-.001.01-.001.011-.001.01v.021l-.001.011v6.289l.001.024v.021l.002.021.002.021.002.021.003.02.003.02.004.02.004.02.005.019.006.02.005.019.007.02.006.019.008.018.007.019.008.019.009.018.009.018.01.018.01.018.01.017.011.017.011.017.012.017.012.016.012.017.013.016.013.015.014.015.014.015.014.015.015.014.015.014.015.014.016.013.016.013.016.013.016.012.017.011.017.012.017.01.018.011.017.01.018.009.018.009.019.009.018.008.019.008.019.007.019.007.019.006.019.006.02.005.019.005.02.004.02.004.02.003.021.003.02.003.021.002.021.001.021.001h.028l.084.004.085.012.083.019.08.026.079.033.075.039.072.046.067.052.062.058.058.063.051.067.046.072.039.076.032.078.026.081.018.083.011.085.004.085v7.209l.001.022.001.022.002.022.002.021.003.021.004.021.004.021.004.02.005.02.005.02.006.02.006.02.007.019.007.019.007.019.008.019.009.019.009.018.009.018.009.017.01.018.011.017.011.017.011.016.012.017.011.016.013.015.012.016.013.015.014.014.013.015.014.013.014.014.015.013.015.013.015.012.015.012.016.012.015.011.016.011.017.01.016.01.017.01.017.009.017.009.017.008.018.008.018.007.017.007.019.007.018.006.018.005.019.006.019.004.019.004.02.004.019.004.02.002.02.003.021.002.02.001.021.001h3.668l.01-.001h.011l.01-.001h.01l.011-.001.01-.001.01-.001.01-.002.01-.001.01-.001.01-.002.009-.002.01-.002.01-.002.009-.002.01-.002.009-.002.01-.002.009-.003.01-.003.009-.002.009-.003.009-.003.009-.003.01-.004.009-.003.009-.003.009-.004.008-.003.009-.004.009-.004.009-.004.008-.004.009-.004.009-.005.008-.004.009-.004.008-.005.009-.005.008-.005.008-.005.008-.005.008-.005.009-.005.008-.005.008-.006.008-.005.007-.006.008-.006.008-.006.008-.006.007-.006.008-.006.007-.006.008-.006.007-.007.007-.006.008-.007.007-.007.007-.007.007-.006.007-.008.007-.007.006-.007.007-.007.007-.007.006-.008.007-.007.006-.008.006-.008.006-.007.007-.008.006-.008.005-.008.006-.008.006-.009.006-.008.005-.008.006-.009.005-.008.005-.009.006-.008.005-.009.005-.009.004-.008.005-.009.005-.009.004-.009.005-.009.004-.009.005-.01.004-.009.004-.009.004-.01.004-.009.003-.01.004-.009.003-.01.004-.009.003-.01.003-.01.003-.01.003-.01.003-.01.003-.01.002-.01.003-.01.002-.01.002-.01.002-.01.002-.011.002-.01.002-.01.002-.011.001-.01.002-.011.001-.011.001-.01.001-.011.001-.011.001-.011v-.011l.001-.011v-7.22l.004-.085.011-.085.018-.083.026-.081.032-.078.039-.076.046-.072.051-.067.058-.063.062-.058.067-.052.072-.046.075-.039.079-.033.08-.026.083-.019.085-.012.084-.004h.028l.011-.001h.01l.011-.001h.01l.01-.001.011-.001.01-.001.01-.002.01-.001.011-.002.01-.001.01-.002.01-.002.01-.002.01-.002.01-.002.009-.003.01-.002.01-.003.01-.002.009-.003.01-.003.01-.003.009-.003.01-.004.009-.003.01-.004.009-.003.009-.004.01-.004.009-.004.009-.004.009-.004.01-.005.009-.004.009-.005.009-.005.009-.004.008-.005.009-.005.009-.005.009-.006.008-.005.009-.005.008-.006.009-.006.008-.006.009-.005.008-.006.008-.006.008-.007.008-.006.008-.006.008-.007.008-.006.008-.007.008-.007.007-.007.008-.007.007-.007.008-.007.007-.007.007-.007.007-.008.007-.007.007-.008.007-.007.007-.008.006-.008.007-.007.006-.008.007-.008.006-.008.006-.009.006-.008.006-.008.006-.008.006-.009.006-.008.005-.009.006-.008.005-.009.005-.009.005-.008.005-.009.005-.009.005-.009.005-.009.004-.009.005-.009.004-.009.005-.009.004-.01.004-.009.004-.009.003-.01.004-.009.004-.009.003-.01.003-.009.004-.01.003-.01.003-.009.002-.01.003-.01.003-.009.002-.01.003-.01.002-.01.002-.01.002-.01.002-.01.002-.01.001-.01.002-.01.001-.01.001-.011.001-.01.001-.01.001-.011.001-.01.001-.011v-.021l.001-.01v-6.303l-.001-.011v-.021l-.001-.01-.001-.011-.001-.01-.001-.01-.001-.011-.001-.01-.001-.01-.002-.01-.001-.01-.002-.01-.002-.01-.002-.01-.002-.01-.002-.01-.003-.01-.002-.01-.003-.01-.003-.009-.002-.01-.003-.01-.003-.009-.004-.01-.003-.009-.003-.01-.004-.009-.004-.01-.003-.009-.004-.009-.004-.01-.004-.009-.005-.009-.004-.009-.005-.009-.004-.009-.005-.009-.005-.009-.005-.009-.005-.009-.005-.009-.005-.008-.005-.009-.006-.008-.005-.009-.006-.008-.006-.009-.006-.008-.006-.008-.006-.009-.006-.008-.006-.008-.007-.008-.006-.008-.007-.008-.006-.007-.007-.008-.007-.008-.007-.007-.007-.008-.007-.007-.007-.007-.007-.008-.008-.007-.007-.007-.008-.007-.007-.007-.008-.006-.008-.007-.008-.007-.008-.006-.008-.006-.008-.007-.008-.006-.008-.006-.008-.006-.009-.006-.008-.006-.008-.005-.009-.006-.009-.005-.008-.006-.009-.005-.009-.005-.009-.005-.008-.005-.009-.005-.009-.004-.009-.005-.009-.004-.01-.005-.009-.004-.009-.004-.009-.004-.01-.004-.009-.004-.009-.004-.01-.003-.009-.003-.01-.004-.009-.003-.01-.003-.01-.003-.009-.003-.01-.003-.01-.002-.01-.003-.009-.002-.01-.002-.01-.002-.01-.002-.01-.002-.01-.002-.01-.002-.011-.001-.01-.002-.01-.001-.01-.001-.011-.001-.01-.001-.01-.001h-.011l-.01-.001h-7.217Z"/>
    <path fill="#fff" fill-rule="nonzero" d="M26.2 10.158c.994 0 1.8.806 1.8 1.8v6.3c0 .994-.806 1.8-1.8 1.8v7.2c0 .994-.806 1.8-1.8 1.8h-3.6v-8.1c.994 0 1.8-.806 1.8-1.8v-9h3.6Z"/>
    <path d="M26.223 10.158h.023l.024.001.023.001.023.001.022.002.023.002.023.002.023.002.022.003.023.003.022.003.022.004.023.004.022.004.022.004.022.005.022.005.021.005.022.005.021.006.022.006.021.006.021.007.021.006.021.007.021.007.021.008.021.008.02.008.02.008.021.008.02.009.02.009.02.009.019.009.02.01.019.01.02.01.019.01.019.01.019.011.019.011.018.011.019.012.018.011.018.012.018.012.018.012.018.013.018.012.017.013.017.013.017.014.017.013.017.014.017.014.016.014.016.014.016.014.016.015.016.015.015.015.016.015.015.015.015.016.015.016.014.015.015.016.014.017.014.016.014.017.014.016.013.017.013.017.013.018.013.017.013.018.012.017.013.018.012.018.011.019.012.018.011.018.012.019.011.019.01.019.011.019.01.019.01.019.01.02.01.019.009.02.009.02.009.02.009.02.008.02.008.021.008.02.008.021.007.021.007.02.007.021.007.021.007.022.006.021.006.021.005.022.006.021.005.022.005.022.004.022.005.022.004.022.004.022.003.023.004.022.003.022.002.023.003.023.002.022.002.023.001.023.002.023.001.023v.023l.001.023v6.347l-.001.023v.023l-.001.023-.002.023-.001.023-.002.023-.002.023-.003.022-.002.023-.003.022-.004.023-.003.022-.004.022-.004.022-.005.022-.004.022-.005.022-.005.022-.006.022-.005.021-.006.021-.006.022-.007.021-.007.021-.007.021-.007.021-.007.021-.008.02-.008.021-.008.02-.008.02-.009.02-.009.02-.009.02-.009.02-.01.02-.01.019-.01.019-.01.02-.011.019-.01.019-.011.018-.012.019-.011.019-.012.018-.011.018-.012.018-.013.018-.012.018-.013.017-.013.018-.013.017-.013.017-.013.017-.014.017-.014.016-.014.017-.014.016-.015.016-.014.016-.015.016-.015.015-.015.015-.016.016-.015.015-.016.014-.016.015-.016.015-.016.014-.016.014-.017.014-.017.013-.017.014-.017.013-.017.013-.017.013-.018.013-.018.012-.018.012-.018.012-.018.012-.018.012-.019.011-.018.011-.019.011-.019.011-.019.01-.019.011-.02.01-.019.01-.02.009-.019.01-.02.009-.02.009-.02.008-.021.009-.02.008-.02.008-.021.007-.021.008-.021.007-.021.007-.021.007-.021.006-.021.006-.022.006-.021.006-.022.005-.021.006-.022.005-.022.004-.022.004-.022.005-.023.003-.022.004-.022.003-.023.003-.022.003-.023.002-.023.003-.023.001-.022.002-.023.001-.023.001-.024.001-.023.001H26.2v7.223l-.001.023v.023l-.001.023-.002.023-.001.023-.002.023-.002.023-.003.022-.002.023-.003.022-.004.023-.003.022-.004.022-.004.022-.005.022-.004.022-.005.022-.005.022-.006.022-.005.021-.006.021-.006.022-.007.021-.007.021-.007.021-.007.021-.007.021-.008.02-.008.021-.008.02-.008.02-.009.02-.009.02-.009.02-.009.02-.01.02-.01.019-.01.019-.01.02-.011.019-.01.019-.011.018-.012.019-.011.019-.012.018-.011.018-.012.018-.013.018-.012.018-.013.017-.013.018-.013.017-.013.017-.013.017-.014.017-.014.016-.014.017-.014.016-.015.016-.014.016-.015.016-.015.015-.015.015-.016.016-.015.015-.016.014-.016.015-.016.015-.016.014-.016.014-.017.014-.017.013-.017.014-.017.013-.017.013-.017.013-.018.013-.018.012-.018.012-.018.012-.018.012-.018.012-.019.011-.018.011-.019.011-.019.011-.019.01-.019.011-.02.01-.019.01-.02.009-.019.01-.02.009-.02.009-.02.008-.021.009-.02.008-.02.008-.021.007-.021.008-.021.007-.021.007-.021.007-.021.006-.021.006-.022.006-.021.006-.022.005-.021.006-.022.005-.022.004-.022.004-.022.005-.023.003-.022.004-.022.003-.023.003-.022.003-.023.002-.023.003-.023.001-.022.002-.023.001-.023.001-.024.001-.023.001H20.8v-8.1h.023l.023-.001.024-.001.023-.001.023-.001.022-.002.023-.001.023-.003.023-.002.022-.003.023-.003.022-.003.022-.004.023-.003.022-.005.022-.004.022-.004.022-.005.021-.006.022-.005.021-.006.022-.006.021-.006.021-.006.021-.007.021-.007.021-.007.021-.008.021-.007.02-.008.02-.008.021-.009.02-.008.02-.009.02-.009.019-.01.02-.009.019-.01.02-.01.019-.011.019-.01.019-.011.019-.011.018-.011.019-.011.018-.012.018-.012.018-.012.018-.012.018-.012.018-.013.017-.013.017-.013.017-.013.017-.014.017-.013.017-.014.016-.014.016-.014.016-.015.016-.015.016-.014.015-.015.016-.016.015-.015.015-.015.015-.016.014-.016.015-.016.014-.016.014-.017.014-.016.014-.017.013-.017.013-.017.013-.017.013-.018.013-.017.012-.018.013-.018.012-.018.011-.018.012-.018.011-.019.012-.019.011-.018.01-.019.011-.019.01-.02.01-.019.01-.019.01-.02.009-.02.009-.02.009-.02.009-.02.008-.02.008-.02.008-.021.008-.02.007-.021.007-.021.007-.021.007-.021.007-.021.006-.022.006-.021.005-.021.006-.022.005-.022.005-.022.004-.022.005-.022.004-.022.004-.022.003-.022.004-.023.003-.022.002-.023.003-.022.002-.023.002-.023.001-.023.002-.023.001-.023v-.023l.001-.023v-9.023h3.623Zm-2.645.978v8.093l-.002.035-.001.036-.002.035-.003.035-.002.036-.004.035-.004.035-.004.034-.004.035-.005.035-.006.034-.006.034-.006.035-.007.034-.007.034-.008.033-.008.034-.008.033-.009.034-.009.033-.01.033-.01.033-.01.032-.011.033-.011.032-.011.032-.012.032-.013.032-.012.031-.013.032-.014.031-.013.031-.015.03-.014.031-.015.03-.015.03-.016.03-.015.03-.017.029-.016.029-.017.029-.017.029-.018.029-.018.028-.018.028-.019.028-.018.027-.02.028-.019.027-.02.027-.02.026-.021.027-.02.026-.021.025-.022.026-.021.025-.022.025-.023.025-.022.025-.023.024-.023.024-.023.023-.024.024-.024.023-.024.023-.025.022-.024.022-.025.022-.026.022-.025.021-.026.021-.026.021-.026.021-.027.02-.027.02-.027.019-.027.019-.028.019-.028.019-.028.018-.028.018-.029.017-.028.018-.029.016-.029.017-.03.016-.03.016-.029.016-.031.015-.03.015-.03.014-.031.014-.031.014-.031.013-.032.013-.031.013-.032.012-.009.004v6.32h2.654l.011-.001h.011l.01-.001.011-.001.01-.001.011-.001.01-.001.01-.002.01-.001.01-.002.011-.002.01-.002.01-.001.01-.003.009-.002.01-.002.01-.003.01-.002.009-.003.01-.003.01-.003.009-.003.01-.003.009-.003.009-.003.01-.004.009-.003.009-.004.009-.004.01-.004.009-.004.009-.004.009-.004.009-.005.008-.004.009-.005.009-.004.009-.005.008-.005.009-.005.008-.005.009-.005.008-.006.008-.005.009-.005.008-.006.008-.006.008-.006.008-.005.008-.006.008-.007.007-.006.008-.006.008-.006.007-.007.008-.006.007-.007.007-.007.008-.007.007-.006.007-.007.007-.007.007-.008.007-.007.006-.007.007-.008.006-.007.007-.008.006-.007.007-.008.006-.008.006-.007.006-.008.006-.008.006-.008.005-.008.006-.009.005-.008.006-.008.005-.009.005-.008.005-.009.005-.008.005-.009.005-.008.005-.009.004-.009.005-.009.004-.009.004-.009.004-.009.004-.009.004-.009.004-.009.004-.009.003-.009.004-.01.003-.009.004-.01.003-.009.003-.01.003-.009.002-.01.003-.01.003-.009.002-.01.002-.01.003-.01.002-.01.002-.01.002-.01.001-.01.002-.01.001-.01.002-.01.001-.011.001-.01.001-.011.001-.01.001-.011v-.01l.001-.011v-.021l.001-.014v-7.197l.003-.085.011-.085.019-.083.025-.081.032-.078.04-.076.045-.072.052-.067.057-.063.062-.058.068-.052.071-.046.075-.039.079-.033.081-.026.083-.019.084-.012.085-.004h.038l.011-.001h.011l.01-.001.011-.001.01-.001.011-.001.01-.001.01-.002.01-.001.01-.002.011-.002.01-.002.01-.001.01-.003.009-.002.01-.002.01-.003.01-.002.009-.003.01-.003.01-.003.009-.003.01-.003.009-.003.009-.003.01-.004.009-.003.009-.004.009-.004.01-.004.009-.004.009-.004.009-.004.009-.005.008-.004.009-.005.009-.004.009-.005.008-.005.009-.005.008-.005.009-.005.008-.006.008-.005.009-.005.008-.006.008-.006.008-.006.008-.005.008-.006.008-.007.007-.006.008-.006.008-.006.007-.007.008-.006.007-.007.007-.007.008-.007.007-.006.007-.007.007-.007.007-.008.007-.007.006-.007.007-.008.006-.007.007-.008.006-.007.007-.008.006-.008.006-.007.006-.008.006-.008.005-.008.006-.008.006-.009.005-.008.006-.008.005-.009.005-.008.005-.009.005-.008.005-.009.005-.008.005-.009.004-.009.005-.009.004-.009.004-.009.004-.009.004-.009.004-.009.004-.009.004-.009.003-.01.004-.009.003-.009.004-.01.003-.009.003-.01.003-.009.002-.01.003-.01.003-.009.002-.01.002-.01.003-.01.002-.01.002-.01.002-.01.001-.01.002-.01.001-.01.002-.01.001-.011.001-.01.001-.011.001-.01.001-.011v-.01l.001-.011v-.021l.001-.014v-6.294l-.001-.014v-.022l-.001-.01v-.011l-.001-.011-.001-.01-.001-.01-.001-.011-.001-.01-.002-.01-.001-.011-.002-.01-.001-.01-.002-.01-.002-.01-.002-.01-.003-.01-.002-.01-.002-.009-.003-.01-.003-.01-.002-.009-.003-.01-.003-.009-.003-.01-.004-.009-.003-.01-.004-.009-.003-.009-.004-.01-.004-.009-.004-.009-.004-.009-.004-.009-.004-.009-.004-.009-.005-.009-.004-.008-.005-.009-.005-.009-.005-.009-.005-.008-.005-.009-.005-.008-.005-.008-.006-.009-.005-.008-.006-.008-.006-.008-.005-.008-.006-.008-.006-.008-.006-.008-.006-.008-.007-.007-.006-.008-.007-.008-.006-.007-.007-.007-.006-.008-.007-.007-.007-.007-.007-.007-.007-.007-.007-.007-.008-.007-.007-.007-.007-.006-.008-.007-.007-.006-.008-.007-.008-.006-.007-.006-.008-.006-.008-.006-.008-.006-.008-.006-.008-.005-.008-.006-.009-.006-.008-.005-.008-.005-.009-.005-.008-.006-.009-.005-.008-.004-.009-.005-.009-.005-.009-.004-.008-.005-.009-.004-.009-.005-.009-.004-.009-.004-.01-.004-.009-.003-.009-.004-.009-.004-.01-.003-.009-.004-.009-.003-.01-.003-.009-.003-.01-.003-.01-.003-.009-.002-.01-.003-.01-.002-.01-.003-.009-.002-.01-.002-.01-.002-.01-.002-.011-.002-.01-.001-.01-.002-.01-.001-.01-.001-.011-.002-.01-.001h-.011l-.01-.001-.011-.001h-.011l-.01-.001h-2.644Z"/>
    <g transform="matrix(.9 0 0 .9 21.2943 8.67297)">
      <use xlink:href="#a" fill-rule="nonzero"/>
      <path d="m2.253-6.196.043.001.042.001.043.002.042.002.043.003.042.004.042.004.042.005.041.005.042.005.041.006.042.007.041.007.041.008.041.008.04.009.041.009.04.01.04.01.04.01.039.011.04.012.039.012.039.013.039.013.039.013.038.014.039.014.038.015.037.016.038.015.037.016.037.017.037.017.037.018.036.018.037.018.036.019.035.019.036.02.035.02.035.02.034.021.035.021.034.022.034.022.033.022.033.023.033.023.033.024.032.024.033.024.031.025.032.025.031.026.031.026.03.026.031.026.03.027.029.027.03.028.029.028.028.028.028.029.028.029.028.029.027.03.027.03.027.03.026.031.026.03.025.032.025.031.025.032.024.032.024.032.024.033.023.033.023.033.023.034.022.034.021.034.022.034.02.035.021.035.02.035.019.035.02.036.018.036.019.036.018.036.017.037.017.037.017.037.016.037.016.038.015.038.015.038.014.038.014.039.014.038.013.039.012.039.012.04.012.039.011.04.011.04.01.04.01.04.009.04.008.041.009.041.007.041.007.041.007.041.006.041.006.042.005.042.004.042.004.042.004.042.003.042.002.043.002.042.002.043.001.043v.086l-.001.043-.002.042-.002.043-.002.042-.003.043-.004.042-.004.042-.004.042-.005.041-.006.042-.006.041-.007.042-.007.041-.007.041-.009.041-.008.04-.009.041-.01.04-.01.04-.011.04-.011.039-.012.04-.012.039-.012.039-.013.039-.014.039-.014.038-.014.039-.015.038-.015.037-.016.038-.016.037-.017.037-.017.037-.017.037-.018.036-.019.037-.018.036-.02.035-.019.036-.02.035-.021.035-.02.034-.022.035-.021.034-.022.034-.023.033-.023.033-.023.033-.024.033-.024.032-.024.033-.025.031-.025.032-.025.031-.026.031-.026.03-.027.031-.027.03-.027.029-.028.03-.028.029-.028.028-.028.028-.029.028-.03.028-.029.027-.03.027-.031.027-.03.026-.031.026-.031.025-.032.025-.031.025-.033.024-.032.024-.033.024-.033.023-.033.023-.033.023-.034.022-.034.021-.035.022-.034.02L3.87.05l-.035.02-.036.02-.035.019-.036.019-.037.018-.036.018-.037.017-.037.017-.037.017-.037.016-.038.016-.037.015-.038.015-.039.014-.038.014-.039.014-.039.013L3.2.344l-.039.012-.04.012-.039.011-.04.011-.04.01-.04.01-.041.009-.04.008-.041.009-.041.007-.041.007-.042.007-.041.006-.042.006-.041.005-.042.004-.042.005-.042.003-.043.003-.042.002-.043.002-.042.002-.043.001h-.086L2.124.495 2.081.493 2.039.491 1.996.489 1.954.486 1.912.483 1.87.478 1.828.474 1.786.469 1.744.463 1.703.457 1.662.45 1.621.443 1.58.436 1.539.427 1.498.419 1.458.41 1.418.4l-.04-.01-.04-.011-.04-.011-.039-.012-.04-.012L1.18.332 1.141.319 1.103.305 1.064.291 1.026.277.988.262.95.247.912.231.875.215.838.198.801.181.764.164.728.146.692.128.656.109.62.09.585.07.55.05.515.029.48.009.446-.013.412-.034.378-.056.344-.079.311-.102.278-.125.245-.149.213-.173.181-.197.149-.222.118-.247.086-.272l-.03-.026-.031-.026-.03-.027-.03-.027-.03-.027-.029-.028-.029-.028-.029-.028-.028-.028-.028-.029-.028-.03-.027-.029-.027-.03-.026-.031-.026-.03-.026-.031-.026-.031-.025-.032-.025-.031-.024-.033-.024-.032-.024-.033-.023-.033-.023-.033-.022-.033-.022-.034-.022-.034-.021-.035-.021-.034-.02-.035-.02-.035-.02-.036-.019-.035-.019-.036-.018-.037-.018-.036-.018-.037-.017-.037-.017-.037-.016-.037-.015-.038-.016-.037-.015-.038-.014-.039-.014-.038-.013-.039-.013-.039-.013-.039-.012-.039-.012-.04-.011-.039-.01-.04-.01-.04-.01-.04-.009-.041-.009-.04-.008-.041-.008-.041-.007-.041-.007-.042-.006-.041-.005-.042-.005-.041-.005-.042-.004-.042-.004-.042-.003-.043-.002-.042-.002-.043-.001-.042-.001-.043v-.086l.001-.043.001-.043.002-.042.002-.043.003-.042.004-.042.004-.042.005-.042.005-.042.005-.042.006-.041.007-.041.007-.041.008-.041.008-.041.009-.041.009-.04.01-.04.01-.04.01-.04.011-.04.012-.039.012-.04.013-.039.013-.039.013-.038.014-.039.014-.038.015-.038.016-.038.015-.038.016-.037.017-.037.017-.037.018-.037.018-.036.018-.036.019-.036.019-.036.02-.035.02-.035.02-.035.021-.035.021-.034.022-.034.022-.034.022-.034.023-.033.023-.033.024-.033.024-.032.024-.032.025-.032.025-.031.026-.032.026-.03.026-.031.026-.03.027-.03.027-.03.028-.029.028-.029.028-.029.029-.028.029-.028.029-.028.03-.027.03-.027.03-.026.031-.026.03-.026.032-.026.031-.025.032-.025.032-.024.032-.024.033-.024.033-.023.033-.023.034-.022.034-.022.034-.022.034-.021.035-.021.035-.02.035-.02.035-.02.036-.019.036-.019.036-.018.036-.018.037-.018.037-.017.037-.017.037-.016.038-.015.038-.016.038-.015.038-.014.039-.014.038-.013.039-.013.039-.013.04-.012.039-.012.04-.011.04-.01.04-.01.04-.01.04-.009.041-.009.041-.008.041-.008.041-.007.041-.007.041-.006.042-.005.042-.005.042-.005.042-.004.042-.004.042-.003.043-.002.042-.002.043-.001.043-.001h.086Zm-.072 1.087-.029.001h-.029l-.029.002-.028.001-.029.002-.028.003-.028.003-.028.003-.028.003-.028.004-.028.004-.028.004-.027.005-.028.005-.027.006-.027.006-.027.006-.027.006-.027.007-.027.007-.026.008-.027.007-.026.008-.026.009-.027.009-.026.009-.025.009-.026.01-.026.01-.025.01-.025.011-.026.01-.025.012-.025.011-.024.012-.025.012-.024.012-.025.013-.024.013-.024.013-.023.014-.024.014-.024.014-.023.014L1-4.752l-.023.015-.023.015-.022.016-.023.015-.022.017-.022.016-.022.016-.021.017-.022.017-.021.018-.021.017-.021.018-.02.018-.021.018-.02.019-.02.019-.019.019-.02.019-.019.02-.019.019-.019.02-.019.02-.018.021-.018.02-.018.021-.017.021-.018.021-.017.022-.017.021-.016.022-.016.022-.017.022-.015.023-.016.022-.015.023-.015.023-.015.023-.014.024-.014.023-.014.024-.014.023-.013.024-.013.024-.013.025-.012.024-.012.025-.012.025-.011.024-.012.025-.01.026-.011.025-.01.025-.01.026-.01.026-.009.026-.009.026-.009.026-.009.026-.008.026-.007.027-.008.026-.007.027-.007.027-.006.027-.006.027-.006.027-.006.027-.005.028-.005.027-.004.028-.004.028-.004.028-.003.028-.004.028-.002.028-.003.028-.002.029-.001.028-.002.029v.029l-.001.029v.058l.001.029v.028l.002.029.001.029.002.028.003.028.002.029.004.028.003.028.004.028.004.027.004.028.005.028.005.027.006.027.006.028.006.027.006.027.007.026.007.027.008.027.007.026.008.027.009.026.009.026.009.026.009.026.01.026.01.025.01.026.011.025.01.025.012.025.011.025.012.025.012.024.012.025.013.024.013.024.013.024.014.024.014.023.014.024.014.023.015.023.015.023.015.023.016.023.015.022.017.022.016.022.016.022.017.022.017.021.018.021.017.021.018.021.018.021.018.02.019.02.019.02.019.02.019.019.02.02.019.019.02.018.02.019.021.018.02.018.021.018.021.018.021.017.022.017.021.017.022.017.022.016.022.016.023.016.022.015.023.015L1-.949l.023.015.023.015.024.014.024.014.023.013.024.013.024.013.025.013.024.012.025.013.024.011.025.012.025.011.026.011.025.011.025.01.026.01.026.009.025.01.026.009.027.009.026.008.026.008.027.008.026.007.027.008.027.006.027.007.027.006.027.006.027.005.028.005.027.005.028.005.028.004.028.003.028.004.028.003.028.003.028.002.029.002.028.002.029.001.029.001h.029l.029.001.029-.001h.029l.028-.001.029-.001.029-.002.028-.002L2.41-.6l.029-.003.028-.003.028-.004.028-.003.027-.004.028-.005.028-.005.027-.005.027-.005.027-.006.028-.006.027-.007.026-.006.027-.008.027-.007.026-.008.027-.008.026-.008.026-.009.026-.009.026-.01.025-.009.026-.01.026-.01.025-.011.025-.011.025-.011.025-.012.025-.011.024-.013.025-.012.024-.013.024-.013.024-.013.024-.013.023-.014.024-.014.023-.015.023-.015.023-.015.023-.015.023-.015.022-.016.022-.016.022-.016.022-.017.022-.017.021-.017.021-.017.021-.018.021-.018.021-.018.02-.018.02-.019.02-.018.02-.019.019-.02.02-.019.019-.02.018-.02.019-.02.018-.02.018-.021.018-.021.018-.021.017-.021.017-.021.017-.022.017-.022.016-.022.016-.022.016-.022.015-.023.015-.023.015-.023.015-.023.015-.023.014-.024.013-.023.014-.024.013-.024.013-.024.013-.024.012-.025.012-.024.012-.025.012-.025.011-.025.011-.025.011-.025.01-.026.01-.025.009-.026.01-.026.009-.026.009-.026.008-.026.008-.027.008-.026.007-.027.007-.027.007-.026.007-.027.006-.027.006-.028.005-.027.005-.027.005-.028.005-.028.004-.027.003-.028.004-.028.003-.028.003-.029.002-.028.002-.028.002-.029.001-.029.001-.028v-.029l.001-.029-.001-.029v-.029l-.001-.029-.001-.029-.002-.028-.002-.029-.002-.028-.003-.028-.003-.028-.004-.028-.003-.028-.004-.028-.005-.028-.005-.027-.005-.027-.005-.028-.006-.027-.006-.027-.007-.027-.007-.027-.007-.027-.007-.026-.008-.027-.008-.026-.008-.026-.009-.026-.009-.026-.01-.026-.009-.026-.01-.026-.01-.025-.011-.025-.011-.026-.011-.025-.012-.024-.012-.025-.012-.025-.012-.024-.013-.025-.013-.024-.013-.024-.014-.023-.013-.024-.014-.023-.015-.024-.015-.023-.015-.023-.015-.023-.015-.022-.016-.023-.016-.022-.016-.022-.017-.022-.017-.021-.017-.022-.017-.021-.018-.021-.018-.021-.018-.02-.018-.021-.019-.02-.018-.02-.019-.019-.02-.02-.019-.019-.02-.019-.02-.019-.02-.019-.02-.018-.021-.018-.021-.018-.021-.017-.021-.018-.021-.017-.022-.017-.022-.016-.022-.016-.022-.016-.022-.016-.023-.016-.023-.015-.023-.015-.023-.015-.023-.014-.024-.014-.023-.014-.024-.014-.024-.013-.024-.013-.024-.013-.025-.012-.024-.012-.025-.012-.025-.011-.025-.012-.025-.01-.025-.011-.026-.01-.025-.01-.026-.01-.026-.009-.026-.009-.026-.009-.026-.009-.027-.008-.026-.007-.027-.008-.027-.007-.026-.007-.027-.006-.028-.006-.027-.006-.027-.006-.027-.005-.028-.005-.028-.004-.027-.004-.028-.004-.028-.003-.028-.003L2.41-5.1l-.028-.003-.028-.002-.029-.001-.029-.002h-.028l-.029-.001h-.058Z"/>
    </g>
  </g>
</svg>