<?xml version="1.0" encoding="UTF-8" standalone="no"?>
<!DOCTYPE svg PUBLIC "-//W3C//DTD SVG 1.1//EN"
 "http://www.w3.org/Graphics/SVG/1.1/DTD/svg11.dtd">
<!-- Generated by graphviz version 2.40.1 (20161225.0304)
 -->
<!-- Title: %3 Pages: 1 -->
<svg width="423pt" height="142pt"
 viewBox="0.00 0.00 422.50 142.00" xmlns="http://www.w3.org/2000/svg" xmlns:xlink="http://www.w3.org/1999/xlink">
<title>Cause-and-Effect-Patterns // Ursache-Wirkungs-Muster</title>
<g id="graph0" class="graph" transform="scale(1 1) rotate(0) translate(4 138)">
<title>%3</title>
<g id="a_graph0"><a xlink:title=" " target="details">
<polygon fill="#ffffff" stroke="transparent" points="-4,4 -4,-138 418.5,-138 418.5,4 -4,4"/>
</a>
</g>
<!-- CEP&#45;1 -->
<g id="node1" class="node">
<title>CEP&#45;1</title>
<g id="a_node1"><a xlink:href="https://wissenswandler.atlassian.net/browse/CEP-1" xlink:title=" " target="details">
<path fill="#ffffff" stroke="#000000" d="M99,-49C99,-49 12,-49 12,-49 6,-49 0,-43 0,-37 0,-37 0,-12 0,-12 0,-6 6,0 12,0 12,0 99,0 99,0 105,0 111,-6 111,-12 111,-12 111,-37 111,-37 111,-43 105,-49 99,-49"/>
<g id="a_node1_0"><a xlink:href="https://wissenswandler.atlassian.net/issues/?jql=type=%22Ding%22+ORDER+BY+summary" xlink:title=" " target="details">
<image xlink:href="https://wissenswandler.atlassian.net/secure/viewavatar?size=small&amp;avatarId=10533&amp;avatarType=issuetype" width="24px" height="24px" preserveAspectRatio="xMinYMin meet" x="10.5" y="-42.5"/>
</a>
</g>
<text text-anchor="start" x="49.5" y="-27.8" font-family="Helvetica,sans-Serif" font-weight="bold" font-size="14.00" fill="#000000">Cause</text>
<g id="a_node1_1"><a xlink:href="https://wissenswandler.atlassian.net/issues/?jql=type=%22Ding%22+ORDER+BY+summary" xlink:title=" " target="details">
<text text-anchor="start" x="10.5" y="-9.1" font-family="Helvetica,sans-Serif" font-style="italic" font-size="8.00" fill="#000000">Ding</text>
</a>
</g>
<text text-anchor="start" x="38.5" y="-8.1" font-family="Helvetica,sans-Serif" font-size="8.00" fill="#000000">in Betrieb</text>
<text text-anchor="start" x="76.5" y="-8.1" font-family="Helvetica,sans-Serif" font-size="8.00" fill="#000000">CEP&#45;1</text>
</a>
</g>
</g>
<!-- CEP&#45;2 -->
<g id="node2" class="node">
<title>CEP&#45;2</title>
<g id="a_node2"><a xlink:href="https://wissenswandler.atlassian.net/browse/CEP-2" xlink:title=" " target="details">
<path fill="#ffffff" stroke="#000000" d="M99,-134C99,-134 12,-134 12,-134 6,-134 0,-128 0,-122 0,-122 0,-97 0,-97 0,-91 6,-85 12,-85 12,-85 99,-85 99,-85 105,-85 111,-91 111,-97 111,-97 111,-122 111,-122 111,-128 105,-134 99,-134"/>
<g id="a_node2_2"><a xlink:href="https://wissenswandler.atlassian.net/issues/?jql=type=%22Ding%22+ORDER+BY+summary" xlink:title=" " target="details">
<image xlink:href="https://wissenswandler.atlassian.net/secure/viewavatar?size=small&amp;avatarId=10533&amp;avatarType=issuetype" width="24px" height="24px" preserveAspectRatio="xMinYMin meet" x="10.5" y="-127.5"/>
</a>
</g>
<text text-anchor="start" x="51" y="-112.8" font-family="Helvetica,sans-Serif" font-weight="bold" font-size="14.00" fill="#000000">Effect</text>
<g id="a_node2_3"><a xlink:href="https://wissenswandler.atlassian.net/issues/?jql=type=%22Ding%22+ORDER+BY+summary" xlink:title=" " target="details">
<text text-anchor="start" x="10.5" y="-94.1" font-family="Helvetica,sans-Serif" font-style="italic" font-size="8.00" fill="#000000">Ding</text>
</a>
</g>
<text text-anchor="start" x="38.5" y="-93.1" font-family="Helvetica,sans-Serif" font-size="8.00" fill="#000000">in Betrieb</text>
<text text-anchor="start" x="76.5" y="-93.1" font-family="Helvetica,sans-Serif" font-size="8.00" fill="#000000">CEP&#45;2</text>
</a>
</g>
</g>
<!-- CEP&#45;2&#45;&gt;CEP&#45;1 -->
<g id="edge1" class="edge">
<title>CEP&#45;2&#45;&gt;CEP&#45;1</title>
<g id="a_edge1"><a xlink:href="https://wissenswandler.atlassian.net/issues/?jql=key+in+(CEP-2,CEP-1)" xlink:title="Cause → &#160;→ Effect → &#160;⮌" target="details">
<path fill="none" stroke="#228b22" stroke-width="2" d="M55.5,-74.7185C55.5,-66.0997 55.5,-57.0428 55.5,-49.0303"/>
<polygon fill="#228b22" stroke="#228b22" stroke-width="2" points="52.0001,-74.9144 55.5,-84.9145 59.0001,-74.9145 52.0001,-74.9144"/>
</a>
</g>
</g>
<!-- CEP&#45;3 -->
<g id="node3" class="node">
<title>CEP&#45;3</title>
<g id="a_node3"><a xlink:href="https://wissenswandler.atlassian.net/browse/CEP-3" xlink:title="predecessor // Vorgänger" target="details">
<path fill="#ffffff" stroke="#000000" d="M231.5,-49C231.5,-49 143.5,-49 143.5,-49 137.5,-49 131.5,-43 131.5,-37 131.5,-37 131.5,-12 131.5,-12 131.5,-6 137.5,0 143.5,0 143.5,0 231.5,0 231.5,0 237.5,0 243.5,-6 243.5,-12 243.5,-12 243.5,-37 243.5,-37 243.5,-43 237.5,-49 231.5,-49"/>
<g id="a_node3_4"><a xlink:href="https://wissenswandler.atlassian.net/issues/?jql=type=%22Ding%22+ORDER+BY+summary" xlink:title="predecessor // Vorgänger" target="details">
<image xlink:href="https://wissenswandler.atlassian.net/secure/viewavatar?size=small&amp;avatarId=10533&amp;avatarType=issuetype" width="24px" height="24px" preserveAspectRatio="xMinYMin meet" x="141.5" y="-42.5"/>
</a>
</g>
<text text-anchor="start" x="169.5" y="-27.8" font-family="Helvetica,sans-Serif" font-weight="bold" font-size="14.00" fill="#000000">Precursor</text>
<g id="a_node3_5"><a xlink:href="https://wissenswandler.atlassian.net/issues/?jql=type=%22Ding%22+ORDER+BY+summary" xlink:title="predecessor // Vorgänger" target="details">
<text text-anchor="start" x="141.5" y="-9.1" font-family="Helvetica,sans-Serif" font-style="italic" font-size="8.00" fill="#000000">Ding</text>
</a>
</g>
<text text-anchor="start" x="169.5" y="-8.1" font-family="Helvetica,sans-Serif" font-size="8.00" fill="#000000">in Betrieb</text>
<text text-anchor="start" x="208.5" y="-8.1" font-family="Helvetica,sans-Serif" font-size="8.00" fill="#000000">CEP&#45;3</text>
</a>
</g>
</g>
<!-- CEP&#45;4 -->
<g id="node4" class="node">
<title>CEP&#45;4</title>
<g id="a_node4"><a xlink:href="https://wissenswandler.atlassian.net/browse/CEP-4" xlink:title=" " target="details">
<path fill="#ffffff" stroke="#000000" d="M234,-134C234,-134 141,-134 141,-134 135,-134 129,-128 129,-122 129,-122 129,-97 129,-97 129,-91 135,-85 141,-85 141,-85 234,-85 234,-85 240,-85 246,-91 246,-97 246,-97 246,-122 246,-122 246,-128 240,-134 234,-134"/>
<g id="a_node4_6"><a xlink:href="https://wissenswandler.atlassian.net/issues/?jql=type=%22Ding%22+ORDER+BY+summary" xlink:title=" " target="details">
<image xlink:href="https://wissenswandler.atlassian.net/secure/viewavatar?size=small&amp;avatarId=10533&amp;avatarType=issuetype" width="24px" height="24px" preserveAspectRatio="xMinYMin meet" x="139.5" y="-127.5"/>
</a>
</g>
<text text-anchor="start" x="167.5" y="-112.8" font-family="Helvetica,sans-Serif" font-weight="bold" font-size="14.00" fill="#000000">Successor</text>
<g id="a_node4_7"><a xlink:href="https://wissenswandler.atlassian.net/issues/?jql=type=%22Ding%22+ORDER+BY+summary" xlink:title=" " target="details">
<text text-anchor="start" x="139.5" y="-94.1" font-family="Helvetica,sans-Serif" font-style="italic" font-size="8.00" fill="#000000">Ding</text>
</a>
</g>
<text text-anchor="start" x="171" y="-93.1" font-family="Helvetica,sans-Serif" font-size="8.00" fill="#000000">in Betrieb</text>
<text text-anchor="start" x="211.5" y="-93.1" font-family="Helvetica,sans-Serif" font-size="8.00" fill="#000000">CEP&#45;4</text>
</a>
</g>
</g>
<!-- CEP&#45;4&#45;&gt;CEP&#45;3 -->
<g id="edge2" class="edge">
<title>CEP&#45;4&#45;&gt;CEP&#45;3</title>
<g id="a_edge2"><a xlink:href="https://wissenswandler.atlassian.net/issues/?jql=key+in+(CEP-4,CEP-3)" xlink:title="Precursor → ist Vorgänger von &#160;→ Successor → folgt auf &#160;⮌" target="details">
<path fill="none" stroke="#228b22" stroke-width="2" d="M187.5,-74.7185C187.5,-69.6011 187.5,-64.3292 187.5,-59.2132"/>
<polygon fill="#228b22" stroke="#228b22" stroke-width="2" points="187.5,-84.9145 183.0001,-74.9144 187,-79.9145 187.0001,-74.9145 187.5001,-74.9145 188.0001,-74.9145 187.5,-84.9145"/>
<polygon fill="#228b22" stroke="#228b22" stroke-width="2" points="187.5001,-59.0303 192,-49.0302 187.5,-54.0303 187.5,-49.0303 187.5,-49.0303 187.5,-49.0303 187.5,-54.0303 183,-49.0303 187.5001,-59.0303 187.5001,-59.0303"/>
</a>
</g>
</g>
<!-- CEP&#45;5 -->
<g id="node5" class="node">
<title>CEP&#45;5</title>
<g id="a_node5"><a xlink:href="https://wissenswandler.atlassian.net/browse/CEP-5" xlink:title=" " target="details">
<path fill="#ffffff" stroke="#000000" d="M383,-49C383,-49 296,-49 296,-49 290,-49 284,-43 284,-37 284,-37 284,-12 284,-12 284,-6 290,0 296,0 296,0 383,0 383,0 389,0 395,-6 395,-12 395,-12 395,-37 395,-37 395,-43 389,-49 383,-49"/>
<g id="a_node5_8"><a xlink:href="https://wissenswandler.atlassian.net/issues/?jql=type=%22Ding%22+ORDER+BY+summary" xlink:title=" " target="details">
<image xlink:href="https://wissenswandler.atlassian.net/secure/viewavatar?size=small&amp;avatarId=10533&amp;avatarType=issuetype" width="24px" height="24px" preserveAspectRatio="xMinYMin meet" x="294.5" y="-42.5"/>
</a>
</g>
<text text-anchor="start" x="324" y="-27.8" font-family="Helvetica,sans-Serif" font-weight="bold" font-size="14.00" fill="#000000">Blueprint</text>
<g id="a_node5_9"><a xlink:href="https://wissenswandler.atlassian.net/issues/?jql=type=%22Ding%22+ORDER+BY+summary" xlink:title=" " target="details">
<text text-anchor="start" x="294.5" y="-9.1" font-family="Helvetica,sans-Serif" font-style="italic" font-size="8.00" fill="#000000">Ding</text>
</a>
</g>
<text text-anchor="start" x="322.5" y="-8.1" font-family="Helvetica,sans-Serif" font-size="8.00" fill="#000000">in Betrieb</text>
<text text-anchor="start" x="360.5" y="-8.1" font-family="Helvetica,sans-Serif" font-size="8.00" fill="#000000">CEP&#45;5</text>
</a>
</g>
</g>
<!-- CEP&#45;6 -->
<g id="node6" class="node">
<title>CEP&#45;6</title>
<g id="a_node6"><a xlink:href="https://wissenswandler.atlassian.net/browse/CEP-6" xlink:title=" " target="details">
<path fill="#ffffff" stroke="#000000" d="M402.5,-134C402.5,-134 276.5,-134 276.5,-134 270.5,-134 264.5,-128 264.5,-122 264.5,-122 264.5,-97 264.5,-97 264.5,-91 270.5,-85 276.5,-85 276.5,-85 402.5,-85 402.5,-85 408.5,-85 414.5,-91 414.5,-97 414.5,-97 414.5,-122 414.5,-122 414.5,-128 408.5,-134 402.5,-134"/>
<g id="a_node6_10"><a xlink:href="https://wissenswandler.atlassian.net/issues/?jql=type=%22Ding%22+ORDER+BY+summary" xlink:title=" " target="details">
<image xlink:href="https://wissenswandler.atlassian.net/secure/viewavatar?size=small&amp;avatarId=10533&amp;avatarType=issuetype" width="24px" height="24px" preserveAspectRatio="xMinYMin meet" x="274.5" y="-127.5"/>
</a>
</g>
<text text-anchor="start" x="302.5" y="-112.8" font-family="Helvetica,sans-Serif" font-weight="bold" font-size="14.00" fill="#000000">Implementation</text>
<g id="a_node6_11"><a xlink:href="https://wissenswandler.atlassian.net/issues/?jql=type=%22Ding%22+ORDER+BY+summary" xlink:title=" " target="details">
<text text-anchor="start" x="274.5" y="-94.1" font-family="Helvetica,sans-Serif" font-style="italic" font-size="8.00" fill="#000000">Ding</text>
</a>
</g>
<text text-anchor="start" x="326.5" y="-93.1" font-family="Helvetica,sans-Serif" font-size="8.00" fill="#000000">in Betrieb</text>
<text text-anchor="start" x="379.5" y="-93.1" font-family="Helvetica,sans-Serif" font-size="8.00" fill="#000000">CEP&#45;6</text>
</a>
</g>
</g>
<!-- CEP&#45;6&#45;&gt;CEP&#45;5 -->
<g id="edge3" class="edge">
<title>CEP&#45;6&#45;&gt;CEP&#45;5</title>
<g id="a_edge3"><a xlink:href="https://wissenswandler.atlassian.net/issues/?jql=key+in+(CEP-6,CEP-5)" xlink:title="Blueprint → ist Vorlage für &#160;→ Implementation → realisiert &#160;⮌" target="details">
<path fill="none" stroke="#0000ff" stroke-dasharray="5,2" d="M339.5,-74.7185C339.5,-69.6011 339.5,-64.3292 339.5,-59.2132"/>
<polygon fill="#0000ff" stroke="#0000ff" points="336.0001,-74.9144 339.5,-84.9145 343.0001,-74.9145 336.0001,-74.9144"/>
<polygon fill="none" stroke="#0000ff" points="343.0001,-59.0302 339.5,-49.0303 336.0001,-59.0303 343.0001,-59.0302"/>
</a>
</g>
</g>
</g>
</svg>
