<?xml version="1.0" encoding="UTF-8" standalone="no"?>
<!DOCTYPE svg PUBLIC "-//W3C//DTD SVG 1.1//EN"
 "http://www.w3.org/Graphics/SVG/1.1/DTD/svg11.dtd">
<!-- Generated by graphviz version 2.40.1 (20161225.0304)
 -->
<!-- Title: %3 Pages: 1 -->
<svg width="289pt" height="116pt"
 viewBox="0.00 0.00 289.00 116.00" xmlns="http://www.w3.org/2000/svg" xmlns:xlink="http://www.w3.org/1999/xlink">
<title>Cause-and-Effect-Patterns // Ursache-Wirkungs-Muster</title>
<g id="graph0" class="graph" transform="scale(1 1) rotate(0) translate(4 112)">
<title>%3</title>
<g id="a_graph0"><a xlink:title=" " target="details">
<polygon fill="#ffffff" stroke="transparent" points="-4,4 -4,-112 285,-112 285,4 -4,4"/>
</a>
</g>
<!-- CEP&#45;1 -->
<g id="node1" class="node">
<title>CEP&#45;1</title>
<g id="a_node1"><a xlink:href="https://wissenswandler.atlassian.net/browse/CEP-1" xlink:title=" " target="details">
<path fill="#ffffff" stroke="#000000" d="M44,-36C44,-36 12,-36 12,-36 6,-36 0,-30 0,-24 0,-24 0,-12 0,-12 0,-6 6,0 12,0 12,0 44,0 44,0 50,0 56,-6 56,-12 56,-12 56,-24 56,-24 56,-30 50,-36 44,-36"/>
<text text-anchor="start" x="8" y="-14.3" font-family="Helvetica,sans-Serif" font-size="14.00" fill="#000000">Cause</text>
</a>
</g>
</g>
<!-- CEP&#45;2 -->
<g id="node2" class="node">
<title>CEP&#45;2</title>
<g id="a_node2"><a xlink:href="https://wissenswandler.atlassian.net/browse/CEP-2" xlink:title=" " target="details">
<path fill="#ffffff" stroke="#000000" d="M43,-108C43,-108 13,-108 13,-108 7,-108 1,-102 1,-96 1,-96 1,-84 1,-84 1,-78 7,-72 13,-72 13,-72 43,-72 43,-72 49,-72 55,-78 55,-84 55,-84 55,-96 55,-96 55,-102 49,-108 43,-108"/>
<text text-anchor="start" x="10.5" y="-86.3" font-family="Helvetica,sans-Serif" font-size="14.00" fill="#000000">Effect</text>
</a>
</g>
</g>
<!-- CEP&#45;2&#45;&gt;CEP&#45;1 -->
<g id="edge1" class="edge">
<title>CEP&#45;2&#45;&gt;CEP&#45;1</title>
<g id="a_edge1"><a xlink:href="https://wissenswandler.atlassian.net/issues/?jql=key+in+(CEP-2,CEP-1)" xlink:title="Cause → &#160;→ Effect → &#160;⮌" target="details">
<path fill="none" stroke="#228b22" stroke-width="2" d="M28,-61.5726C28,-53.1084 28,-44.0593 28,-36.4133"/>
<polygon fill="#228b22" stroke="#228b22" stroke-width="2" points="24.5001,-61.8313 28,-71.8314 31.5001,-61.8314 24.5001,-61.8313"/>
</a>
</g>
</g>
<!-- CEP&#45;3 -->
<g id="node3" class="node">
<title>CEP&#45;3</title>
<g id="a_node3"><a xlink:href="https://wissenswandler.atlassian.net/browse/CEP-3" xlink:title="predecessor // Vorgänger" target="details">
<path fill="#ffffff" stroke="#000000" d="M138.5,-36C138.5,-36 87.5,-36 87.5,-36 81.5,-36 75.5,-30 75.5,-24 75.5,-24 75.5,-12 75.5,-12 75.5,-6 81.5,0 87.5,0 87.5,0 138.5,0 138.5,0 144.5,0 150.5,-6 150.5,-12 150.5,-12 150.5,-24 150.5,-24 150.5,-30 144.5,-36 138.5,-36"/>
<text text-anchor="start" x="83.5" y="-14.3" font-family="Helvetica,sans-Serif" font-size="14.00" fill="#000000">Precursor</text>
</a>
</g>
</g>
<!-- CEP&#45;4 -->
<g id="node4" class="node">
<title>CEP&#45;4</title>
<g id="a_node4"><a xlink:href="https://wissenswandler.atlassian.net/browse/CEP-4" xlink:title=" " target="details">
<path fill="#ffffff" stroke="#000000" d="M141,-108C141,-108 85,-108 85,-108 79,-108 73,-102 73,-96 73,-96 73,-84 73,-84 73,-78 79,-72 85,-72 85,-72 141,-72 141,-72 147,-72 153,-78 153,-84 153,-84 153,-96 153,-96 153,-102 147,-108 141,-108"/>
<text text-anchor="start" x="81" y="-86.3" font-family="Helvetica,sans-Serif" font-size="14.00" fill="#000000">Successor</text>
</a>
</g>
</g>
<!-- CEP&#45;4&#45;&gt;CEP&#45;3 -->
<g id="edge2" class="edge">
<title>CEP&#45;4&#45;&gt;CEP&#45;3</title>
<g id="a_edge2"><a xlink:href="https://wissenswandler.atlassian.net/issues/?jql=key+in+(CEP-4,CEP-3)" xlink:title="Precursor → ist Vorgänger von &#160;→ Successor → folgt auf &#160;⮌" target="details">
<path fill="none" stroke="#228b22" stroke-width="2" d="M113,-61.5726C113,-56.6792 113,-51.5904 113,-46.6901"/>
<polygon fill="#228b22" stroke="#228b22" stroke-width="2" points="113,-71.8314 108.5001,-61.8313 112.5,-66.8314 112.5001,-61.8314 113.0001,-61.8314 113.5001,-61.8314 113,-71.8314"/>
<polygon fill="#228b22" stroke="#228b22" stroke-width="2" points="113.0001,-46.4133 117.5,-36.4132 113,-41.4133 113,-36.4133 113,-36.4133 113,-36.4133 113,-41.4133 108.5,-36.4133 113.0001,-46.4133 113.0001,-46.4133"/>
</a>
</g>
</g>
<!-- CEP&#45;5 -->
<g id="node5" class="node">
<title>CEP&#45;5</title>
<g id="a_node5"><a xlink:href="https://wissenswandler.atlassian.net/browse/CEP-5" xlink:title=" " target="details">
<path fill="#ffffff" stroke="#000000" d="M249,-36C249,-36 203,-36 203,-36 197,-36 191,-30 191,-24 191,-24 191,-12 191,-12 191,-6 197,0 203,0 203,0 249,0 249,0 255,0 261,-6 261,-12 261,-12 261,-24 261,-24 261,-30 255,-36 249,-36"/>
<text text-anchor="start" x="199" y="-14.3" font-family="Helvetica,sans-Serif" font-size="14.00" fill="#000000">Blueprint</text>
</a>
</g>
</g>
<!-- CEP&#45;6 -->
<g id="node6" class="node">
<title>CEP&#45;6</title>
<g id="a_node6"><a xlink:href="https://wissenswandler.atlassian.net/browse/CEP-6" xlink:title=" " target="details">
<path fill="#ffffff" stroke="#000000" d="M269,-108C269,-108 183,-108 183,-108 177,-108 171,-102 171,-96 171,-96 171,-84 171,-84 171,-78 177,-72 183,-72 183,-72 269,-72 269,-72 275,-72 281,-78 281,-84 281,-84 281,-96 281,-96 281,-102 275,-108 269,-108"/>
<text text-anchor="start" x="179" y="-86.3" font-family="Helvetica,sans-Serif" font-size="14.00" fill="#000000">Implementation</text>
</a>
</g>
</g>
<!-- CEP&#45;6&#45;&gt;CEP&#45;5 -->
<g id="edge3" class="edge">
<title>CEP&#45;6&#45;&gt;CEP&#45;5</title>
<g id="a_edge3"><a xlink:href="https://wissenswandler.atlassian.net/issues/?jql=key+in+(CEP-6,CEP-5)" xlink:title="Blueprint → ist Vorlage für &#160;→ Implementation → realisiert &#160;⮌" target="details">
<path fill="none" stroke="#0000ff" stroke-dasharray="5,2" d="M226,-61.5726C226,-56.6792 226,-51.5904 226,-46.6901"/>
<polygon fill="#0000ff" stroke="#0000ff" points="222.5001,-61.8313 226,-71.8314 229.5001,-61.8314 222.5001,-61.8313"/>
<polygon fill="none" stroke="#0000ff" points="229.5001,-46.4132 226,-36.4133 222.5001,-46.4133 229.5001,-46.4132"/>
</a>
</g>
</g>
</g>
</svg>
