<?xml version="1.0" encoding="UTF-8" standalone="no"?>
<?xml-stylesheet type="text/css" href="../lib/graph.css"?>
<!DOCTYPE svg PUBLIC "-//W3C//DTD SVG 1.1//EN"
 "http://www.w3.org/Graphics/SVG/1.1/DTD/svg11.dtd">
<!-- Generated by graphviz version 2.40.1 (20161225.0304)
 -->
<!-- Title: %3 Pages: 1 -->
<svg width="100%" 
 viewBox="0.00 0.00 661.00 339.00" xmlns="http://www.w3.org/2000/svg" xmlns:xlink="http://www.w3.org/1999/xlink">
<script xlink:href="../lib/graph.js" type="text/ecmascript" />
<title>Cause and Effect Patterns // Muster für Ursache und Wirkung</title>
<g id="graph0" class="graph" transform="scale(1 1) rotate(0) translate(4 335)">
<title>%3</title>
<g id="a_graph0"><a xlink:title=" " target="details">
<polygon fill="#ffffff" stroke="transparent" points="-4,4 -4,-335 657,-335 657,4 -4,4"/>
</a>
</g>
<!-- CEP&#45;1 -->
<g id="CEP&#45;1" class="node">
<title>CEP&#45;1</title>
<g id="a_CEP&#45;1"><a xlink:href="https://wissenswandler.atlassian.net/browse/CEP-1" xlink:title=" " target="details">
<path fill="#ffffff" stroke="#000000" d="M103,-55C103,-55 12,-55 12,-55 6,-55 0,-49 0,-43 0,-43 0,-12 0,-12 0,-6 6,0 12,0 12,0 103,0 103,0 109,0 115,-6 115,-12 115,-12 115,-43 115,-43 115,-49 109,-55 103,-55"/>
<g id="a_CEP&#45;1_0"><a xlink:href="https://wissenswandler.atlassian.net/issues/?jql=type=%22Thing%22+ORDER+BY+summary" xlink:title=" " target="details">
<image xlink:href="../img/avatar--10533.png" width="24px" height="24px" preserveAspectRatio="xMinYMin meet" x="9.5" y="-45.5"/>
</a>
</g>
<text text-anchor="start" x="51.5" y="-30.8" font-family="Helvetica,sans-Serif" font-weight="bold" font-size="14.00" fill="#000000">Cause</text>
<g id="a_CEP&#45;1_1"><a xlink:href="https://wissenswandler.atlassian.net/issues/?jql=type=%22Thing%22+ORDER+BY+summary" xlink:title=" " target="details">
<text text-anchor="start" x="9.5" y="-12.1" font-family="Helvetica,sans-Serif" font-style="italic" font-size="8.00" fill="#000000">Thing</text>
</a>
</g>
<text text-anchor="start" x="37.5" y="-11.1" font-family="Helvetica,sans-Serif" font-size="8.00" fill="#000000">operational</text>
<text text-anchor="start" x="81.5" y="-11.1" font-family="Helvetica,sans-Serif" font-size="8.00" fill="#000000">CEP&#45;1</text>
</a>
</g>
</g>
<!-- CEP&#45;2 -->
<g id="CEP&#45;2" class="node">
<title>CEP&#45;2</title>
<g id="a_CEP&#45;2"><a xlink:href="https://wissenswandler.atlassian.net/browse/CEP-2" xlink:title=" " target="details">
<path fill="#ffffff" stroke="#000000" d="M103,-124C103,-124 12,-124 12,-124 6,-124 0,-118 0,-112 0,-112 0,-81 0,-81 0,-75 6,-69 12,-69 12,-69 103,-69 103,-69 109,-69 115,-75 115,-81 115,-81 115,-112 115,-112 115,-118 109,-124 103,-124"/>
<g id="a_CEP&#45;2_2"><a xlink:href="https://wissenswandler.atlassian.net/issues/?jql=type=%22Thing%22+ORDER+BY+summary" xlink:title=" " target="details">
<image xlink:href="../img/avatar--10533.png" width="24px" height="24px" preserveAspectRatio="xMinYMin meet" x="9.5" y="-114.5"/>
</a>
</g>
<text text-anchor="start" x="53" y="-99.8" font-family="Helvetica,sans-Serif" font-weight="bold" font-size="14.00" fill="#000000">Effect</text>
<g id="a_CEP&#45;2_3"><a xlink:href="https://wissenswandler.atlassian.net/issues/?jql=type=%22Thing%22+ORDER+BY+summary" xlink:title=" " target="details">
<text text-anchor="start" x="9.5" y="-81.1" font-family="Helvetica,sans-Serif" font-style="italic" font-size="8.00" fill="#000000">Thing</text>
</a>
</g>
<text text-anchor="start" x="37.5" y="-80.1" font-family="Helvetica,sans-Serif" font-size="8.00" fill="#000000">operational</text>
<text text-anchor="start" x="81.5" y="-80.1" font-family="Helvetica,sans-Serif" font-size="8.00" fill="#000000">CEP&#45;2</text>
</a>
</g>
</g>
<!-- CEP&#45;1&#45;&gt;CEP&#45;2 -->
<g id="CEP&#45;1___CEP&#45;2" class="edge">
<title>CEP&#45;1&#45;&gt;CEP&#45;2</title>
<g id="a_CEP&#45;1___CEP&#45;2"><a xlink:href="https://wissenswandler.atlassian.net/issues/?jql=key+in+(CEP-2,CEP-1)" xlink:title="Cause → &#160;→ Effect → &#160;⮌" target="details">
<path fill="none" stroke="#228b22" stroke-width="2" d="M57.5,-55.1674C57.5,-56.2921 57.5,-57.427 57.5,-58.567"/>
<polygon fill="#228b22" stroke="#228b22" stroke-width="2" points="54.0001,-58.8264 57.5,-68.8264 61.0001,-58.8265 54.0001,-58.8264"/>
</a>
</g>
</g>
<!-- CEP&#45;10 -->
<g id="CEP&#45;10" class="node">
<title>CEP&#45;10</title>
<g id="a_CEP&#45;10"><a xlink:href="https://wissenswandler.atlassian.net/browse/CEP-10" xlink:title=" " target="details">
<path fill="#ffffff" stroke="#000000" stroke-dasharray="5,2" d="M220,-55C220,-55 141,-55 141,-55 135,-55 129,-49 129,-43 129,-43 129,-12 129,-12 129,-6 135,0 141,0 141,0 220,0 220,0 226,0 232,-6 232,-12 232,-12 232,-43 232,-43 232,-49 226,-55 220,-55"/>
<g id="a_CEP&#45;10_4"><a xlink:href="https://wissenswandler.atlassian.net/issues/?jql=type=%22Thing%22+ORDER+BY+summary" xlink:title=" " target="details">
<image xlink:href="../img/avatar--10533.png" width="24px" height="24px" preserveAspectRatio="xMinYMin meet" x="138.5" y="-45.5"/>
</a>
</g>
<text text-anchor="start" x="191" y="-30.8" font-family="Helvetica,sans-Serif" font-weight="bold" font-size="14.00" fill="#000000">1</text>
<g id="a_CEP&#45;10_5"><a xlink:href="https://wissenswandler.atlassian.net/issues/?jql=type=%22Thing%22+ORDER+BY+summary" xlink:title=" " target="details">
<text text-anchor="start" x="138.5" y="-12.1" font-family="Helvetica,sans-Serif" font-style="italic" font-size="8.00" fill="#000000">Thing</text>
</a>
</g>
<text text-anchor="start" x="166.5" y="-11.1" font-family="Helvetica,sans-Serif" font-size="8.00" fill="#000000">retired</text>
<text text-anchor="start" x="194.5" y="-11.1" font-family="Helvetica,sans-Serif" font-size="8.00" fill="#000000">CEP&#45;10</text>
</a>
</g>
</g>
<!-- CEP&#45;11 -->
<g id="CEP&#45;11" class="node">
<title>CEP&#45;11</title>
<g id="a_CEP&#45;11"><a xlink:href="https://wissenswandler.atlassian.net/browse/CEP-11" xlink:title=" " target="details">
<path fill="#ffffff" stroke="#000000" stroke-dasharray="5,2" d="M220,-124C220,-124 141,-124 141,-124 135,-124 129,-118 129,-112 129,-112 129,-81 129,-81 129,-75 135,-69 141,-69 141,-69 220,-69 220,-69 226,-69 232,-75 232,-81 232,-81 232,-112 232,-112 232,-118 226,-124 220,-124"/>
<g id="a_CEP&#45;11_6"><a xlink:href="https://wissenswandler.atlassian.net/issues/?jql=type=%22Thing%22+ORDER+BY+summary" xlink:title=" " target="details">
<image xlink:href="../img/avatar--10533.png" width="24px" height="24px" preserveAspectRatio="xMinYMin meet" x="138.5" y="-114.5"/>
</a>
</g>
<text text-anchor="start" x="191" y="-99.8" font-family="Helvetica,sans-Serif" font-weight="bold" font-size="14.00" fill="#000000">2</text>
<g id="a_CEP&#45;11_7"><a xlink:href="https://wissenswandler.atlassian.net/issues/?jql=type=%22Thing%22+ORDER+BY+summary" xlink:title=" " target="details">
<text text-anchor="start" x="138.5" y="-81.1" font-family="Helvetica,sans-Serif" font-style="italic" font-size="8.00" fill="#000000">Thing</text>
</a>
</g>
<text text-anchor="start" x="166.5" y="-80.1" font-family="Helvetica,sans-Serif" font-size="8.00" fill="#000000">retired</text>
<text text-anchor="start" x="194.5" y="-80.1" font-family="Helvetica,sans-Serif" font-size="8.00" fill="#000000">CEP&#45;11</text>
</a>
</g>
</g>
<!-- CEP&#45;10&#45;&gt;CEP&#45;11 -->
<g id="CEP&#45;10___CEP&#45;11" class="edge">
<title>CEP&#45;10&#45;&gt;CEP&#45;11</title>
<g id="a_CEP&#45;10___CEP&#45;11"><a xlink:href="https://wissenswandler.atlassian.net/issues/?jql=key+in+(CEP-11,CEP-10)" xlink:title="1 → ist Vorgänger von &#160;→ 2 → folgt auf &#160;⮌" target="details">
<path fill="none" stroke="#000000" d="M180.5,-55.1674C180.5,-55.308 180.5,-55.4487 180.5,-55.5896"/>
<polygon fill="none" stroke="#000000" points="177.0001,-58.8264 180.5,-68.8264 184.0001,-58.8265 177.0001,-58.8264"/>
<polygon fill="none" stroke="#000000" points="177.0002,-48.8264 180.5001,-58.8264 184.0002,-48.8265 177.0002,-48.8264"/>
</a>
</g>
</g>
<!-- CEP&#45;12 -->
<g id="CEP&#45;12" class="node">
<title>CEP&#45;12</title>
<g id="a_CEP&#45;12"><a xlink:href="https://wissenswandler.atlassian.net/browse/CEP-12" xlink:title=" " target="details">
<path fill="#ffffff" stroke="#000000" stroke-dasharray="5,2" d="M220,-193C220,-193 141,-193 141,-193 135,-193 129,-187 129,-181 129,-181 129,-150 129,-150 129,-144 135,-138 141,-138 141,-138 220,-138 220,-138 226,-138 232,-144 232,-150 232,-150 232,-181 232,-181 232,-187 226,-193 220,-193"/>
<g id="a_CEP&#45;12_8"><a xlink:href="https://wissenswandler.atlassian.net/issues/?jql=type=%22Thing%22+ORDER+BY+summary" xlink:title=" " target="details">
<image xlink:href="../img/avatar--10533.png" width="24px" height="24px" preserveAspectRatio="xMinYMin meet" x="138.5" y="-183.5"/>
</a>
</g>
<text text-anchor="start" x="191" y="-168.8" font-family="Helvetica,sans-Serif" font-weight="bold" font-size="14.00" fill="#000000">3</text>
<g id="a_CEP&#45;12_9"><a xlink:href="https://wissenswandler.atlassian.net/issues/?jql=type=%22Thing%22+ORDER+BY+summary" xlink:title=" " target="details">
<text text-anchor="start" x="138.5" y="-150.1" font-family="Helvetica,sans-Serif" font-style="italic" font-size="8.00" fill="#000000">Thing</text>
</a>
</g>
<text text-anchor="start" x="166.5" y="-149.1" font-family="Helvetica,sans-Serif" font-size="8.00" fill="#000000">retired</text>
<text text-anchor="start" x="194.5" y="-149.1" font-family="Helvetica,sans-Serif" font-size="8.00" fill="#000000">CEP&#45;12</text>
</a>
</g>
</g>
<!-- CEP&#45;11&#45;&gt;CEP&#45;12 -->
<g id="CEP&#45;11___CEP&#45;12" class="edge">
<title>CEP&#45;11&#45;&gt;CEP&#45;12</title>
<g id="a_CEP&#45;11___CEP&#45;12"><a xlink:href="https://wissenswandler.atlassian.net/issues/?jql=key+in+(CEP-12,CEP-11)" xlink:title="2 → ist Vorgänger von &#160;→ 3 → folgt auf &#160;⮌" target="details">
<path fill="none" stroke="#000000" d="M180.5,-124.1674C180.5,-124.308 180.5,-124.4487 180.5,-124.5896"/>
<polygon fill="none" stroke="#000000" points="177.0001,-127.8264 180.5,-137.8264 184.0001,-127.8265 177.0001,-127.8264"/>
<polygon fill="none" stroke="#000000" points="177.0002,-117.8264 180.5001,-127.8264 184.0002,-117.8265 177.0002,-117.8264"/>
</a>
</g>
</g>
<!-- CEP&#45;13 -->
<g id="CEP&#45;13" class="node">
<title>CEP&#45;13</title>
<g id="a_CEP&#45;13"><a xlink:href="https://wissenswandler.atlassian.net/browse/CEP-13" xlink:title=" " target="details">
<path fill="#ffffff" stroke="#000000" d="M228,-262C228,-262 133,-262 133,-262 127,-262 121,-256 121,-250 121,-250 121,-219 121,-219 121,-213 127,-207 133,-207 133,-207 228,-207 228,-207 234,-207 240,-213 240,-219 240,-219 240,-250 240,-250 240,-256 234,-262 228,-262"/>
<g id="a_CEP&#45;13_10"><a xlink:href="https://wissenswandler.atlassian.net/issues/?jql=type=%22Thing%22+ORDER+BY+summary" xlink:title=" " target="details">
<image xlink:href="../img/avatar--10533.png" width="24px" height="24px" preserveAspectRatio="xMinYMin meet" x="130.5" y="-252.5"/>
</a>
</g>
<text text-anchor="start" x="191" y="-237.8" font-family="Helvetica,sans-Serif" font-weight="bold" font-size="14.00" fill="#000000">4</text>
<g id="a_CEP&#45;13_11"><a xlink:href="https://wissenswandler.atlassian.net/issues/?jql=type=%22Thing%22+ORDER+BY+summary" xlink:title=" " target="details">
<text text-anchor="start" x="130.5" y="-219.1" font-family="Helvetica,sans-Serif" font-style="italic" font-size="8.00" fill="#000000">Thing</text>
</a>
</g>
<text text-anchor="start" x="158.5" y="-218.1" font-family="Helvetica,sans-Serif" font-size="8.00" fill="#000000">operational</text>
<text text-anchor="start" x="202.5" y="-218.1" font-family="Helvetica,sans-Serif" font-size="8.00" fill="#000000">CEP&#45;13</text>
</a>
</g>
</g>
<!-- CEP&#45;12&#45;&gt;CEP&#45;13 -->
<g id="CEP&#45;12___CEP&#45;13" class="edge">
<title>CEP&#45;12&#45;&gt;CEP&#45;13</title>
<g id="a_CEP&#45;12___CEP&#45;13"><a xlink:href="https://wissenswandler.atlassian.net/issues/?jql=key+in+(CEP-13,CEP-12)" xlink:title="3 → ist Vorgänger von &#160;→ 4 → folgt auf &#160;⮌" target="details">
<path fill="none" stroke="#000000" d="M180.5,-193.1674C180.5,-193.308 180.5,-193.4487 180.5,-193.5896"/>
<polygon fill="none" stroke="#000000" points="177.0001,-196.8264 180.5,-206.8264 184.0001,-196.8265 177.0001,-196.8264"/>
<polygon fill="none" stroke="#000000" points="177.0002,-186.8264 180.5001,-196.8264 184.0002,-186.8265 177.0002,-186.8264"/>
</a>
</g>
</g>
<!-- CEP&#45;14 -->
<g id="CEP&#45;14" class="node">
<title>CEP&#45;14</title>
<g id="a_CEP&#45;14"><a xlink:href="https://wissenswandler.atlassian.net/browse/CEP-14" xlink:title=" " target="details">
<path fill="#ffffff" stroke="#000000" stroke-dasharray="1,5" d="M222.5,-331C222.5,-331 138.5,-331 138.5,-331 132.5,-331 126.5,-325 126.5,-319 126.5,-319 126.5,-288 126.5,-288 126.5,-282 132.5,-276 138.5,-276 138.5,-276 222.5,-276 222.5,-276 228.5,-276 234.5,-282 234.5,-288 234.5,-288 234.5,-319 234.5,-319 234.5,-325 228.5,-331 222.5,-331"/>
<g id="a_CEP&#45;14_12"><a xlink:href="https://wissenswandler.atlassian.net/issues/?jql=type=%22Thing%22+ORDER+BY+summary" xlink:title=" " target="details">
<image xlink:href="../img/avatar--10533.png" width="24px" height="24px" preserveAspectRatio="xMinYMin meet" x="135.5" y="-321.5"/>
</a>
</g>
<text text-anchor="start" x="190.5" y="-306.8" font-family="Helvetica,sans-Serif" font-weight="bold" font-size="14.00" fill="#000000">5</text>
<g id="a_CEP&#45;14_13"><a xlink:href="https://wissenswandler.atlassian.net/issues/?jql=type=%22Thing%22+ORDER+BY+summary" xlink:title=" " target="details">
<text text-anchor="start" x="135.5" y="-288.1" font-family="Helvetica,sans-Serif" font-style="italic" font-size="8.00" fill="#000000">Thing</text>
</a>
</g>
<text text-anchor="start" x="163.5" y="-287.1" font-family="Helvetica,sans-Serif" font-size="8.00" fill="#000000">planned</text>
<text text-anchor="start" x="196.5" y="-287.1" font-family="Helvetica,sans-Serif" font-size="8.00" fill="#000000">CEP&#45;14</text>
</a>
</g>
</g>
<!-- CEP&#45;13&#45;&gt;CEP&#45;14 -->
<g id="CEP&#45;13___CEP&#45;14" class="edge">
<title>CEP&#45;13&#45;&gt;CEP&#45;14</title>
<g id="a_CEP&#45;13___CEP&#45;14"><a xlink:href="https://wissenswandler.atlassian.net/issues/?jql=key+in+(CEP-14,CEP-13)" xlink:title="4 → ist Vorgänger von &#160;→ 5 → folgt auf &#160;⮌" target="details">
<path fill="none" stroke="#000000" d="M180.5,-262.1674C180.5,-262.308 180.5,-262.4487 180.5,-262.5896"/>
<polygon fill="none" stroke="#000000" points="177.0001,-265.8264 180.5,-275.8264 184.0001,-265.8265 177.0001,-265.8264"/>
<polygon fill="none" stroke="#000000" points="177.0002,-255.8264 180.5001,-265.8264 184.0002,-255.8265 177.0002,-255.8264"/>
</a>
</g>
</g>
<!-- CEP&#45;3 -->
<g id="CEP&#45;3" class="node">
<title>CEP&#45;3</title>
<g id="a_CEP&#45;3"><a xlink:href="https://wissenswandler.atlassian.net/browse/CEP-3" xlink:title="predecessor // Vorgänger" target="details">
<path fill="#ffffff" stroke="#000000" d="M349,-55C349,-55 258,-55 258,-55 252,-55 246,-49 246,-43 246,-43 246,-12 246,-12 246,-6 252,0 258,0 258,0 349,0 349,0 355,0 361,-6 361,-12 361,-12 361,-43 361,-43 361,-49 355,-55 349,-55"/>
<g id="a_CEP&#45;3_14"><a xlink:href="https://wissenswandler.atlassian.net/issues/?jql=type=%22Thing%22+ORDER+BY+summary" xlink:title="predecessor // Vorgänger" target="details">
<image xlink:href="../img/avatar--10533.png" width="24px" height="24px" preserveAspectRatio="xMinYMin meet" x="255.5" y="-45.5"/>
</a>
</g>
<text text-anchor="start" x="286" y="-30.8" font-family="Helvetica,sans-Serif" font-weight="bold" font-size="14.00" fill="#000000">Precursor</text>
<g id="a_CEP&#45;3_15"><a xlink:href="https://wissenswandler.atlassian.net/issues/?jql=type=%22Thing%22+ORDER+BY+summary" xlink:title="predecessor // Vorgänger" target="details">
<text text-anchor="start" x="255.5" y="-12.1" font-family="Helvetica,sans-Serif" font-style="italic" font-size="8.00" fill="#000000">Thing</text>
</a>
</g>
<text text-anchor="start" x="283.5" y="-11.1" font-family="Helvetica,sans-Serif" font-size="8.00" fill="#000000">operational</text>
<text text-anchor="start" x="327.5" y="-11.1" font-family="Helvetica,sans-Serif" font-size="8.00" fill="#000000">CEP&#45;3</text>
</a>
</g>
</g>
<!-- CEP&#45;4 -->
<g id="CEP&#45;4" class="node">
<title>CEP&#45;4</title>
<g id="a_CEP&#45;4"><a xlink:href="https://wissenswandler.atlassian.net/browse/CEP-4" xlink:title=" " target="details">
<path fill="#ffffff" stroke="#000000" d="M349,-124C349,-124 258,-124 258,-124 252,-124 246,-118 246,-112 246,-112 246,-81 246,-81 246,-75 252,-69 258,-69 258,-69 349,-69 349,-69 355,-69 361,-75 361,-81 361,-81 361,-112 361,-112 361,-118 355,-124 349,-124"/>
<g id="a_CEP&#45;4_16"><a xlink:href="https://wissenswandler.atlassian.net/issues/?jql=type=%22Thing%22+ORDER+BY+summary" xlink:title=" " target="details">
<image xlink:href="../img/avatar--10533.png" width="24px" height="24px" preserveAspectRatio="xMinYMin meet" x="255.5" y="-114.5"/>
</a>
</g>
<text text-anchor="start" x="283.5" y="-99.8" font-family="Helvetica,sans-Serif" font-weight="bold" font-size="14.00" fill="#000000">Successor</text>
<g id="a_CEP&#45;4_17"><a xlink:href="https://wissenswandler.atlassian.net/issues/?jql=type=%22Thing%22+ORDER+BY+summary" xlink:title=" " target="details">
<text text-anchor="start" x="255.5" y="-81.1" font-family="Helvetica,sans-Serif" font-style="italic" font-size="8.00" fill="#000000">Thing</text>
</a>
</g>
<text text-anchor="start" x="283.5" y="-80.1" font-family="Helvetica,sans-Serif" font-size="8.00" fill="#000000">operational</text>
<text text-anchor="start" x="327.5" y="-80.1" font-family="Helvetica,sans-Serif" font-size="8.00" fill="#000000">CEP&#45;4</text>
</a>
</g>
</g>
<!-- CEP&#45;3&#45;&gt;CEP&#45;4 -->
<g id="CEP&#45;3___CEP&#45;4" class="edge">
<title>CEP&#45;3&#45;&gt;CEP&#45;4</title>
<g id="a_CEP&#45;3___CEP&#45;4"><a xlink:href="https://wissenswandler.atlassian.net/issues/?jql=key+in+(CEP-4,CEP-3)" xlink:title="Precursor → ist Vorgänger von &#160;→ Successor → folgt auf &#160;⮌" target="details">
<path fill="none" stroke="#000000" d="M303.5,-55.1674C303.5,-55.308 303.5,-55.4487 303.5,-55.5896"/>
<polygon fill="none" stroke="#000000" points="300.0001,-58.8264 303.5,-68.8264 307.0001,-58.8265 300.0001,-58.8264"/>
<polygon fill="none" stroke="#000000" points="300.0002,-48.8264 303.5001,-58.8264 307.0002,-48.8265 300.0002,-48.8264"/>
</a>
</g>
</g>
<!-- CEP&#45;5 -->
<g id="CEP&#45;5" class="node">
<title>CEP&#45;5</title>
<g id="a_CEP&#45;5"><a xlink:href="https://wissenswandler.atlassian.net/browse/CEP-5" xlink:title=" " target="details">
<path fill="#ffffff" stroke="#000000" d="M495,-55C495,-55 404,-55 404,-55 398,-55 392,-49 392,-43 392,-43 392,-12 392,-12 392,-6 398,0 404,0 404,0 495,0 495,0 501,0 507,-6 507,-12 507,-12 507,-43 507,-43 507,-49 501,-55 495,-55"/>
<g id="a_CEP&#45;5_18"><a xlink:href="https://wissenswandler.atlassian.net/issues/?jql=type=%22Thing%22+ORDER+BY+summary" xlink:title=" " target="details">
<image xlink:href="../img/avatar--10533.png" width="24px" height="24px" preserveAspectRatio="xMinYMin meet" x="401.5" y="-45.5"/>
</a>
</g>
<text text-anchor="start" x="434" y="-30.8" font-family="Helvetica,sans-Serif" font-weight="bold" font-size="14.00" fill="#000000">Blueprint</text>
<g id="a_CEP&#45;5_19"><a xlink:href="https://wissenswandler.atlassian.net/issues/?jql=type=%22Thing%22+ORDER+BY+summary" xlink:title=" " target="details">
<text text-anchor="start" x="401.5" y="-12.1" font-family="Helvetica,sans-Serif" font-style="italic" font-size="8.00" fill="#000000">Thing</text>
</a>
</g>
<text text-anchor="start" x="429.5" y="-11.1" font-family="Helvetica,sans-Serif" font-size="8.00" fill="#000000">operational</text>
<text text-anchor="start" x="473.5" y="-11.1" font-family="Helvetica,sans-Serif" font-size="8.00" fill="#000000">CEP&#45;5</text>
</a>
</g>
</g>
<!-- CEP&#45;6 -->
<g id="CEP&#45;6" class="node">
<title>CEP&#45;6</title>
<g id="a_CEP&#45;6"><a xlink:href="https://wissenswandler.atlassian.net/browse/CEP-6" xlink:title=" " target="details">
<path fill="#ffffff" stroke="#000000" d="M511.5,-124C511.5,-124 387.5,-124 387.5,-124 381.5,-124 375.5,-118 375.5,-112 375.5,-112 375.5,-81 375.5,-81 375.5,-75 381.5,-69 387.5,-69 387.5,-69 511.5,-69 511.5,-69 517.5,-69 523.5,-75 523.5,-81 523.5,-81 523.5,-112 523.5,-112 523.5,-118 517.5,-124 511.5,-124"/>
<g id="a_CEP&#45;6_20"><a xlink:href="https://wissenswandler.atlassian.net/issues/?jql=type=%22Thing%22+ORDER+BY+summary" xlink:title=" " target="details">
<image xlink:href="../img/avatar--10533.png" width="24px" height="24px" preserveAspectRatio="xMinYMin meet" x="384.5" y="-114.5"/>
</a>
</g>
<text text-anchor="start" x="412.5" y="-99.8" font-family="Helvetica,sans-Serif" font-weight="bold" font-size="14.00" fill="#000000">Implementation</text>
<g id="a_CEP&#45;6_21"><a xlink:href="https://wissenswandler.atlassian.net/issues/?jql=type=%22Thing%22+ORDER+BY+summary" xlink:title=" " target="details">
<text text-anchor="start" x="384.5" y="-81.1" font-family="Helvetica,sans-Serif" font-style="italic" font-size="8.00" fill="#000000">Thing</text>
</a>
</g>
<text text-anchor="start" x="432.5" y="-80.1" font-family="Helvetica,sans-Serif" font-size="8.00" fill="#000000">operational</text>
<text text-anchor="start" x="489.5" y="-80.1" font-family="Helvetica,sans-Serif" font-size="8.00" fill="#000000">CEP&#45;6</text>
</a>
</g>
</g>
<!-- CEP&#45;5&#45;&gt;CEP&#45;6 -->
<g id="CEP&#45;5___CEP&#45;6" class="edge">
<title>CEP&#45;5&#45;&gt;CEP&#45;6</title>
<g id="a_CEP&#45;5___CEP&#45;6"><a xlink:href="https://wissenswandler.atlassian.net/issues/?jql=key+in+(CEP-6,CEP-5)" xlink:title="Blueprint → ist Vorlage für △ → Implementation → realisiert Vorlage ▼ (UML △) ⮌" target="details">
<path fill="none" stroke="#0000ff" d="M449.5,-55.1674C449.5,-56.2921 449.5,-57.427 449.5,-58.567"/>
<polygon fill="none" stroke="#0000ff" points="446.0001,-58.8264 449.5,-68.8264 453.0001,-58.8265 446.0001,-58.8264"/>
</a>
</g>
</g>
<!-- CEP&#45;7 -->
<g id="CEP&#45;7" class="node">
<title>CEP&#45;7</title>
<g id="a_CEP&#45;7"><a xlink:href="https://wissenswandler.atlassian.net/browse/CEP-7" xlink:title="Something that is now, when we look at it, &#39;history&#39; or &#39;past&#39;.&#13;&#10;&#13;&#10;It does not exist any more for the purpose of our reasoning. It may well exist in other domains, outside the scope of our reasoning (i.e. a sold item which now is used by the new owner but outside our domain).&#13;&#10;&#13;&#10;We may keep records of historical things in order to understand a historical configuration or to use it as a blueprint for future configurations or to re&#45;activate it, if necessary and possible. " target="details">
<path fill="#ffffff" stroke="#000000" stroke-dasharray="5,2" d="M633,-55C633,-55 558,-55 558,-55 552,-55 546,-49 546,-43 546,-43 546,-12 546,-12 546,-6 552,0 558,0 558,0 633,0 633,0 639,0 645,-6 645,-12 645,-12 645,-43 645,-43 645,-49 639,-55 633,-55"/>
<g id="a_CEP&#45;7_22"><a xlink:href="https://wissenswandler.atlassian.net/issues/?jql=type=%22Thing%22+ORDER+BY+summary" xlink:title="Something that is now, when we look at it, &#39;history&#39; or &#39;past&#39;.&#13;&#10;&#13;&#10;It does not exist any more for the purpose of our reasoning. It may well exist in other domains, outside the scope of our reasoning (i.e. a sold item which now is used by the new owner but outside our domain).&#13;&#10;&#13;&#10;We may keep records of historical things in order to understand a historical configuration or to use it as a blueprint for future configurations or to re&#45;activate it, if necessary and possible. " target="details">
<image xlink:href="../img/avatar--10533.png" width="24px" height="24px" preserveAspectRatio="xMinYMin meet" x="555.5" y="-45.5"/>
</a>
</g>
<text text-anchor="start" x="587" y="-30.8" font-family="Helvetica,sans-Serif" font-weight="bold" font-size="14.00" fill="#000000">history</text>
<g id="a_CEP&#45;7_23"><a xlink:href="https://wissenswandler.atlassian.net/issues/?jql=type=%22Thing%22+ORDER+BY+summary" xlink:title="Something that is now, when we look at it, &#39;history&#39; or &#39;past&#39;.&#13;&#10;&#13;&#10;It does not exist any more for the purpose of our reasoning. It may well exist in other domains, outside the scope of our reasoning (i.e. a sold item which now is used by the new owner but outside our domain).&#13;&#10;&#13;&#10;We may keep records of historical things in order to understand a historical configuration or to use it as a blueprint for future configurations or to re&#45;activate it, if necessary and possible. " target="details">
<text text-anchor="start" x="555.5" y="-12.1" font-family="Helvetica,sans-Serif" font-style="italic" font-size="8.00" fill="#000000">Thing</text>
</a>
</g>
<text text-anchor="start" x="583.5" y="-11.1" font-family="Helvetica,sans-Serif" font-size="8.00" fill="#000000">retired</text>
<text text-anchor="start" x="611.5" y="-11.1" font-family="Helvetica,sans-Serif" font-size="8.00" fill="#000000">CEP&#45;7</text>
</a>
</g>
</g>
<!-- CEP&#45;8 -->
<g id="CEP&#45;8" class="node">
<title>CEP&#45;8</title>
<g id="a_CEP&#45;8"><a xlink:href="https://wissenswandler.atlassian.net/browse/CEP-8" xlink:title=" " target="details">
<path fill="#ffffff" stroke="#000000" d="M641,-124C641,-124 550,-124 550,-124 544,-124 538,-118 538,-112 538,-112 538,-81 538,-81 538,-75 544,-69 550,-69 550,-69 641,-69 641,-69 647,-69 653,-75 653,-81 653,-81 653,-112 653,-112 653,-118 647,-124 641,-124"/>
<g id="a_CEP&#45;8_24"><a xlink:href="https://wissenswandler.atlassian.net/issues/?jql=type=%22Thing%22+ORDER+BY+summary" xlink:title=" " target="details">
<image xlink:href="../img/avatar--10533.png" width="24px" height="24px" preserveAspectRatio="xMinYMin meet" x="547.5" y="-114.5"/>
</a>
</g>
<text text-anchor="start" x="596" y="-99.8" font-family="Helvetica,sans-Serif" font-weight="bold" font-size="14.00" fill="#000000">now</text>
<g id="a_CEP&#45;8_25"><a xlink:href="https://wissenswandler.atlassian.net/issues/?jql=type=%22Thing%22+ORDER+BY+summary" xlink:title=" " target="details">
<text text-anchor="start" x="547.5" y="-81.1" font-family="Helvetica,sans-Serif" font-style="italic" font-size="8.00" fill="#000000">Thing</text>
</a>
</g>
<text text-anchor="start" x="575.5" y="-80.1" font-family="Helvetica,sans-Serif" font-size="8.00" fill="#000000">operational</text>
<text text-anchor="start" x="619.5" y="-80.1" font-family="Helvetica,sans-Serif" font-size="8.00" fill="#000000">CEP&#45;8</text>
</a>
</g>
</g>
<!-- CEP&#45;7&#45;&gt;CEP&#45;8 -->
<g id="CEP&#45;7___CEP&#45;8" class="edge">
<title>CEP&#45;7&#45;&gt;CEP&#45;8</title>
<g id="a_CEP&#45;7___CEP&#45;8"><a xlink:href="https://wissenswandler.atlassian.net/issues/?jql=key+in+(CEP-8,CEP-7)" xlink:title="history → ist Vorgänger von &#160;→ now → folgt auf &#160;⮌" target="details">
<path fill="none" stroke="#000000" d="M595.5,-55.1674C595.5,-55.308 595.5,-55.4487 595.5,-55.5896"/>
<polygon fill="none" stroke="#000000" points="592.0001,-58.8264 595.5,-68.8264 599.0001,-58.8265 592.0001,-58.8264"/>
<polygon fill="none" stroke="#000000" points="592.0002,-48.8264 595.5001,-58.8264 599.0002,-48.8265 592.0002,-48.8264"/>
</a>
</g>
</g>
<!-- CEP&#45;9 -->
<g id="CEP&#45;9" class="node">
<title>CEP&#45;9</title>
<g id="a_CEP&#45;9"><a xlink:href="https://wissenswandler.atlassian.net/browse/CEP-9" xlink:title=" " target="details">
<path fill="#ffffff" stroke="#000000" stroke-dasharray="1,5" d="M635.5,-193C635.5,-193 555.5,-193 555.5,-193 549.5,-193 543.5,-187 543.5,-181 543.5,-181 543.5,-150 543.5,-150 543.5,-144 549.5,-138 555.5,-138 555.5,-138 635.5,-138 635.5,-138 641.5,-138 647.5,-144 647.5,-150 647.5,-150 647.5,-181 647.5,-181 647.5,-187 641.5,-193 635.5,-193"/>
<g id="a_CEP&#45;9_26"><a xlink:href="https://wissenswandler.atlassian.net/issues/?jql=type=%22Thing%22+ORDER+BY+summary" xlink:title=" " target="details">
<image xlink:href="../img/avatar--10533.png" width="24px" height="24px" preserveAspectRatio="xMinYMin meet" x="552.5" y="-183.5"/>
</a>
</g>
<text text-anchor="start" x="590" y="-168.8" font-family="Helvetica,sans-Serif" font-weight="bold" font-size="14.00" fill="#000000">future</text>
<g id="a_CEP&#45;9_27"><a xlink:href="https://wissenswandler.atlassian.net/issues/?jql=type=%22Thing%22+ORDER+BY+summary" xlink:title=" " target="details">
<text text-anchor="start" x="552.5" y="-150.1" font-family="Helvetica,sans-Serif" font-style="italic" font-size="8.00" fill="#000000">Thing</text>
</a>
</g>
<text text-anchor="start" x="580.5" y="-149.1" font-family="Helvetica,sans-Serif" font-size="8.00" fill="#000000">planned</text>
<text text-anchor="start" x="613.5" y="-149.1" font-family="Helvetica,sans-Serif" font-size="8.00" fill="#000000">CEP&#45;9</text>
</a>
</g>
</g>
<!-- CEP&#45;8&#45;&gt;CEP&#45;9 -->
<g id="CEP&#45;8___CEP&#45;9" class="edge">
<title>CEP&#45;8&#45;&gt;CEP&#45;9</title>
<g id="a_CEP&#45;8___CEP&#45;9"><a xlink:href="https://wissenswandler.atlassian.net/issues/?jql=key+in+(CEP-9,CEP-8)" xlink:title="now → ist Vorgänger von &#160;→ future → folgt auf &#160;⮌" target="details">
<path fill="none" stroke="#000000" d="M595.5,-124.1674C595.5,-124.308 595.5,-124.4487 595.5,-124.5896"/>
<polygon fill="none" stroke="#000000" points="592.0001,-127.8264 595.5,-137.8264 599.0001,-127.8265 592.0001,-127.8264"/>
<polygon fill="none" stroke="#000000" points="592.0002,-117.8264 595.5001,-127.8264 599.0002,-117.8265 592.0002,-117.8264"/>
</a>
</g>
</g>
</g>
</svg>
