<?xml version="1.0" encoding="UTF-8" standalone="no"?>
<?xml-stylesheet type="text/css" href="graph.css"?>
<!DOCTYPE svg PUBLIC "-//W3C//DTD SVG 1.1//EN"
 "http://www.w3.org/Graphics/SVG/1.1/DTD/svg11.dtd">
<!-- Generated by graphviz version 2.44.0 (0)
 -->
<!-- Pages: 1 -->
<svg width="100%" 
 viewBox="0.00 0.00 1164.00 647.50" xmlns="http://www.w3.org/2000/svg" xmlns:xlink="http://www.w3.org/1999/xlink">
<title>example: software stacks on local and citrix machines</title>
<script xlink:href="graph.js" type="text/ecmascript" />
<g id="graph0" class="graph" transform="scale(1 1) rotate(0) translate(4 643.5)">
<g id="a_graph0"><a xlink:title=" ">
<polygon fill="white" stroke="transparent" points="-4,4 -4,-643.5 1160,-643.5 1160,4 -4,4"/>
<text text-anchor="middle" x="578" y="-623.5" font-family="Helvetica,sans-Serif" font-size="15.00">Example: Software Stacks on Local and Citrix Machines</text>
<text text-anchor="middle" x="578" y="-606.5" font-family="Helvetica,sans-Serif" font-size="15.00"> </text>
</a>
</g>
<g id="clust9" class="cluster">
<title>cluster_legend_realization</title>
<g id="a_clust9"><a xlink:title=" ">
<polygon fill="ghostwhite" stroke="whitesmoke" points="432,-42.5 432,-83.5 631,-83.5 631,-42.5 432,-42.5"/>
</a>
</g>
</g>
<g id="clust1" class="cluster">
<title>cluster_legend_svg</title>
<g id="a_clust1"><a xlink:title=" ">
<polygon fill="none" stroke="white" points="54,-42.5 54,-83.5 112,-83.5 112,-42.5 54,-42.5"/>
</a>
</g>
</g>
<g id="clust2" class="cluster">
<title>cluster_vdisk_store</title>
<g id="a_clust2"><a xlink:title=" ">
<polygon fill="whitesmoke" stroke="whitesmoke" points="166,-8 166,-377.5 266,-377.5 266,-8 166,-8"/>
<text text-anchor="middle" x="216" y="-17" font-family="Helvetica,sans-Serif" font-size="15.00">vDisk store</text>
</a>
</g>
</g>
<g id="clust3" class="cluster">
<title>cluster_citrix</title>
<g id="a_clust3"><a xlink:title=" ">
<polygon fill="whitesmoke" stroke="whitesmoke" points="8,-109 8,-446 158,-446 158,-109 8,-109"/>
<text text-anchor="middle" x="83" y="-118" font-family="Helvetica,sans-Serif" font-size="15.00">&#39;citrix&#39; backend</text>
</a>
</g>
</g>
<g id="clust4" class="cluster">
<title>cluster_NB</title>
<g id="a_clust4"><a xlink:title=" ">
<polygon fill="whitesmoke" stroke="whitesmoke" points="274,-300 274,-544.5 524,-544.5 524,-300 274,-300"/>
<text text-anchor="middle" x="399" y="-309" font-family="Helvetica,sans-Serif" font-size="15.00">NB</text>
</a>
</g>
</g>
<g id="clust5" class="cluster">
<title>cluster_Std_K</title>
<g id="a_clust5"><a xlink:title=" ">
<polygon fill="whitesmoke" stroke="whitesmoke" points="532,-300 532,-453.5 727,-453.5 727,-300 532,-300"/>
<text text-anchor="middle" x="629.5" y="-309" font-family="Helvetica,sans-Serif" font-size="15.00">Std K definition</text>
</a>
</g>
</g>
<g id="clust6" class="cluster">
<title>cluster_DT</title>
<g id="a_clust6"><a xlink:title=" ">
<polygon fill="whitesmoke" stroke="whitesmoke" points="735,-300 735,-544.5 1025,-544.5 1025,-300 735,-300"/>
<text text-anchor="middle" x="880" y="-309" font-family="Helvetica,sans-Serif" font-size="15.00">Desktop</text>
</a>
</g>
</g>
<g id="clust10" class="cluster">
<title>cluster_legend_inference</title>
<g id="a_clust10"><a xlink:title=" ">
<polygon fill="ghostwhite" stroke="whitesmoke" points="841,-42.5 841,-83.5 967,-83.5 967,-42.5 841,-42.5"/>
</a>
</g>
</g>
<!-- svg_legend_metamodel -->
<g id="svg_legend_metamodel" class="node">
<title>svg_legend_metamodel</title>
<g id="a_svg_legend_metamodel"><a xlink:href="../metamodel/" xlink:title="click for Metamodel and more legend...">
<polygon fill="white" stroke="white" points="99.83,-75.5 62,-75.5 62,-50.5 104,-50.5 104,-71.33 99.83,-75.5"/>
<polyline fill="none" stroke="white" points="99.83,-75.5 99.83,-71.33 "/>
<polyline fill="none" stroke="white" points="104,-71.33 99.83,-71.33 "/>
<text text-anchor="middle" x="83" y="-60.5" font-family="Helvetica,sans-Serif" font-size="10.00" fill="white">MM...</text>
</a>
</g>
</g>
<!-- vDisk_image -->
<g id="vDisk_image" class="node">
<title>vDisk_image</title>
<g id="a_vDisk_image"><a xlink:title=" ">
<path fill="white" stroke="black" d="M219.5,-85C219.5,-85 186.5,-85 186.5,-85 180.5,-85 174.5,-79 174.5,-73 174.5,-73 174.5,-53 174.5,-53 174.5,-47 180.5,-41 186.5,-41 186.5,-41 219.5,-41 219.5,-41 225.5,-41 231.5,-47 231.5,-53 231.5,-53 231.5,-73 231.5,-73 231.5,-79 225.5,-85 219.5,-85"/>
<text text-anchor="middle" x="203" y="-66.8" font-family="Helvetica,sans-Serif" font-size="14.00">vDisk</text>
<text text-anchor="middle" x="203" y="-51.8" font-family="Helvetica,sans-Serif" font-size="14.00">image</text>
</a>
</g>
</g>
<!-- OS_image -->
<g id="OS_image" class="node">
<title>OS_image</title>
<g id="a_OS_image"><a xlink:title=" ">
<path fill="white" stroke="black" d="M219.5,-268.5C219.5,-268.5 186.5,-268.5 186.5,-268.5 180.5,-268.5 174.5,-262.5 174.5,-256.5 174.5,-256.5 174.5,-236.5 174.5,-236.5 174.5,-230.5 180.5,-224.5 186.5,-224.5 186.5,-224.5 219.5,-224.5 219.5,-224.5 225.5,-224.5 231.5,-230.5 231.5,-236.5 231.5,-236.5 231.5,-256.5 231.5,-256.5 231.5,-262.5 225.5,-268.5 219.5,-268.5"/>
<text text-anchor="middle" x="203" y="-250.3" font-family="Helvetica,sans-Serif" font-size="14.00">OS</text>
<text text-anchor="middle" x="203" y="-235.3" font-family="Helvetica,sans-Serif" font-size="14.00">image</text>
</a>
</g>
</g>
<!-- vDisk_image&#45;&gt;OS_image -->
<g id="vDisk_image___OS_image" class="edge">
<title>vDisk_image&#45;&gt;OS_image</title>
<path fill="none" stroke="forestgreen" stroke-width="2" d="M203,-85.18C203,-117.01 203,-177.38 203,-214.27"/>
<polygon fill="forestgreen" stroke="forestgreen" stroke-width="2" points="199.5,-214.46 203,-224.46 206.5,-214.46 199.5,-214.46"/>
</g>
<!-- vDisk_1 -->
<g id="vDisk_1" class="node">
<title>vDisk_1</title>
<g id="a_vDisk_1"><a xlink:title=" ">
<path fill="white" stroke="black" d="M136.5,-186C136.5,-186 107.5,-186 107.5,-186 101.5,-186 95.5,-180 95.5,-174 95.5,-174 95.5,-154 95.5,-154 95.5,-148 101.5,-142 107.5,-142 107.5,-142 136.5,-142 136.5,-142 142.5,-142 148.5,-148 148.5,-154 148.5,-154 148.5,-174 148.5,-174 148.5,-180 142.5,-186 136.5,-186"/>
<text text-anchor="middle" x="122" y="-167.8" font-family="Helvetica,sans-Serif" font-size="14.00">vDisk</text>
<text text-anchor="middle" x="122" y="-152.8" font-family="Helvetica,sans-Serif" font-size="14.00">1</text>
</a>
</g>
</g>
<!-- vDisk_image&#45;&gt;vDisk_1 -->
<g id="vDisk_image___vDisk_1" class="edge">
<title>vDisk_image&#45;&gt;vDisk_1</title>
<path fill="none" stroke="blue" d="M183.53,-85.22C176.89,-92.64 169.5,-101.09 163,-109 156.51,-116.9 149.7,-125.65 143.55,-133.77"/>
<polygon fill="none" stroke="blue" points="140.61,-131.84 137.4,-141.94 146.21,-136.05 140.61,-131.84"/>
</g>
<!-- vDisk_2 -->
<g id="vDisk_2" class="node">
<title>vDisk_2</title>
<g id="a_vDisk_2"><a xlink:title=" ">
<path fill="white" stroke="black" d="M64.5,-186C64.5,-186 35.5,-186 35.5,-186 29.5,-186 23.5,-180 23.5,-174 23.5,-174 23.5,-154 23.5,-154 23.5,-148 29.5,-142 35.5,-142 35.5,-142 64.5,-142 64.5,-142 70.5,-142 76.5,-148 76.5,-154 76.5,-154 76.5,-174 76.5,-174 76.5,-180 70.5,-186 64.5,-186"/>
<text text-anchor="middle" x="50" y="-167.8" font-family="Helvetica,sans-Serif" font-size="14.00">vDisk</text>
<text text-anchor="middle" x="50" y="-152.8" font-family="Helvetica,sans-Serif" font-size="14.00">2</text>
</a>
</g>
</g>
<!-- vDisk_image&#45;&gt;vDisk_2 -->
<g id="vDisk_image___vDisk_2" class="edge">
<title>vDisk_image&#45;&gt;vDisk_2</title>
<path fill="none" stroke="blue" d="M174.18,-70.29C149.37,-76.79 113.64,-88.88 88,-109 79.54,-115.63 72.19,-124.65 66.25,-133.42"/>
<polygon fill="none" stroke="blue" points="63.21,-131.68 60.81,-142 69.12,-135.43 63.21,-131.68"/>
</g>
<!-- SW_a_image -->
<g id="SW_a_image" class="node">
<title>SW_a_image</title>
<g id="a_SW_a_image"><a xlink:title=" ">
<path fill="white" stroke="black" d="M219.5,-369.5C219.5,-369.5 186.5,-369.5 186.5,-369.5 180.5,-369.5 174.5,-363.5 174.5,-357.5 174.5,-357.5 174.5,-337.5 174.5,-337.5 174.5,-331.5 180.5,-325.5 186.5,-325.5 186.5,-325.5 219.5,-325.5 219.5,-325.5 225.5,-325.5 231.5,-331.5 231.5,-337.5 231.5,-337.5 231.5,-357.5 231.5,-357.5 231.5,-363.5 225.5,-369.5 219.5,-369.5"/>
<text text-anchor="middle" x="203" y="-351.3" font-family="Helvetica,sans-Serif" font-size="14.00">SW a</text>
<text text-anchor="middle" x="203" y="-336.3" font-family="Helvetica,sans-Serif" font-size="14.00">image</text>
</a>
</g>
</g>
<!-- OS_image&#45;&gt;SW_a_image -->
<g id="OS_image___SW_a_image" class="edge">
<title>OS_image&#45;&gt;SW_a_image</title>
<path fill="none" stroke="forestgreen" stroke-width="2" d="M203,-268.98C203,-282.44 203,-300.01 203,-315.02"/>
<polygon fill="forestgreen" stroke="forestgreen" stroke-width="2" points="199.5,-315.4 203,-325.4 206.5,-315.4 199.5,-315.4"/>
</g>
<!-- td1_OS -->
<g id="td1_OS" class="node">
<title>td1_OS</title>
<g id="a_td1_OS"><a xlink:title=" ">
<path fill="white" stroke="purple" d="M127.83,-362C127.83,-362 112.17,-362 112.17,-362 107.33,-362 102.5,-357.17 102.5,-352.33 102.5,-352.33 102.5,-342.67 102.5,-342.67 102.5,-337.83 107.33,-333 112.17,-333 112.17,-333 127.83,-333 127.83,-333 132.67,-333 137.5,-337.83 137.5,-342.67 137.5,-342.67 137.5,-352.33 137.5,-352.33 137.5,-357.17 132.67,-362 127.83,-362"/>
<text text-anchor="middle" x="120" y="-343.8" font-family="Helvetica,sans-Serif" font-size="14.00" fill="purple">OS</text>
</a>
</g>
</g>
<!-- OS_image&#45;&gt;td1_OS -->
<g id="OS_image___td1_OS" class="edge">
<title>OS_image&#45;&gt;td1_OS</title>
<path fill="none" stroke="purple" d="M184.99,-268.98C171.1,-285.54 151.99,-308.35 138.08,-324.93"/>
<polygon fill="none" stroke="purple" points="135.09,-323.06 131.34,-332.97 140.45,-327.56 135.09,-323.06"/>
</g>
<!-- SW_a_Inst_td1 -->
<g id="SW_a_Inst_td1" class="node">
<title>SW_a_Inst_td1</title>
<g id="a_SW_a_Inst_td1"><a xlink:title=" ">
<path fill="white" stroke="purple" d="M139.83,-438C139.83,-438 74.17,-438 74.17,-438 69.33,-438 64.5,-433.17 64.5,-428.33 64.5,-428.33 64.5,-418.67 64.5,-418.67 64.5,-413.83 69.33,-409 74.17,-409 74.17,-409 139.83,-409 139.83,-409 144.67,-409 149.5,-413.83 149.5,-418.67 149.5,-418.67 149.5,-428.33 149.5,-428.33 149.5,-433.17 144.67,-438 139.83,-438"/>
<text text-anchor="middle" x="107" y="-419.8" font-family="Helvetica,sans-Serif" font-size="14.00" fill="purple">SW a Inst.</text>
</a>
</g>
</g>
<!-- SW_a_image&#45;&gt;SW_a_Inst_td1 -->
<g id="SW_a_image___SW_a_Inst_td1" class="edge">
<title>SW_a_image&#45;&gt;SW_a_Inst_td1</title>
<path fill="none" stroke="purple" d="M175.75,-369.51C162.29,-379.88 146.13,-392.34 132.87,-402.56"/>
<polygon fill="none" stroke="purple" points="130.41,-400.04 124.62,-408.92 134.68,-405.58 130.41,-400.04"/>
</g>
<!-- target_device_1 -->
<g id="target_device_1" class="node">
<title>target_device_1</title>
<g id="a_target_device_1"><a xlink:title=" ">
<path fill="white" stroke="black" d="M138,-276C138,-276 102,-276 102,-276 96,-276 90,-270 90,-264 90,-264 90,-229 90,-229 90,-223 96,-217 102,-217 102,-217 138,-217 138,-217 144,-217 150,-223 150,-229 150,-229 150,-264 150,-264 150,-270 144,-276 138,-276"/>
<text text-anchor="middle" x="120" y="-257.8" font-family="Helvetica,sans-Serif" font-size="14.00">target</text>
<text text-anchor="middle" x="120" y="-242.8" font-family="Helvetica,sans-Serif" font-size="14.00">device</text>
<text text-anchor="middle" x="120" y="-227.8" font-family="Helvetica,sans-Serif" font-size="14.00">1</text>
</a>
</g>
</g>
<!-- vDisk_1&#45;&gt;target_device_1 -->
<g id="vDisk_1___target_device_1" class="edge">
<title>vDisk_1&#45;&gt;target_device_1</title>
<path fill="none" stroke="forestgreen" stroke-width="2" d="M121.47,-186.15C121.32,-192.47 121.14,-199.61 120.96,-206.69"/>
<polygon fill="forestgreen" stroke="forestgreen" stroke-width="2" points="117.46,-206.84 120.71,-216.92 124.46,-207.01 117.46,-206.84"/>
</g>
<!-- target_device_2 -->
<g id="target_device_2" class="node">
<title>target_device_2</title>
<g id="a_target_device_2"><a xlink:title=" ">
<path fill="white" stroke="black" d="M64,-276C64,-276 28,-276 28,-276 22,-276 16,-270 16,-264 16,-264 16,-229 16,-229 16,-223 22,-217 28,-217 28,-217 64,-217 64,-217 70,-217 76,-223 76,-229 76,-229 76,-264 76,-264 76,-270 70,-276 64,-276"/>
<text text-anchor="middle" x="46" y="-257.8" font-family="Helvetica,sans-Serif" font-size="14.00">target</text>
<text text-anchor="middle" x="46" y="-242.8" font-family="Helvetica,sans-Serif" font-size="14.00">device</text>
<text text-anchor="middle" x="46" y="-227.8" font-family="Helvetica,sans-Serif" font-size="14.00">2</text>
</a>
</g>
</g>
<!-- vDisk_2&#45;&gt;target_device_2 -->
<g id="vDisk_2___target_device_2" class="edge">
<title>vDisk_2&#45;&gt;target_device_2</title>
<path fill="none" stroke="forestgreen" stroke-width="2" d="M48.95,-186.15C48.63,-192.47 48.28,-199.61 47.93,-206.69"/>
<polygon fill="forestgreen" stroke="forestgreen" stroke-width="2" points="44.42,-206.76 47.42,-216.92 51.41,-207.11 44.42,-206.76"/>
</g>
<!-- target_device_1&#45;&gt;td1_OS -->
<g id="target_device_1___td1_OS" class="edge">
<title>target_device_1&#45;&gt;td1_OS</title>
<path fill="none" stroke="purple" d="M120,-276.13C120,-290.82 120,-308.52 120,-322.48"/>
<polygon fill="purple" stroke="purple" points="116.5,-322.76 120,-332.76 123.5,-322.76 116.5,-322.76"/>
</g>
<!-- td1_OS&#45;&gt;SW_a_Inst_td1 -->
<g id="td1_OS___SW_a_Inst_td1" class="edge">
<title>td1_OS&#45;&gt;SW_a_Inst_td1</title>
<path fill="none" stroke="purple" d="M117.62,-362.07C115.81,-372.34 113.29,-386.68 111.16,-398.82"/>
<polygon fill="purple" stroke="purple" points="107.7,-398.31 109.41,-408.76 114.59,-399.52 107.7,-398.31"/>
</g>
<!-- Ctrx_Cl_Inst_NB -->
<g id="Ctrx_Cl_Inst_NB" class="node">
<title>Ctrx_Cl_Inst_NB</title>
<g id="a_Ctrx_Cl_Inst_NB"><a xlink:title=" ">
<path fill="white" stroke="black" d="M344,-529C344,-529 294,-529 294,-529 288,-529 282,-523 282,-517 282,-517 282,-497 282,-497 282,-491 288,-485 294,-485 294,-485 344,-485 344,-485 350,-485 356,-491 356,-497 356,-497 356,-517 356,-517 356,-523 350,-529 344,-529"/>
<text text-anchor="middle" x="319" y="-510.8" font-family="Helvetica,sans-Serif" font-size="14.00">Citrix Cl.</text>
<text text-anchor="middle" x="319" y="-495.8" font-family="Helvetica,sans-Serif" font-size="14.00">Inst.</text>
</a>
</g>
</g>
<!-- SW_a_Inst_td1&#45;&gt;Ctrx_Cl_Inst_NB -->
<g id="SW_a_Inst_td1___Ctrx_Cl_Inst_NB" class="edge">
<title>SW_a_Inst_td1&#45;&gt;Ctrx_Cl_Inst_NB</title>
<path fill="none" stroke="purple" d="M142.48,-438.14C178.13,-451.84 233.23,-473.03 272.39,-488.08"/>
<polygon fill="purple" stroke="purple" points="271.38,-491.44 281.97,-491.77 273.9,-484.91 271.38,-491.44"/>
</g>
<!-- NB_HW -->
<g id="NB_HW" class="node">
<title>NB_HW</title>
<g id="a_NB_HW"><a xlink:title=" ">
<path fill="white" stroke="black" d="M446.83,-362C446.83,-362 427.17,-362 427.17,-362 422.33,-362 417.5,-357.17 417.5,-352.33 417.5,-352.33 417.5,-342.67 417.5,-342.67 417.5,-337.83 422.33,-333 427.17,-333 427.17,-333 446.83,-333 446.83,-333 451.67,-333 456.5,-337.83 456.5,-342.67 456.5,-342.67 456.5,-352.33 456.5,-352.33 456.5,-357.17 451.67,-362 446.83,-362"/>
<text text-anchor="middle" x="437" y="-343.8" font-family="Helvetica,sans-Serif" font-size="14.00">HW</text>
</a>
</g>
</g>
<!-- NB_OS -->
<g id="NB_OS" class="node">
<title>NB_OS</title>
<g id="a_NB_OS"><a xlink:title=" ">
<path fill="white" stroke="black" d="M444.83,-438C444.83,-438 429.17,-438 429.17,-438 424.33,-438 419.5,-433.17 419.5,-428.33 419.5,-428.33 419.5,-418.67 419.5,-418.67 419.5,-413.83 424.33,-409 429.17,-409 429.17,-409 444.83,-409 444.83,-409 449.67,-409 454.5,-413.83 454.5,-418.67 454.5,-418.67 454.5,-428.33 454.5,-428.33 454.5,-433.17 449.67,-438 444.83,-438"/>
<text text-anchor="middle" x="437" y="-419.8" font-family="Helvetica,sans-Serif" font-size="14.00">OS</text>
</a>
</g>
</g>
<!-- NB_HW&#45;&gt;NB_OS -->
<g id="NB_HW___NB_OS" class="edge">
<title>NB_HW&#45;&gt;NB_OS</title>
<path fill="none" stroke="forestgreen" stroke-width="2" d="M437,-362.07C437,-372.23 437,-386.39 437,-398.45"/>
<polygon fill="forestgreen" stroke="forestgreen" stroke-width="2" points="433.5,-398.76 437,-408.76 440.5,-398.76 433.5,-398.76"/>
</g>
<!-- SW_x_Inst_NB -->
<g id="SW_x_Inst_NB" class="node">
<title>SW_x_Inst_NB</title>
<g id="a_SW_x_Inst_NB"><a xlink:title=" ">
<path fill="white" stroke="black" d="M439.5,-536.5C439.5,-536.5 382.5,-536.5 382.5,-536.5 376.5,-536.5 370.5,-530.5 370.5,-524.5 370.5,-524.5 370.5,-489.5 370.5,-489.5 370.5,-483.5 376.5,-477.5 382.5,-477.5 382.5,-477.5 439.5,-477.5 439.5,-477.5 445.5,-477.5 451.5,-483.5 451.5,-489.5 451.5,-489.5 451.5,-524.5 451.5,-524.5 451.5,-530.5 445.5,-536.5 439.5,-536.5"/>
<text text-anchor="middle" x="411" y="-518.3" font-family="Helvetica,sans-Serif" font-size="14.00">SW x</text>
<text text-anchor="middle" x="411" y="-503.3" font-family="Helvetica,sans-Serif" font-size="14.00">(optional)</text>
<text text-anchor="middle" x="411" y="-488.3" font-family="Helvetica,sans-Serif" font-size="14.00">Inst.</text>
</a>
</g>
</g>
<!-- NB_OS&#45;&gt;SW_x_Inst_NB -->
<g id="NB_OS___SW_x_Inst_NB" class="edge">
<title>NB_OS&#45;&gt;SW_x_Inst_NB</title>
<path fill="none" stroke="forestgreen" stroke-width="2" d="M432.59,-438.33C430.02,-446.38 426.64,-456.97 423.32,-467.38"/>
<polygon fill="forestgreen" stroke="forestgreen" stroke-width="2" points="419.89,-466.62 420.18,-477.21 426.56,-468.75 419.89,-466.62"/>
</g>
<!-- NB_OS&#45;&gt;Ctrx_Cl_Inst_NB -->
<g id="NB_OS___Ctrx_Cl_Inst_NB" class="edge">
<title>NB_OS&#45;&gt;Ctrx_Cl_Inst_NB</title>
<path fill="none" stroke="forestgreen" stroke-width="2" d="M419.33,-436.7C403.17,-447.86 378.7,-464.77 357.97,-479.09"/>
<polygon fill="forestgreen" stroke="forestgreen" stroke-width="2" points="355.88,-476.27 349.64,-484.84 359.86,-482.03 355.88,-476.27"/>
</g>
<!-- SW_a_Inst_NB -->
<g id="SW_a_Inst_NB" class="node">
<title>SW_a_Inst_NB</title>
<g id="a_SW_a_Inst_NB"><a xlink:title=" ">
<path fill="white" stroke="purple" d="M504,-529C504,-529 478,-529 478,-529 472,-529 466,-523 466,-517 466,-517 466,-497 466,-497 466,-491 472,-485 478,-485 478,-485 504,-485 504,-485 510,-485 516,-491 516,-497 516,-497 516,-517 516,-517 516,-523 510,-529 504,-529"/>
<text text-anchor="middle" x="491" y="-510.8" font-family="Helvetica,sans-Serif" font-size="14.00" fill="purple">SW a</text>
<text text-anchor="middle" x="491" y="-495.8" font-family="Helvetica,sans-Serif" font-size="14.00" fill="purple">Inst.</text>
</a>
</g>
</g>
<!-- NB_OS&#45;&gt;SW_a_Inst_NB -->
<g id="NB_OS___SW_a_Inst_NB" class="edge">
<title>NB_OS&#45;&gt;SW_a_Inst_NB</title>
<path fill="none" stroke="purple" d="M446.16,-438.33C453.01,-448.66 462.62,-463.17 471.19,-476.11"/>
<polygon fill="purple" stroke="purple" points="468.47,-478.34 476.91,-484.74 474.31,-474.47 468.47,-478.34"/>
</g>
<!-- NB_User -->
<g id="NB_User" class="node">
<title>NB_User</title>
<g id="a_NB_User"><a xlink:title=" ">
<path fill="white" stroke="black" d="M424.83,-597.5C424.83,-597.5 397.17,-597.5 397.17,-597.5 392.33,-597.5 387.5,-592.67 387.5,-587.83 387.5,-587.83 387.5,-578.17 387.5,-578.17 387.5,-573.33 392.33,-568.5 397.17,-568.5 397.17,-568.5 424.83,-568.5 424.83,-568.5 429.67,-568.5 434.5,-573.33 434.5,-578.17 434.5,-578.17 434.5,-587.83 434.5,-587.83 434.5,-592.67 429.67,-597.5 424.83,-597.5"/>
<text text-anchor="middle" x="411" y="-579.3" font-family="Helvetica,sans-Serif" font-size="14.00">User</text>
</a>
</g>
</g>
<!-- SW_x_Inst_NB&#45;&gt;NB_User -->
<g id="SW_x_Inst_NB___NB_User" class="edge">
<title>SW_x_Inst_NB&#45;&gt;NB_User</title>
<path fill="none" stroke="purple" d="M411,-536.82C411,-543.96 411,-551.52 411,-558.38"/>
<polygon fill="purple" stroke="purple" points="407.5,-558.41 411,-568.41 414.5,-558.41 407.5,-558.41"/>
</g>
<!-- Ctrx_Cl_Inst_NB&#45;&gt;NB_User -->
<g id="Ctrx_Cl_Inst_NB___NB_User" class="edge">
<title>Ctrx_Cl_Inst_NB&#45;&gt;NB_User</title>
<path fill="none" stroke="purple" d="M344.49,-529.36C350.53,-534.36 356.97,-539.65 363,-544.5 370.1,-550.22 377.87,-556.34 385.05,-561.95"/>
<polygon fill="purple" stroke="purple" points="383.08,-564.85 393.12,-568.23 387.38,-559.33 383.08,-564.85"/>
</g>
<!-- SW_a_Inst_NB&#45;&gt;NB_User -->
<g id="SW_a_Inst_NB___NB_User" class="edge">
<title>SW_a_Inst_NB&#45;&gt;NB_User</title>
<path fill="none" stroke="purple" d="M473.71,-529.09C469.11,-534.3 464.02,-539.75 459,-544.5 452.73,-550.42 445.58,-556.38 438.76,-561.75"/>
<polygon fill="purple" stroke="purple" points="436.17,-559.32 430.37,-568.18 440.43,-564.87 436.17,-559.32"/>
</g>
<!-- Std_K_Def -->
<g id="Std_K_Def" class="node">
<title>Std_K_Def</title>
<g id="a_Std_K_Def"><a xlink:title=" ">
<path fill="white" stroke="black" d="M636.83,-362C636.83,-362 621.17,-362 621.17,-362 616.33,-362 611.5,-357.17 611.5,-352.33 611.5,-352.33 611.5,-342.67 611.5,-342.67 611.5,-337.83 616.33,-333 621.17,-333 621.17,-333 636.83,-333 636.83,-333 641.67,-333 646.5,-337.83 646.5,-342.67 646.5,-342.67 646.5,-352.33 646.5,-352.33 646.5,-357.17 641.67,-362 636.83,-362"/>
<text text-anchor="middle" x="629" y="-343.8" font-family="Helvetica,sans-Serif" font-size="14.00">OS</text>
</a>
</g>
</g>
<!-- Std_K_Def&#45;&gt;NB_OS -->
<g id="Std_K_Def___NB_OS" class="edge">
<title>Std_K_Def&#45;&gt;NB_OS</title>
<path fill="none" stroke="blue" d="M611.28,-355.33C577.56,-368.33 503.97,-396.69 464.05,-412.07"/>
<polygon fill="none" stroke="blue" points="462.75,-408.83 454.68,-415.69 465.27,-415.36 462.75,-408.83"/>
</g>
<!-- SW_a_Inst -->
<g id="SW_a_Inst" class="node">
<title>SW_a_Inst</title>
<g id="a_SW_a_Inst"><a xlink:title=" ">
<path fill="white" stroke="black" d="M578,-445.5C578,-445.5 552,-445.5 552,-445.5 546,-445.5 540,-439.5 540,-433.5 540,-433.5 540,-413.5 540,-413.5 540,-407.5 546,-401.5 552,-401.5 552,-401.5 578,-401.5 578,-401.5 584,-401.5 590,-407.5 590,-413.5 590,-413.5 590,-433.5 590,-433.5 590,-439.5 584,-445.5 578,-445.5"/>
<text text-anchor="middle" x="565" y="-427.3" font-family="Helvetica,sans-Serif" font-size="14.00">SW a</text>
<text text-anchor="middle" x="565" y="-412.3" font-family="Helvetica,sans-Serif" font-size="14.00">Inst.</text>
</a>
</g>
</g>
<!-- Std_K_Def&#45;&gt;SW_a_Inst -->
<g id="Std_K_Def___SW_a_Inst" class="edge">
<title>Std_K_Def&#45;&gt;SW_a_Inst</title>
<path fill="none" stroke="forestgreen" stroke-width="2" d="M617.26,-362.07C609.6,-370.94 599.29,-382.85 589.86,-393.75"/>
<polygon fill="forestgreen" stroke="forestgreen" stroke-width="2" points="587.09,-391.6 583.2,-401.46 592.39,-396.18 587.09,-391.6"/>
</g>
<!-- SW_b_Inst -->
<g id="SW_b_Inst" class="node">
<title>SW_b_Inst</title>
<g id="a_SW_b_Inst"><a xlink:title=" ">
<path fill="white" stroke="black" d="M706.5,-445.5C706.5,-445.5 679.5,-445.5 679.5,-445.5 673.5,-445.5 667.5,-439.5 667.5,-433.5 667.5,-433.5 667.5,-413.5 667.5,-413.5 667.5,-407.5 673.5,-401.5 679.5,-401.5 679.5,-401.5 706.5,-401.5 706.5,-401.5 712.5,-401.5 718.5,-407.5 718.5,-413.5 718.5,-413.5 718.5,-433.5 718.5,-433.5 718.5,-439.5 712.5,-445.5 706.5,-445.5"/>
<text text-anchor="middle" x="693" y="-427.3" font-family="Helvetica,sans-Serif" font-size="14.00">SW b</text>
<text text-anchor="middle" x="693" y="-412.3" font-family="Helvetica,sans-Serif" font-size="14.00">Inst.</text>
</a>
</g>
</g>
<!-- Std_K_Def&#45;&gt;SW_b_Inst -->
<g id="Std_K_Def___SW_b_Inst" class="edge">
<title>Std_K_Def&#45;&gt;SW_b_Inst</title>
<path fill="none" stroke="forestgreen" stroke-width="2" d="M640.74,-362.07C648.4,-370.94 658.71,-382.85 668.14,-393.75"/>
<polygon fill="forestgreen" stroke="forestgreen" stroke-width="2" points="665.61,-396.18 674.8,-401.46 670.91,-391.6 665.61,-396.18"/>
</g>
<!-- SW_c_Inst -->
<g id="SW_c_Inst" class="node">
<title>SW_c_Inst</title>
<g id="a_SW_c_Inst"><a xlink:title=" ">
<path fill="white" stroke="black" d="M641.5,-445.5C641.5,-445.5 616.5,-445.5 616.5,-445.5 610.5,-445.5 604.5,-439.5 604.5,-433.5 604.5,-433.5 604.5,-413.5 604.5,-413.5 604.5,-407.5 610.5,-401.5 616.5,-401.5 616.5,-401.5 641.5,-401.5 641.5,-401.5 647.5,-401.5 653.5,-407.5 653.5,-413.5 653.5,-413.5 653.5,-433.5 653.5,-433.5 653.5,-439.5 647.5,-445.5 641.5,-445.5"/>
<text text-anchor="middle" x="629" y="-427.3" font-family="Helvetica,sans-Serif" font-size="14.00">SW c</text>
<text text-anchor="middle" x="629" y="-412.3" font-family="Helvetica,sans-Serif" font-size="14.00">Inst.</text>
</a>
</g>
</g>
<!-- Std_K_Def&#45;&gt;SW_c_Inst -->
<g id="Std_K_Def___SW_c_Inst" class="edge">
<title>Std_K_Def&#45;&gt;SW_c_Inst</title>
<path fill="none" stroke="forestgreen" stroke-width="2" d="M629,-362.07C629,-370.25 629,-381.02 629,-391.19"/>
<polygon fill="forestgreen" stroke="forestgreen" stroke-width="2" points="625.5,-391.46 629,-401.46 632.5,-391.46 625.5,-391.46"/>
</g>
<!-- DT_OS -->
<g id="DT_OS" class="node">
<title>DT_OS</title>
<g id="a_DT_OS"><a xlink:title=" ">
<path fill="white" stroke="black" d="M840.83,-438C840.83,-438 825.17,-438 825.17,-438 820.33,-438 815.5,-433.17 815.5,-428.33 815.5,-428.33 815.5,-418.67 815.5,-418.67 815.5,-413.83 820.33,-409 825.17,-409 825.17,-409 840.83,-409 840.83,-409 845.67,-409 850.5,-413.83 850.5,-418.67 850.5,-418.67 850.5,-428.33 850.5,-428.33 850.5,-433.17 845.67,-438 840.83,-438"/>
<text text-anchor="middle" x="833" y="-419.8" font-family="Helvetica,sans-Serif" font-size="14.00">OS</text>
</a>
</g>
</g>
<!-- Std_K_Def&#45;&gt;DT_OS -->
<g id="Std_K_Def___DT_OS" class="edge">
<title>Std_K_Def&#45;&gt;DT_OS</title>
<path fill="none" stroke="blue" d="M646.75,-354.94C682.55,-367.93 763.64,-397.34 806.03,-412.72"/>
<polygon fill="none" stroke="blue" points="804.85,-416.01 815.44,-416.13 807.23,-409.43 804.85,-416.01"/>
</g>
<!-- SW_a_Inst&#45;&gt;SW_a_Inst_NB -->
<g id="SW_a_Inst___SW_a_Inst_NB" class="edge">
<title>SW_a_Inst&#45;&gt;SW_a_Inst_NB</title>
<path fill="none" stroke="purple" d="M545.56,-445.91C536.89,-455.46 526.55,-466.85 517.21,-477.13"/>
<polygon fill="none" stroke="purple" points="514.44,-474.97 510.31,-484.73 519.63,-479.68 514.44,-474.97"/>
</g>
<!-- SW_a_Inst_DT -->
<g id="SW_a_Inst_DT" class="node">
<title>SW_a_Inst_DT</title>
<g id="a_SW_a_Inst_DT"><a xlink:title=" ">
<path fill="white" stroke="purple" d="M781,-529C781,-529 755,-529 755,-529 749,-529 743,-523 743,-517 743,-517 743,-497 743,-497 743,-491 749,-485 755,-485 755,-485 781,-485 781,-485 787,-485 793,-491 793,-497 793,-497 793,-517 793,-517 793,-523 787,-529 781,-529"/>
<text text-anchor="middle" x="768" y="-510.8" font-family="Helvetica,sans-Serif" font-size="14.00" fill="purple">SW a</text>
<text text-anchor="middle" x="768" y="-495.8" font-family="Helvetica,sans-Serif" font-size="14.00" fill="purple">Inst.</text>
</a>
</g>
</g>
<!-- SW_a_Inst&#45;&gt;SW_a_Inst_DT -->
<g id="SW_a_Inst___SW_a_Inst_DT" class="edge">
<title>SW_a_Inst&#45;&gt;SW_a_Inst_DT</title>
<path fill="none" stroke="purple" d="M586.39,-445.54C590.07,-448.48 594.01,-451.26 598,-453.5 641.3,-477.73 697.2,-492.23 732.83,-499.66"/>
<polygon fill="none" stroke="purple" points="732.27,-503.12 742.76,-501.66 733.65,-496.26 732.27,-503.12"/>
</g>
<!-- SW_b_Inst_DT -->
<g id="SW_b_Inst_DT" class="node">
<title>SW_b_Inst_DT</title>
<g id="a_SW_b_Inst_DT"><a xlink:title=" ">
<path fill="white" stroke="purple" d="M846.5,-529C846.5,-529 819.5,-529 819.5,-529 813.5,-529 807.5,-523 807.5,-517 807.5,-517 807.5,-497 807.5,-497 807.5,-491 813.5,-485 819.5,-485 819.5,-485 846.5,-485 846.5,-485 852.5,-485 858.5,-491 858.5,-497 858.5,-497 858.5,-517 858.5,-517 858.5,-523 852.5,-529 846.5,-529"/>
<text text-anchor="middle" x="833" y="-510.8" font-family="Helvetica,sans-Serif" font-size="14.00" fill="purple">SW b</text>
<text text-anchor="middle" x="833" y="-495.8" font-family="Helvetica,sans-Serif" font-size="14.00" fill="purple">Inst.</text>
</a>
</g>
</g>
<!-- SW_b_Inst&#45;&gt;SW_b_Inst_DT -->
<g id="SW_b_Inst___SW_b_Inst_DT" class="edge">
<title>SW_b_Inst&#45;&gt;SW_b_Inst_DT</title>
<path fill="none" stroke="purple" d="M718.72,-445.28C723.02,-448.26 727.53,-451.12 732,-453.5 760.29,-468.56 772.28,-461.41 800,-477.5 800.8,-477.97 801.6,-478.45 802.4,-478.96"/>
<polygon fill="none" stroke="purple" points="800.58,-481.96 810.76,-484.89 804.63,-476.25 800.58,-481.96"/>
</g>
<!-- DT_HW -->
<g id="DT_HW" class="node">
<title>DT_HW</title>
<g id="a_DT_HW"><a xlink:title=" ">
<path fill="white" stroke="black" d="M842.83,-362C842.83,-362 823.17,-362 823.17,-362 818.33,-362 813.5,-357.17 813.5,-352.33 813.5,-352.33 813.5,-342.67 813.5,-342.67 813.5,-337.83 818.33,-333 823.17,-333 823.17,-333 842.83,-333 842.83,-333 847.67,-333 852.5,-337.83 852.5,-342.67 852.5,-342.67 852.5,-352.33 852.5,-352.33 852.5,-357.17 847.67,-362 842.83,-362"/>
<text text-anchor="middle" x="833" y="-343.8" font-family="Helvetica,sans-Serif" font-size="14.00">HW</text>
</a>
</g>
</g>
<!-- DT_HW&#45;&gt;DT_OS -->
<g id="DT_HW___DT_OS" class="edge">
<title>DT_HW&#45;&gt;DT_OS</title>
<path fill="none" stroke="forestgreen" stroke-width="2" d="M833,-362.07C833,-372.23 833,-386.39 833,-398.45"/>
<polygon fill="forestgreen" stroke="forestgreen" stroke-width="2" points="829.5,-398.76 833,-408.76 836.5,-398.76 829.5,-398.76"/>
</g>
<!-- SW_z_Inst_DT -->
<g id="SW_z_Inst_DT" class="node">
<title>SW_z_Inst_DT</title>
<g id="a_SW_z_Inst_DT"><a xlink:title=" ">
<path fill="white" stroke="black" d="M941.5,-536.5C941.5,-536.5 884.5,-536.5 884.5,-536.5 878.5,-536.5 872.5,-530.5 872.5,-524.5 872.5,-524.5 872.5,-489.5 872.5,-489.5 872.5,-483.5 878.5,-477.5 884.5,-477.5 884.5,-477.5 941.5,-477.5 941.5,-477.5 947.5,-477.5 953.5,-483.5 953.5,-489.5 953.5,-489.5 953.5,-524.5 953.5,-524.5 953.5,-530.5 947.5,-536.5 941.5,-536.5"/>
<text text-anchor="middle" x="913" y="-518.3" font-family="Helvetica,sans-Serif" font-size="14.00">SW z</text>
<text text-anchor="middle" x="913" y="-503.3" font-family="Helvetica,sans-Serif" font-size="14.00">(optional)</text>
<text text-anchor="middle" x="913" y="-488.3" font-family="Helvetica,sans-Serif" font-size="14.00">Inst.</text>
</a>
</g>
</g>
<!-- DT_OS&#45;&gt;SW_z_Inst_DT -->
<g id="DT_OS___SW_z_Inst_DT" class="edge">
<title>DT_OS&#45;&gt;SW_z_Inst_DT</title>
<path fill="none" stroke="forestgreen" stroke-width="2" d="M846.57,-438.33C855.13,-447.04 866.61,-458.74 877.61,-469.95"/>
<polygon fill="forestgreen" stroke="forestgreen" stroke-width="2" points="875.24,-472.53 884.74,-477.21 880.23,-467.62 875.24,-472.53"/>
</g>
<!-- DT_OS&#45;&gt;SW_a_Inst_DT -->
<g id="DT_OS___SW_a_Inst_DT" class="edge">
<title>DT_OS&#45;&gt;SW_a_Inst_DT</title>
<path fill="none" stroke="purple" d="M821.97,-438.33C813.58,-448.86 801.71,-463.73 791.25,-476.85"/>
<polygon fill="purple" stroke="purple" points="788.45,-474.74 784.96,-484.74 793.93,-479.1 788.45,-474.74"/>
</g>
<!-- DT_OS&#45;&gt;SW_b_Inst_DT -->
<g id="DT_OS___SW_b_Inst_DT" class="edge">
<title>DT_OS&#45;&gt;SW_b_Inst_DT</title>
<path fill="none" stroke="purple" d="M833,-438.33C833,-448.26 833,-462.06 833,-474.61"/>
<polygon fill="purple" stroke="purple" points="829.5,-474.74 833,-484.74 836.5,-474.74 829.5,-474.74"/>
</g>
<!-- SW_c_Inst_DT -->
<g id="SW_c_Inst_DT" class="node">
<title>SW_c_Inst_DT</title>
<g id="a_SW_c_Inst_DT"><a xlink:title=" ">
<path fill="white" stroke="purple" d="M1004.5,-529C1004.5,-529 979.5,-529 979.5,-529 973.5,-529 967.5,-523 967.5,-517 967.5,-517 967.5,-497 967.5,-497 967.5,-491 973.5,-485 979.5,-485 979.5,-485 1004.5,-485 1004.5,-485 1010.5,-485 1016.5,-491 1016.5,-497 1016.5,-497 1016.5,-517 1016.5,-517 1016.5,-523 1010.5,-529 1004.5,-529"/>
<text text-anchor="middle" x="992" y="-510.8" font-family="Helvetica,sans-Serif" font-size="14.00" fill="purple">SW c</text>
<text text-anchor="middle" x="992" y="-495.8" font-family="Helvetica,sans-Serif" font-size="14.00" fill="purple">Inst.</text>
</a>
</g>
</g>
<!-- DT_OS&#45;&gt;SW_c_Inst_DT -->
<g id="DT_OS___SW_c_Inst_DT" class="edge">
<title>DT_OS&#45;&gt;SW_c_Inst_DT</title>
<path fill="none" stroke="purple" d="M850.92,-429.71C876.59,-437.66 924.71,-454.34 961,-477.5 961.52,-477.83 962.04,-478.17 962.56,-478.52"/>
<polygon fill="purple" stroke="purple" points="960.69,-481.49 970.77,-484.74 964.91,-475.91 960.69,-481.49"/>
</g>
<!-- SW_a_Prod -->
<g id="SW_a_Prod" class="node">
<title>SW_a_Prod</title>
<g id="a_SW_a_Prod"><a xlink:title=" ">
<path fill="white" stroke="black" d="M482.5,-268.5C482.5,-268.5 439.5,-268.5 439.5,-268.5 433.5,-268.5 427.5,-262.5 427.5,-256.5 427.5,-256.5 427.5,-236.5 427.5,-236.5 427.5,-230.5 433.5,-224.5 439.5,-224.5 439.5,-224.5 482.5,-224.5 482.5,-224.5 488.5,-224.5 494.5,-230.5 494.5,-236.5 494.5,-236.5 494.5,-256.5 494.5,-256.5 494.5,-262.5 488.5,-268.5 482.5,-268.5"/>
<text text-anchor="middle" x="461" y="-250.3" font-family="Helvetica,sans-Serif" font-size="14.00">SW a</text>
<text text-anchor="middle" x="461" y="-235.3" font-family="Helvetica,sans-Serif" font-size="14.00">Product</text>
</a>
</g>
</g>
<!-- SW_a_Prod&#45;&gt;SW_a_image -->
<g id="SW_a_Prod___SW_a_image" class="edge">
<title>SW_a_Prod&#45;&gt;SW_a_image</title>
<path fill="none" stroke="blue" d="M427.22,-253.33C388.29,-260.83 322.99,-275.86 271,-300 259.65,-305.27 248.11,-312.37 237.85,-319.43"/>
<polygon fill="none" stroke="blue" points="235.68,-316.68 229.55,-325.32 239.73,-322.39 235.68,-316.68"/>
</g>
<!-- SW_a_Prod&#45;&gt;SW_a_Inst -->
<g id="SW_a_Prod___SW_a_Inst" class="edge">
<title>SW_a_Prod&#45;&gt;SW_a_Inst</title>
<path fill="none" stroke="blue" d="M494.76,-268.26C506.38,-276.83 518.57,-287.67 527,-300 545.89,-327.62 555.7,-365.03 560.58,-391.22"/>
<polygon fill="none" stroke="blue" points="557.17,-392.09 562.32,-401.35 564.07,-390.9 557.17,-392.09"/>
</g>
<!-- instance -->
<g id="instance" class="node">
<title>instance</title>
<g id="a_instance"><a xlink:title=" ">
<path fill="white" stroke="transparent" d="M614.67,-75.5C614.67,-75.5 575.33,-75.5 575.33,-75.5 571.17,-75.5 567,-71.33 567,-67.17 567,-67.17 567,-58.83 567,-58.83 567,-54.67 571.17,-50.5 575.33,-50.5 575.33,-50.5 614.67,-50.5 614.67,-50.5 618.83,-50.5 623,-54.67 623,-58.83 623,-58.83 623,-67.17 623,-67.17 623,-71.33 618.83,-75.5 614.67,-75.5"/>
<text text-anchor="middle" x="595" y="-60.5" font-family="Helvetica,sans-Serif" font-size="10.00">instance</text>
</a>
</g>
</g>
<!-- blueprint -->
<g id="blueprint" class="node">
<title>blueprint</title>
<g id="a_blueprint"><a xlink:title=" ">
<path fill="white" stroke="transparent" d="M489.67,-75.5C489.67,-75.5 448.33,-75.5 448.33,-75.5 444.17,-75.5 440,-71.33 440,-67.17 440,-67.17 440,-58.83 440,-58.83 440,-54.67 444.17,-50.5 448.33,-50.5 448.33,-50.5 489.67,-50.5 489.67,-50.5 493.83,-50.5 498,-54.67 498,-58.83 498,-58.83 498,-67.17 498,-67.17 498,-71.33 493.83,-75.5 489.67,-75.5"/>
<text text-anchor="middle" x="469" y="-60.5" font-family="Helvetica,sans-Serif" font-size="10.00">blueprint</text>
</a>
</g>
</g>
<!-- blueprint&#45;&gt;instance -->
<g id="blueprint___instance" class="edge">
<title>blueprint&#45;&gt;instance</title>
<path fill="none" stroke="blue" d="M498.22,-63C515.64,-63 537.96,-63 556.77,-63"/>
<polygon fill="none" stroke="blue" points="556.8,-66.5 566.8,-63 556.8,-59.5 556.8,-66.5"/>
<text text-anchor="start" x="505" y="-43" font-family="Times,serif" font-style="italic" font-size="10.00">realized as</text>
</g>
<!-- conclusion -->
<g id="conclusion" class="node">
<title>conclusion</title>
<g id="a_conclusion"><a xlink:title=" ">
<path fill="white" stroke="purple" d="M950.67,-75.5C950.67,-75.5 901.33,-75.5 901.33,-75.5 897.17,-75.5 893,-71.33 893,-67.17 893,-67.17 893,-58.83 893,-58.83 893,-54.67 897.17,-50.5 901.33,-50.5 901.33,-50.5 950.67,-50.5 950.67,-50.5 954.83,-50.5 959,-54.67 959,-58.83 959,-58.83 959,-67.17 959,-67.17 959,-71.33 954.83,-75.5 950.67,-75.5"/>
<text text-anchor="middle" x="926" y="-60.5" font-family="Helvetica,sans-Serif" font-size="10.00" fill="purple">conclusion</text>
</a>
</g>
</g>
<!-- inference_base -->
<!-- inference_base&#45;&gt;conclusion -->
<g id="inference_base___conclusion" class="edge">
<title>inference_base&#45;&gt;conclusion</title>
<path fill="none" stroke="purple" d="M849.06,-63C850.11,-63 865.83,-63 882.8,-63"/>
<polygon fill="purple" stroke="purple" points="882.83,-66.5 892.83,-63 882.83,-59.5 882.83,-66.5"/>
<text text-anchor="start" x="856" y="-43" font-family="Times,serif" font-style="italic" font-size="10.00">infers</text>
</g>
<!-- provider -->
<g id="provider" class="node">
<title>provider</title>
<g id="a_provider"><a xlink:title=" ">
<path fill="white" stroke="transparent" d="M1123.17,-75.5C1123.17,-75.5 1084.83,-75.5 1084.83,-75.5 1080.67,-75.5 1076.5,-71.33 1076.5,-67.17 1076.5,-67.17 1076.5,-58.83 1076.5,-58.83 1076.5,-54.67 1080.67,-50.5 1084.83,-50.5 1084.83,-50.5 1123.17,-50.5 1123.17,-50.5 1127.33,-50.5 1131.5,-54.67 1131.5,-58.83 1131.5,-58.83 1131.5,-67.17 1131.5,-67.17 1131.5,-71.33 1127.33,-75.5 1123.17,-75.5"/>
<text text-anchor="start" x="1083.5" y="-61.5" font-family="Helvetica,sans-Serif" font-style="italic" font-size="10.00">provider</text>
</a>
</g>
</g>
<!-- consumer -->
<g id="consumer" class="node">
<title>consumer</title>
<g id="a_consumer"><a xlink:title=" ">
<path fill="white" stroke="transparent" d="M1127.17,-595.5C1127.17,-595.5 1080.83,-595.5 1080.83,-595.5 1076.67,-595.5 1072.5,-591.33 1072.5,-587.17 1072.5,-587.17 1072.5,-578.83 1072.5,-578.83 1072.5,-574.67 1076.67,-570.5 1080.83,-570.5 1080.83,-570.5 1127.17,-570.5 1127.17,-570.5 1131.33,-570.5 1135.5,-574.67 1135.5,-578.83 1135.5,-578.83 1135.5,-587.17 1135.5,-587.17 1135.5,-591.33 1131.33,-595.5 1127.17,-595.5"/>
<text text-anchor="start" x="1079.5" y="-581.5" font-family="Helvetica,sans-Serif" font-style="italic" font-size="10.00">consumer</text>
</a>
</g>
</g>
<!-- provider&#45;&gt;consumer -->
<g id="provider___consumer" class="edge">
<title>provider&#45;&gt;consumer</title>
<path fill="none" stroke="forestgreen" stroke-width="2" d="M1104,-75.58C1104,-94.07 1104,-131.38 1104,-163 1104,-163 1104,-163 1104,-508 1104,-525.61 1104,-545.57 1104,-560.33"/>
<polygon fill="forestgreen" stroke="forestgreen" stroke-width="2" points="1100.5,-560.46 1104,-570.46 1107.5,-560.46 1100.5,-560.46"/>
<text text-anchor="start" x="1104" y="-350.5" font-family="Times,serif" font-style="italic" font-size="10.00">  supports</text>
<text text-anchor="start" x="1104" y="-340.5" font-family="Times,serif" font-style="italic" font-size="10.00">  / impacts</text>
</g>
</g>
</svg>
