<?xml version="1.0" encoding="UTF-8" standalone="no"?>
<?xml-stylesheet type="text/css" href="../lib/graph.css"?>
<!DOCTYPE svg PUBLIC "-//W3C//DTD SVG 1.1//EN"
 "http://www.w3.org/Graphics/SVG/1.1/DTD/svg11.dtd">
<!-- Generated by graphviz version 2.40.1 (20161225.0304)
 -->
<!-- Title: %3 Pages: 1 -->
<svg width="100%" 
 viewBox="0.00 0.00 579.00 436.00" xmlns="http://www.w3.org/2000/svg" xmlns:xlink="http://www.w3.org/1999/xlink">
<script xlink:href="../lib/graph.js" type="text/ecmascript" />
<title>K - I - D - A - K</title>
<g id="graph0" class="graph" transform="scale(1 1) rotate(0) translate(4 432)">
<title>%3</title>
<g id="a_graph0"><a xlink:title=" " target="details">
<polygon fill="#ffffff" stroke="transparent" points="-4,4 -4,-432 575,-432 575,4 -4,4"/>
</a>
</g>
<!-- CEP&#45;15 -->
<g id="CEP&#45;15" class="node">
<title>CEP&#45;15</title>
<g id="a_CEP&#45;15"><a xlink:href="https://wissenswandler.atlassian.net/browse/CEP-15" xlink:title="Knowledge can be made explicit by its holder, e.g. by reflection or discussion.&#13;&#10;&#13;&#10;&#13;&#10;This explicit knowledge can be transmitted as information either verbally, physically (notes) or in digital form (so called _data entry_).&#13;&#10;&#13;&#10;&#13;&#10;In the context of this pattern, this is one of the initial (or input&#45;) knowledge for the remaining flow.&#13;&#10;&#13;&#10;&#13;&#10;Once recorded there is a good chance to reproduce the initial knowledge, through the following flow, even if the initial knowledge would be lost later." target="details">
<path fill="#ffffff" stroke="#000000" stroke-dasharray="5,2" d="M108,-63.5C108,-63.5 12,-63.5 12,-63.5 6,-63.5 0,-57.5 0,-51.5 0,-51.5 0,-20.5 0,-20.5 0,-14.5 6,-8.5 12,-8.5 12,-8.5 108,-8.5 108,-8.5 114,-8.5 120,-14.5 120,-20.5 120,-20.5 120,-51.5 120,-51.5 120,-57.5 114,-63.5 108,-63.5"/>
<g id="a_CEP&#45;15_0"><a xlink:href="https://wissenswandler.atlassian.net/issues/?jql=type=%22Wissen%22+ORDER+BY+summary" xlink:title="Knowledge can be made explicit by its holder, e.g. by reflection or discussion.&#13;&#10;&#13;&#10;&#13;&#10;This explicit knowledge can be transmitted as information either verbally, physically (notes) or in digital form (so called _data entry_).&#13;&#10;&#13;&#10;&#13;&#10;In the context of this pattern, this is one of the initial (or input&#45;) knowledge for the remaining flow.&#13;&#10;&#13;&#10;&#13;&#10;Once recorded there is a good chance to reproduce the initial knowledge, through the following flow, even if the initial knowledge would be lost later." target="details">
<image xlink:href="../img/avatar--10322.png" width="25px" height="24px" preserveAspectRatio="xMinYMin meet" x="9" y="-54"/>
</a>
</g>
<text text-anchor="start" x="38" y="-39.3" font-family="Helvetica,sans-Serif" font-weight="bold" font-size="14.00" fill="#000000">Knowledge</text>
<g id="a_CEP&#45;15_1"><a xlink:href="https://wissenswandler.atlassian.net/issues/?jql=type=%22Wissen%22+ORDER+BY+summary" xlink:title="Knowledge can be made explicit by its holder, e.g. by reflection or discussion.&#13;&#10;&#13;&#10;&#13;&#10;This explicit knowledge can be transmitted as information either verbally, physically (notes) or in digital form (so called _data entry_).&#13;&#10;&#13;&#10;&#13;&#10;In the context of this pattern, this is one of the initial (or input&#45;) knowledge for the remaining flow.&#13;&#10;&#13;&#10;&#13;&#10;Once recorded there is a good chance to reproduce the initial knowledge, through the following flow, even if the initial knowledge would be lost later." target="details">
<text text-anchor="start" x="9" y="-20.6" font-family="Helvetica,sans-Serif" font-style="italic" font-size="8.00" fill="#000000">Wissen</text>
</a>
</g>
<text text-anchor="start" x="48" y="-19.6" font-family="Helvetica,sans-Serif" font-size="8.00" fill="#000000">retired</text>
<text text-anchor="start" x="82" y="-19.6" font-family="Helvetica,sans-Serif" font-size="8.00" fill="#000000">CEP&#45;15</text>
</a>
</g>
</g>
<!-- CEP&#45;16 -->
<g id="CEP&#45;16" class="node">
<title>CEP&#45;16</title>
<g id="a_CEP&#45;16"><a xlink:href="https://wissenswandler.atlassian.net/browse/CEP-16" xlink:title="Information is always the (implicit) basis for data in any form (documents, records...). That is because documents and records encode information, ultimately in some physical way (e.g. dots of ink on paper, or magnetic state on disks or tape).&#13;&#10;&#13;&#10;Therefore, data _*implements*_ the information which is contained in that data.&#13;&#10;&#13;&#10;Information may be gathered from humans&#39; knowledge. In that case, the *information* state is typically transient on its way from *knowledge* to *data* (while it gets _documented_ or _recorded_).&#13;&#10;&#13;&#10;In more trivial cases, information is received from information systems via documents or records. Also in these cases the information state does not appear explicitly or technically. Often it can be recognized only in the schema (of records), the layout (of documents) or in a machine&#39;s algorithm." target="details">
<path fill="#ffffff" stroke="#000000" d="M185,-152.5C185,-152.5 73,-152.5 73,-152.5 67,-152.5 61,-146.5 61,-140.5 61,-140.5 61,-109.5 61,-109.5 61,-103.5 67,-97.5 73,-97.5 73,-97.5 185,-97.5 185,-97.5 191,-97.5 197,-103.5 197,-109.5 197,-109.5 197,-140.5 197,-140.5 197,-146.5 191,-152.5 185,-152.5"/>
<g id="a_CEP&#45;16_2"><a xlink:href="https://wissenswandler.atlassian.net/issues/?jql=type=%22Information%22+ORDER+BY+summary" xlink:title="Information is always the (implicit) basis for data in any form (documents, records...). That is because documents and records encode information, ultimately in some physical way (e.g. dots of ink on paper, or magnetic state on disks or tape).&#13;&#10;&#13;&#10;Therefore, data _*implements*_ the information which is contained in that data.&#13;&#10;&#13;&#10;Information may be gathered from humans&#39; knowledge. In that case, the *information* state is typically transient on its way from *knowledge* to *data* (while it gets _documented_ or _recorded_).&#13;&#10;&#13;&#10;In more trivial cases, information is received from information systems via documents or records. Also in these cases the information state does not appear explicitly or technically. Often it can be recognized only in the schema (of records), the layout (of documents) or in a machine&#39;s algorithm." target="details">
<image xlink:href="../img/avatar--10526.png" width="31px" height="24px" preserveAspectRatio="xMinYMin meet" x="70" y="-143"/>
</a>
</g>
<text text-anchor="start" x="108.5" y="-128.3" font-family="Helvetica,sans-Serif" font-weight="bold" font-size="14.00" fill="#000000">Information</text>
<g id="a_CEP&#45;16_3"><a xlink:href="https://wissenswandler.atlassian.net/issues/?jql=type=%22Information%22+ORDER+BY+summary" xlink:title="Information is always the (implicit) basis for data in any form (documents, records...). That is because documents and records encode information, ultimately in some physical way (e.g. dots of ink on paper, or magnetic state on disks or tape).&#13;&#10;&#13;&#10;Therefore, data _*implements*_ the information which is contained in that data.&#13;&#10;&#13;&#10;Information may be gathered from humans&#39; knowledge. In that case, the *information* state is typically transient on its way from *knowledge* to *data* (while it gets _documented_ or _recorded_).&#13;&#10;&#13;&#10;In more trivial cases, information is received from information systems via documents or records. Also in these cases the information state does not appear explicitly or technically. Often it can be recognized only in the schema (of records), the layout (of documents) or in a machine&#39;s algorithm." target="details">
<text text-anchor="start" x="70" y="-109.6" font-family="Helvetica,sans-Serif" font-style="italic" font-size="8.00" fill="#000000">Information</text>
</a>
</g>
<text text-anchor="start" x="115" y="-108.6" font-family="Helvetica,sans-Serif" font-size="8.00" fill="#000000">operational</text>
<text text-anchor="start" x="159" y="-108.6" font-family="Helvetica,sans-Serif" font-size="8.00" fill="#000000">CEP&#45;16</text>
</a>
</g>
</g>
<!-- CEP&#45;15&#45;&gt;CEP&#45;16 -->
<g id="CEP&#45;15___CEP&#45;16" class="edge">
<title>CEP&#45;15&#45;&gt;CEP&#45;16</title>
<g id="a_CEP&#45;15___CEP&#45;16"><a xlink:href="https://wissenswandler.atlassian.net/issues/?jql=key+in+(CEP-16,CEP-15)" xlink:title="Knowledge → unterstützt &#160;→ Information → benötigt &#160;↩" target="details">
<path fill="none" stroke="#228b22" stroke-width="2" d="M81.4538,-63.6723C87.7495,-71.7929 94.725,-80.7902 101.3494,-89.3348"/>
<polygon fill="#228b22" stroke="#228b22" stroke-width="2" points="98.6662,-91.5862 107.5595,-97.3448 104.1984,-87.2972 98.6662,-91.5862"/>
</a>
</g>
</g>
<!-- CEP&#45;20 -->
<g id="CEP&#45;20" class="node">
<title>CEP&#45;20</title>
<g id="a_CEP&#45;20"><a xlink:href="https://wissenswandler.atlassian.net/browse/CEP-20" xlink:title="acquired knowledge, hopefully represents the initial knowledge well enough&#13;&#10;&#13;&#10;Knowledge can be defined as&#13;&#10;bq. the capability to solve a task with the help of information" target="details">
<path fill="#ffffff" stroke="#000000" stroke-dasharray="1,5" d="M227,-419.5C227,-419.5 131,-419.5 131,-419.5 125,-419.5 119,-413.5 119,-407.5 119,-407.5 119,-376.5 119,-376.5 119,-370.5 125,-364.5 131,-364.5 131,-364.5 227,-364.5 227,-364.5 233,-364.5 239,-370.5 239,-376.5 239,-376.5 239,-407.5 239,-407.5 239,-413.5 233,-419.5 227,-419.5"/>
<g id="a_CEP&#45;20_4"><a xlink:href="https://wissenswandler.atlassian.net/issues/?jql=type=%22Wissen%22+ORDER+BY+summary" xlink:title="acquired knowledge, hopefully represents the initial knowledge well enough&#13;&#10;&#13;&#10;Knowledge can be defined as&#13;&#10;bq. the capability to solve a task with the help of information" target="details">
<image xlink:href="../img/avatar--10322.png" width="25px" height="24px" preserveAspectRatio="xMinYMin meet" x="128" y="-410"/>
</a>
</g>
<text text-anchor="start" x="157" y="-395.3" font-family="Helvetica,sans-Serif" font-weight="bold" font-size="14.00" fill="#000000">Knowledge</text>
<g id="a_CEP&#45;20_5"><a xlink:href="https://wissenswandler.atlassian.net/issues/?jql=type=%22Wissen%22+ORDER+BY+summary" xlink:title="acquired knowledge, hopefully represents the initial knowledge well enough&#13;&#10;&#13;&#10;Knowledge can be defined as&#13;&#10;bq. the capability to solve a task with the help of information" target="details">
<text text-anchor="start" x="128" y="-376.6" font-family="Helvetica,sans-Serif" font-style="italic" font-size="8.00" fill="#000000">Wissen</text>
</a>
</g>
<text text-anchor="start" x="164" y="-375.6" font-family="Helvetica,sans-Serif" font-size="8.00" fill="#000000">planned</text>
<text text-anchor="start" x="201" y="-375.6" font-family="Helvetica,sans-Serif" font-size="8.00" fill="#000000">CEP&#45;20</text>
</a>
</g>
</g>
<!-- CEP&#45;15&#45;&gt;CEP&#45;20 -->
<g id="CEP&#45;15___CEP&#45;20" class="edge">
<title>CEP&#45;15&#45;&gt;CEP&#45;20</title>
<g id="a_CEP&#45;15___CEP&#45;20"><a xlink:href="https://wissenswandler.atlassian.net/issues/?jql=key+in+(CEP-20,CEP-15)" xlink:title="Knowledge → = &#160;→ Knowledge → = &#160;↩" target="details">
<path fill="none" stroke="#c0c0c0" stroke-width="2" d="M46.5459,-71.2185C41.5161,-87.3616 37,-106.8965 37,-125 37,-125 37,-125 37,-303 37,-341.2994 74.5459,-363.7435 111.025,-376.5115"/>
<ellipse fill="none" stroke="#c0c0c0" stroke-width="2" cx="47.7967" cy="-67.3896" rx="4" ry="4"/>
<ellipse fill="none" stroke="#c0c0c0" stroke-width="2" cx="114.9838" cy="-377.8286" rx="4" ry="4"/>
</a>
</g>
<g id="a_CEP&#45;15___CEP&#45;20&#45;label"><a xlink:href="https://wissenswandler.atlassian.net/issues/?jql=key+in+(CEP-20,CEP-15)" xlink:title="Knowledge → = &#160;→ Knowledge → = &#160;↩" target="details">
<text text-anchor="middle" x="40" y="-211.5" font-family="Times,serif" font-size="10.00" fill="#000000">≡</text>
</a>
</g>
</g>
<!-- CEP&#45;17 -->
<g id="CEP&#45;17" class="node">
<title>CEP&#45;17</title>
<g id="a_CEP&#45;17"><a xlink:href="https://wissenswandler.atlassian.net/browse/CEP-17" xlink:title="Data in document form &#45; either physical (e.g. printed paper) or digital (e.g. PDF file), typically meant for use by a human.&#13;&#10;&#13;&#10;&#13;&#10;Records are machine&#45;readable equivalents of documents. &#160;&#13;&#10;&#13;&#10;&#13;&#10;Some machines can read some types of documents. In those cases it is typically a specialized machine (so called _reader_) for a particular type of document (e.g. _Adobe Reader_).&#13;&#10;&#13;&#10;&#13;&#10;In the case of a digital document it is always a _machine_ (more precisely a *_system_* of hardware, software and an output device) through which a human can read the document. _Details of this case are left out from the diagram for clarity. These details can be represented as an expansion of the *edge* leading from *document* to *human*._" target="details">
<path fill="#ffffff" stroke="#000000" d="M349,-241.5C349,-241.5 241,-241.5 241,-241.5 235,-241.5 229,-235.5 229,-229.5 229,-229.5 229,-198.5 229,-198.5 229,-192.5 235,-186.5 241,-186.5 241,-186.5 349,-186.5 349,-186.5 355,-186.5 361,-192.5 361,-198.5 361,-198.5 361,-229.5 361,-229.5 361,-235.5 355,-241.5 349,-241.5"/>
<g id="a_CEP&#45;17_6"><a xlink:href="https://wissenswandler.atlassian.net/issues/?jql=type=%22Dokument%22+ORDER+BY+summary" xlink:title="Data in document form &#45; either physical (e.g. printed paper) or digital (e.g. PDF file), typically meant for use by a human.&#13;&#10;&#13;&#10;&#13;&#10;Records are machine&#45;readable equivalents of documents. &#160;&#13;&#10;&#13;&#10;&#13;&#10;Some machines can read some types of documents. In those cases it is typically a specialized machine (so called _reader_) for a particular type of document (e.g. _Adobe Reader_).&#13;&#10;&#13;&#10;&#13;&#10;In the case of a digital document it is always a _machine_ (more precisely a *_system_* of hardware, software and an output device) through which a human can read the document. _Details of this case are left out from the diagram for clarity. These details can be represented as an expansion of the *edge* leading from *document* to *human*._" target="details">
<image xlink:href="../img/avatar--10306.png" width="30px" height="24px" preserveAspectRatio="xMinYMin meet" x="238" y="-232"/>
</a>
</g>
<text text-anchor="start" x="278.5" y="-217.3" font-family="Helvetica,sans-Serif" font-weight="bold" font-size="14.00" fill="#000000">Document</text>
<g id="a_CEP&#45;17_7"><a xlink:href="https://wissenswandler.atlassian.net/issues/?jql=type=%22Dokument%22+ORDER+BY+summary" xlink:title="Data in document form &#45; either physical (e.g. printed paper) or digital (e.g. PDF file), typically meant for use by a human.&#13;&#10;&#13;&#10;&#13;&#10;Records are machine&#45;readable equivalents of documents. &#160;&#13;&#10;&#13;&#10;&#13;&#10;Some machines can read some types of documents. In those cases it is typically a specialized machine (so called _reader_) for a particular type of document (e.g. _Adobe Reader_).&#13;&#10;&#13;&#10;&#13;&#10;In the case of a digital document it is always a _machine_ (more precisely a *_system_* of hardware, software and an output device) through which a human can read the document. _Details of this case are left out from the diagram for clarity. These details can be represented as an expansion of the *edge* leading from *document* to *human*._" target="details">
<text text-anchor="start" x="238" y="-198.6" font-family="Helvetica,sans-Serif" font-style="italic" font-size="8.00" fill="#000000">Dokument</text>
</a>
</g>
<text text-anchor="start" x="279" y="-197.6" font-family="Helvetica,sans-Serif" font-size="8.00" fill="#000000">operational</text>
<text text-anchor="start" x="323" y="-197.6" font-family="Helvetica,sans-Serif" font-size="8.00" fill="#000000">CEP&#45;17</text>
</a>
</g>
</g>
<!-- CEP&#45;16&#45;&gt;CEP&#45;17 -->
<g id="CEP&#45;16___CEP&#45;17" class="edge">
<title>CEP&#45;16&#45;&gt;CEP&#45;17</title>
<g id="a_CEP&#45;16___CEP&#45;17"><a xlink:href="https://wissenswandler.atlassian.net/issues/?jql=key+in+(CEP-17,CEP-16)" xlink:title="Information → ist Vorlage für △ → Document → realisiert Vorlage ▼ (UML △) ↩" target="details">
<path fill="none" stroke="#0000ff" d="M180.6135,-152.6723C197.7145,-161.8409 216.9003,-172.1273 234.6014,-181.6176"/>
<polygon fill="none" stroke="#0000ff" points="233.2367,-184.8572 243.7037,-186.4978 236.5443,-178.6879 233.2367,-184.8572"/>
</a>
</g>
</g>
<!-- CEP&#45;18 -->
<g id="CEP&#45;18" class="node">
<title>CEP&#45;18</title>
<g id="a_CEP&#45;18"><a xlink:href="https://wissenswandler.atlassian.net/browse/CEP-18" xlink:title="Records are technical structures for storing information.&#13;&#10;&#13;&#10;&#13;&#10;Records are machine&#45;readable equivalents of documents.&#13;&#10;&#13;&#10;&#13;&#10;Records are typically read and processed by machines.&#13;&#10;&#13;&#10;&#13;&#10;_Depending on the level of encoding, some higher&#45;level records might by readable for humans if they can be serialized to text. Strictly that would be the case of a (text&#45;)document with a structure that is very close to the record &#45; but not the record itself._" target="details">
<path fill="#ffffff" stroke="#000000" d="M189,-241.5C189,-241.5 69,-241.5 69,-241.5 63,-241.5 57,-235.5 57,-229.5 57,-229.5 57,-198.5 57,-198.5 57,-192.5 63,-186.5 69,-186.5 69,-186.5 189,-186.5 189,-186.5 195,-186.5 201,-192.5 201,-198.5 201,-198.5 201,-229.5 201,-229.5 201,-235.5 195,-241.5 189,-241.5"/>
<g id="a_CEP&#45;18_8"><a xlink:href="https://wissenswandler.atlassian.net/issues/?jql=type=%22Datensatz%22+ORDER+BY+summary" xlink:title="Records are technical structures for storing information.&#13;&#10;&#13;&#10;&#13;&#10;Records are machine&#45;readable equivalents of documents.&#13;&#10;&#13;&#10;&#13;&#10;Records are typically read and processed by machines.&#13;&#10;&#13;&#10;&#13;&#10;_Depending on the level of encoding, some higher&#45;level records might by readable for humans if they can be serialized to text. Strictly that would be the case of a (text&#45;)document with a structure that is very close to the record &#45; but not the record itself._" target="details">
<image xlink:href="../img/avatar--10300.png" width="30px" height="24px" preserveAspectRatio="xMinYMin meet" x="66" y="-232"/>
</a>
</g>
<text text-anchor="start" x="100" y="-217.3" font-family="Helvetica,sans-Serif" font-weight="bold" font-size="14.00" fill="#000000">Data (records)</text>
<g id="a_CEP&#45;18_9"><a xlink:href="https://wissenswandler.atlassian.net/issues/?jql=type=%22Datensatz%22+ORDER+BY+summary" xlink:title="Records are technical structures for storing information.&#13;&#10;&#13;&#10;&#13;&#10;Records are machine&#45;readable equivalents of documents.&#13;&#10;&#13;&#10;&#13;&#10;Records are typically read and processed by machines.&#13;&#10;&#13;&#10;&#13;&#10;_Depending on the level of encoding, some higher&#45;level records might by readable for humans if they can be serialized to text. Strictly that would be the case of a (text&#45;)document with a structure that is very close to the record &#45; but not the record itself._" target="details">
<text text-anchor="start" x="66" y="-198.6" font-family="Helvetica,sans-Serif" font-style="italic" font-size="8.00" fill="#000000">Datensatz</text>
</a>
</g>
<text text-anchor="start" x="114.5" y="-197.6" font-family="Helvetica,sans-Serif" font-size="8.00" fill="#000000">operational</text>
<text text-anchor="start" x="163" y="-197.6" font-family="Helvetica,sans-Serif" font-size="8.00" fill="#000000">CEP&#45;18</text>
</a>
</g>
</g>
<!-- CEP&#45;16&#45;&gt;CEP&#45;18 -->
<g id="CEP&#45;16___CEP&#45;18" class="edge">
<title>CEP&#45;16&#45;&gt;CEP&#45;18</title>
<g id="a_CEP&#45;16___CEP&#45;18"><a xlink:href="https://wissenswandler.atlassian.net/issues/?jql=key+in+(CEP-18,CEP-16)" xlink:title="Information → ist Vorlage für △ → Data (records) → realisiert Vorlage ▼ (UML △) ↩" target="details">
<path fill="none" stroke="#0000ff" d="M129,-152.6723C129,-160.1231 129,-168.3121 129,-176.2122"/>
<polygon fill="none" stroke="#0000ff" points="125.5001,-176.3448 129,-186.3448 132.5001,-176.3449 125.5001,-176.3448"/>
</a>
</g>
</g>
<!-- CEP&#45;22 -->
<g id="CEP&#45;22" class="node">
<title>CEP&#45;22</title>
<g id="a_CEP&#45;22"><a xlink:href="https://wissenswandler.atlassian.net/browse/CEP-22" xlink:title="humans can learn in at least two different ways:&#13;&#10;# by reading a document and decoding it into information (on the fly) *_if_* that human is capable of reading that document (in terms of language, education and other factors of context)&#13;&#10;# by performing an action &#13;&#10;## autodidactic = discovering knowledge through experiments (not shown in this model)&#13;&#10;## guided by an instructor = along a proven path based on instructor&#39;s knowledge about the topic (as presented here in this model)" target="details">
<path fill="#ffffff" stroke="#000000" d="M361.5,-330.5C361.5,-330.5 242.5,-330.5 242.5,-330.5 236.5,-330.5 230.5,-324.5 230.5,-318.5 230.5,-318.5 230.5,-287.5 230.5,-287.5 230.5,-281.5 236.5,-275.5 242.5,-275.5 242.5,-275.5 361.5,-275.5 361.5,-275.5 367.5,-275.5 373.5,-281.5 373.5,-287.5 373.5,-287.5 373.5,-318.5 373.5,-318.5 373.5,-324.5 367.5,-330.5 361.5,-330.5"/>
<g id="a_CEP&#45;22_10"><a xlink:href="https://wissenswandler.atlassian.net/issues/?jql=type=%22Person%22+ORDER+BY+summary" xlink:title="humans can learn in at least two different ways:&#13;&#10;# by reading a document and decoding it into information (on the fly) *_if_* that human is capable of reading that document (in terms of language, education and other factors of context)&#13;&#10;# by performing an action &#13;&#10;## autodidactic = discovering knowledge through experiments (not shown in this model)&#13;&#10;## guided by an instructor = along a proven path based on instructor&#39;s knowledge about the topic (as presented here in this model)" target="details">
<image xlink:href="../img/avatar--10309.png" width="25px" height="24px" preserveAspectRatio="xMinYMin meet" x="240" y="-321"/>
</a>
</g>
<text text-anchor="start" x="269" y="-306.3" font-family="Helvetica,sans-Serif" font-weight="bold" font-size="14.00" fill="#000000">Human (agent)</text>
<g id="a_CEP&#45;22_11"><a xlink:href="https://wissenswandler.atlassian.net/issues/?jql=type=%22Person%22+ORDER+BY+summary" xlink:title="humans can learn in at least two different ways:&#13;&#10;# by reading a document and decoding it into information (on the fly) *_if_* that human is capable of reading that document (in terms of language, education and other factors of context)&#13;&#10;# by performing an action &#13;&#10;## autodidactic = discovering knowledge through experiments (not shown in this model)&#13;&#10;## guided by an instructor = along a proven path based on instructor&#39;s knowledge about the topic (as presented here in this model)" target="details">
<text text-anchor="start" x="240" y="-287.6" font-family="Helvetica,sans-Serif" font-style="italic" font-size="8.00" fill="#000000">Person</text>
</a>
</g>
<text text-anchor="start" x="291" y="-286.6" font-family="Helvetica,sans-Serif" font-size="8.00" fill="#000000">existent</text>
<text text-anchor="start" x="336" y="-286.6" font-family="Helvetica,sans-Serif" font-size="8.00" fill="#000000">CEP&#45;22</text>
</a>
</g>
</g>
<!-- CEP&#45;17&#45;&gt;CEP&#45;22 -->
<g id="CEP&#45;17___CEP&#45;22" class="edge">
<title>CEP&#45;17&#45;&gt;CEP&#45;22</title>
<g id="a_CEP&#45;17___CEP&#45;22"><a xlink:href="https://wissenswandler.atlassian.net/issues/?jql=key+in+(CEP-22,CEP-17)" xlink:title="Document → unterstützt &#160;→ Human (agent) → benötigt &#160;↩" target="details">
<path fill="none" stroke="#228b22" stroke-width="2" d="M297.1765,-241.6723C297.7625,-249.1231 298.4066,-257.3121 299.0279,-265.2122"/>
<polygon fill="#228b22" stroke="#228b22" stroke-width="2" points="295.5515,-265.6501 299.8249,-275.3448 302.5299,-265.1011 295.5515,-265.6501"/>
</a>
</g>
</g>
<!-- CEP&#45;18&#45;&gt;CEP&#45;17 -->
<g id="CEP&#45;18___CEP&#45;17" class="edge">
<title>CEP&#45;18&#45;&gt;CEP&#45;17</title>
<g id="a_CEP&#45;18___CEP&#45;17"><a xlink:href="https://wissenswandler.atlassian.net/issues/?jql=key+in+(CEP-17,CEP-18)" xlink:title="Data (records) → unterstützt alternativ &#160;→ Document → benötigt alternativ ▼ &#160;↩" target="details">
<path fill="none" stroke="#228b22" stroke-width="2" stroke-dasharray="5,2" d="M201.3008,-214C207.0197,-214 212.7387,-214 218.4576,-214"/>
<polygon fill="#228b22" stroke="#228b22" stroke-width="2" points="218.7518,-217.5001 228.7517,-214 218.7517,-210.5001 218.7518,-217.5001"/>
</a>
</g>
</g>
<!-- CEP&#45;21 -->
<g id="CEP&#45;21" class="node">
<title>CEP&#45;21</title>
<g id="a_CEP&#45;21"><a xlink:href="https://wissenswandler.atlassian.net/browse/CEP-21" xlink:title="An artificial agent, also known as a machine. The machine reads records and *_may_* decode them into information *_if_* that machine is designed for decoding these records (some machines are just designed to copy records with no higher level of decoding.&#13;&#10;&#13;&#10;A machine *_might_* even acquire _knowledge_ from this information (depending on the capability of that machine and on our definition of knowledge).&#13;&#10;&#13;&#10;Due to these eventualities, a machine that is capable of decoding information and acquiring knowledge is presented as a future thing here.&#13;&#10;&#13;&#10;More typically a machine copies records or transforms them into records with different structure and/or content, or creates documents (images, text...) from records." target="details">
<path fill="#ffffff" stroke="#000000" stroke-dasharray="1,5" d="M204.5,-330.5C204.5,-330.5 71.5,-330.5 71.5,-330.5 65.5,-330.5 59.5,-324.5 59.5,-318.5 59.5,-318.5 59.5,-287.5 59.5,-287.5 59.5,-281.5 65.5,-275.5 71.5,-275.5 71.5,-275.5 204.5,-275.5 204.5,-275.5 210.5,-275.5 216.5,-281.5 216.5,-287.5 216.5,-287.5 216.5,-318.5 216.5,-318.5 216.5,-324.5 210.5,-330.5 204.5,-330.5"/>
<g id="a_CEP&#45;21_12"><a xlink:href="https://wissenswandler.atlassian.net/issues/?jql=type=%22Software-Installation%22+ORDER+BY+summary" xlink:title="An artificial agent, also known as a machine. The machine reads records and *_may_* decode them into information *_if_* that machine is designed for decoding these records (some machines are just designed to copy records with no higher level of decoding.&#13;&#10;&#13;&#10;A machine *_might_* even acquire _knowledge_ from this information (depending on the capability of that machine and on our definition of knowledge).&#13;&#10;&#13;&#10;Due to these eventualities, a machine that is capable of decoding information and acquiring knowledge is presented as a future thing here.&#13;&#10;&#13;&#10;More typically a machine copies records or transforms them into records with different structure and/or content, or creates documents (images, text...) from records." target="details">
<image xlink:href="../img/avatar--10321.png" width="32px" height="24px" preserveAspectRatio="xMinYMin meet" x="69" y="-321"/>
</a>
</g>
<text text-anchor="start" x="109.5" y="-306.3" font-family="Helvetica,sans-Serif" font-weight="bold" font-size="14.00" fill="#000000">artificial Agent</text>
<g id="a_CEP&#45;21_13"><a xlink:href="https://wissenswandler.atlassian.net/issues/?jql=type=%22Software-Installation%22+ORDER+BY+summary" xlink:title="An artificial agent, also known as a machine. The machine reads records and *_may_* decode them into information *_if_* that machine is designed for decoding these records (some machines are just designed to copy records with no higher level of decoding.&#13;&#10;&#13;&#10;A machine *_might_* even acquire _knowledge_ from this information (depending on the capability of that machine and on our definition of knowledge).&#13;&#10;&#13;&#10;Due to these eventualities, a machine that is capable of decoding information and acquiring knowledge is presented as a future thing here.&#13;&#10;&#13;&#10;More typically a machine copies records or transforms them into records with different structure and/or content, or creates documents (images, text...) from records." target="details">
<text text-anchor="start" x="69" y="-287.6" font-family="Helvetica,sans-Serif" font-style="italic" font-size="8.00" fill="#000000">Software&#45;Installation</text>
</a>
</g>
<text text-anchor="start" x="146" y="-286.6" font-family="Helvetica,sans-Serif" font-size="8.00" fill="#000000">planned</text>
<text text-anchor="start" x="179" y="-286.6" font-family="Helvetica,sans-Serif" font-size="8.00" fill="#000000">CEP&#45;21</text>
</a>
</g>
</g>
<!-- CEP&#45;18&#45;&gt;CEP&#45;21 -->
<g id="CEP&#45;18___CEP&#45;21" class="edge">
<title>CEP&#45;18&#45;&gt;CEP&#45;21</title>
<g id="a_CEP&#45;18___CEP&#45;21"><a xlink:href="https://wissenswandler.atlassian.net/issues/?jql=key+in+(CEP-21,CEP-18)" xlink:title="Data (records) → unterstützt &#160;→ artificial Agent → benötigt &#160;↩" target="details">
<path fill="none" stroke="#228b22" stroke-width="2" d="M131.7983,-241.6723C132.5518,-249.1231 133.3799,-257.3121 134.1788,-265.2122"/>
<polygon fill="#228b22" stroke="#228b22" stroke-width="2" points="130.715,-265.7477 135.2034,-275.3448 137.6795,-265.0434 130.715,-265.7477"/>
</a>
</g>
</g>
<!-- CEP&#45;22&#45;&gt;CEP&#45;20 -->
<g id="CEP&#45;22___CEP&#45;20" class="edge">
<title>CEP&#45;22&#45;&gt;CEP&#45;20</title>
<g id="a_CEP&#45;22___CEP&#45;20"><a xlink:href="https://wissenswandler.atlassian.net/issues/?jql=key+in+(CEP-20,CEP-22)" xlink:title="Human (agent) → aggregiert ◇ &#160;→ Knowledge → ist gebündelt in ◇ &#160;↩" target="details">
<path fill="none" stroke="#228b22" stroke-width="2" d="M253.7788,-337.8917C241.6456,-346.6711 228.7882,-355.9744 217.2201,-364.3448"/>
<polygon fill="none" stroke="#228b22" stroke-width="2" points="254.0344,-337.7069 256.5505,-330.9489 263.7563,-330.6723 261.2402,-337.4302 254.0344,-337.7069"/>
</a>
</g>
</g>
<!-- CEP&#45;21&#45;&gt;CEP&#45;20 -->
<g id="CEP&#45;21___CEP&#45;20" class="edge">
<title>CEP&#45;21&#45;&gt;CEP&#45;20</title>
<g id="a_CEP&#45;21___CEP&#45;20"><a xlink:href="https://wissenswandler.atlassian.net/issues/?jql=key+in+(CEP-20,CEP-21)" xlink:title="artificial Agent → aggregiert ◇ &#160;→ Knowledge → ist gebündelt in ◇ &#160;↩" target="details">
<path fill="none" stroke="#228b22" stroke-width="2" d="M155.7847,-341.6059C159.3097,-349.2577 162.9438,-357.1462 166.26,-364.3448"/>
<polygon fill="none" stroke="#228b22" stroke-width="2" points="155.7689,-341.5714 149.6254,-337.7955 150.7479,-330.6723 156.8914,-334.4482 155.7689,-341.5714"/>
</a>
</g>
</g>
<!-- CEP&#45;23 -->
<g id="CEP&#45;23" class="node">
<title>CEP&#45;23</title>
<g id="a_CEP&#45;23"><a xlink:href="https://wissenswandler.atlassian.net/browse/CEP-23" xlink:title=" " target="details">
<path fill="#ffffff" stroke="#000000" d="M485,-241.5C485,-241.5 387,-241.5 387,-241.5 381,-241.5 375,-235.5 375,-229.5 375,-229.5 375,-198.5 375,-198.5 375,-192.5 381,-186.5 387,-186.5 387,-186.5 485,-186.5 485,-186.5 491,-186.5 497,-192.5 497,-198.5 497,-198.5 497,-229.5 497,-229.5 497,-235.5 491,-241.5 485,-241.5"/>
<g id="a_CEP&#45;23_14"><a xlink:href="https://wissenswandler.atlassian.net/issues/?jql=type=%22Service%22+ORDER+BY+summary" xlink:title=" " target="details">
<image xlink:href="../img/avatar--10310.png" width="25px" height="24px" preserveAspectRatio="xMinYMin meet" x="384" y="-232"/>
</a>
</g>
<text text-anchor="start" x="431" y="-217.3" font-family="Helvetica,sans-Serif" font-weight="bold" font-size="14.00" fill="#000000">Doing</text>
<g id="a_CEP&#45;23_15"><a xlink:href="https://wissenswandler.atlassian.net/issues/?jql=type=%22Service%22+ORDER+BY+summary" xlink:title=" " target="details">
<text text-anchor="start" x="384" y="-198.6" font-family="Helvetica,sans-Serif" font-style="italic" font-size="8.00" fill="#000000">Service</text>
</a>
</g>
<text text-anchor="start" x="415" y="-197.6" font-family="Helvetica,sans-Serif" font-size="8.00" fill="#000000">operational</text>
<text text-anchor="start" x="459" y="-197.6" font-family="Helvetica,sans-Serif" font-size="8.00" fill="#000000">CEP&#45;23</text>
</a>
</g>
</g>
<!-- CEP&#45;23&#45;&gt;CEP&#45;22 -->
<g id="CEP&#45;23___CEP&#45;22" class="edge">
<title>CEP&#45;23&#45;&gt;CEP&#45;22</title>
<g id="a_CEP&#45;23___CEP&#45;22"><a xlink:href="https://wissenswandler.atlassian.net/issues/?jql=key+in+(CEP-22,CEP-23)" xlink:title="Doing → unterstützt &#160;→ Human (agent) → benötigt &#160;↩" target="details">
<path fill="none" stroke="#228b22" stroke-width="2" d="M394.3361,-241.6723C380.9752,-250.5463 366.0379,-260.4674 352.1365,-269.7004"/>
<polygon fill="#228b22" stroke="#228b22" stroke-width="2" points="350.0318,-266.8966 343.6381,-275.3448 353.9046,-272.7277 350.0318,-266.8966"/>
</a>
</g>
</g>
<!-- CEP&#45;24 -->
<g id="CEP&#45;24" class="node">
<title>CEP&#45;24</title>
<g id="a_CEP&#45;24"><a xlink:href="https://wissenswandler.atlassian.net/browse/CEP-24" xlink:title=" " target="details">
<path fill="#ffffff" stroke="#000000" d="M487.5,-152.5C487.5,-152.5 400.5,-152.5 400.5,-152.5 394.5,-152.5 388.5,-146.5 388.5,-140.5 388.5,-140.5 388.5,-109.5 388.5,-109.5 388.5,-103.5 394.5,-97.5 400.5,-97.5 400.5,-97.5 487.5,-97.5 487.5,-97.5 493.5,-97.5 499.5,-103.5 499.5,-109.5 499.5,-109.5 499.5,-140.5 499.5,-140.5 499.5,-146.5 493.5,-152.5 487.5,-152.5"/>
<g id="a_CEP&#45;24_16"><a xlink:href="https://wissenswandler.atlassian.net/issues/?jql=type=%22Person%22+ORDER+BY+summary" xlink:title=" " target="details">
<image xlink:href="../img/avatar--10309.png" width="25px" height="24px" preserveAspectRatio="xMinYMin meet" x="398" y="-143"/>
</a>
</g>
<text text-anchor="start" x="427" y="-128.3" font-family="Helvetica,sans-Serif" font-weight="bold" font-size="14.00" fill="#000000">Instructor</text>
<g id="a_CEP&#45;24_17"><a xlink:href="https://wissenswandler.atlassian.net/issues/?jql=type=%22Person%22+ORDER+BY+summary" xlink:title=" " target="details">
<text text-anchor="start" x="398" y="-109.6" font-family="Helvetica,sans-Serif" font-style="italic" font-size="8.00" fill="#000000">Person</text>
</a>
</g>
<text text-anchor="start" x="429" y="-108.6" font-family="Helvetica,sans-Serif" font-size="8.00" fill="#000000">existent</text>
<text text-anchor="start" x="462" y="-108.6" font-family="Helvetica,sans-Serif" font-size="8.00" fill="#000000">CEP&#45;24</text>
</a>
</g>
</g>
<!-- CEP&#45;24&#45;&gt;CEP&#45;23 -->
<g id="CEP&#45;24___CEP&#45;23" class="edge">
<title>CEP&#45;24&#45;&gt;CEP&#45;23</title>
<g id="a_CEP&#45;24___CEP&#45;23"><a xlink:href="https://wissenswandler.atlassian.net/issues/?jql=key+in+(CEP-23,CEP-24)" xlink:title="Instructor → unterstützt &#160;→ Doing → benötigt &#160;↩" target="details">
<path fill="none" stroke="#228b22" stroke-width="2" d="M441.5126,-152.6723C440.8429,-160.1231 440.1068,-168.3121 439.3967,-176.2122"/>
<polygon fill="#228b22" stroke="#228b22" stroke-width="2" points="435.8953,-176.0716 438.4859,-186.3448 442.8672,-176.6983 435.8953,-176.0716"/>
</a>
</g>
</g>
<!-- CEP&#45;25 -->
<g id="CEP&#45;25" class="node">
<title>CEP&#45;25</title>
<g id="a_CEP&#45;25"><a xlink:href="https://wissenswandler.atlassian.net/browse/CEP-25" xlink:title="Knowledge can be demonstrated by its holder, e.g. through action, even if it is implicit:&#13;&#10;&#13;&#10;&#13;&#10;&quot;I can show you how I do it, but I can&#39;t explain&quot;" target="details">
<path fill="#ffffff" stroke="#000000" d="M515.5,-63.5C515.5,-63.5 418.5,-63.5 418.5,-63.5 412.5,-63.5 406.5,-57.5 406.5,-51.5 406.5,-51.5 406.5,-20.5 406.5,-20.5 406.5,-14.5 412.5,-8.5 418.5,-8.5 418.5,-8.5 515.5,-8.5 515.5,-8.5 521.5,-8.5 527.5,-14.5 527.5,-20.5 527.5,-20.5 527.5,-51.5 527.5,-51.5 527.5,-57.5 521.5,-63.5 515.5,-63.5"/>
<g id="a_CEP&#45;25_18"><a xlink:href="https://wissenswandler.atlassian.net/issues/?jql=type=%22Wissen%22+ORDER+BY+summary" xlink:title="Knowledge can be demonstrated by its holder, e.g. through action, even if it is implicit:&#13;&#10;&#13;&#10;&#13;&#10;&quot;I can show you how I do it, but I can&#39;t explain&quot;" target="details">
<image xlink:href="../img/avatar--10322.png" width="25px" height="24px" preserveAspectRatio="xMinYMin meet" x="416" y="-54"/>
</a>
</g>
<text text-anchor="start" x="445.5" y="-39.3" font-family="Helvetica,sans-Serif" font-weight="bold" font-size="14.00" fill="#000000">Knowledge</text>
<g id="a_CEP&#45;25_19"><a xlink:href="https://wissenswandler.atlassian.net/issues/?jql=type=%22Wissen%22+ORDER+BY+summary" xlink:title="Knowledge can be demonstrated by its holder, e.g. through action, even if it is implicit:&#13;&#10;&#13;&#10;&#13;&#10;&quot;I can show you how I do it, but I can&#39;t explain&quot;" target="details">
<text text-anchor="start" x="416" y="-20.6" font-family="Helvetica,sans-Serif" font-style="italic" font-size="8.00" fill="#000000">Wissen</text>
</a>
</g>
<text text-anchor="start" x="446" y="-19.6" font-family="Helvetica,sans-Serif" font-size="8.00" fill="#000000">operational</text>
<text text-anchor="start" x="490" y="-19.6" font-family="Helvetica,sans-Serif" font-size="8.00" fill="#000000">CEP&#45;25</text>
</a>
</g>
</g>
<!-- CEP&#45;25&#45;&gt;CEP&#45;20 -->
<g id="CEP&#45;25___CEP&#45;20" class="edge">
<title>CEP&#45;25&#45;&gt;CEP&#45;20</title>
<g id="a_CEP&#45;25___CEP&#45;20"><a xlink:href="https://wissenswandler.atlassian.net/issues/?jql=key+in+(CEP-20,CEP-25)" xlink:title="Knowledge → = &#160;→ Knowledge → = &#160;↩" target="details">
<path fill="none" stroke="#c0c0c0" stroke-width="2" d="M501.9936,-69.9243C514.2427,-85.3401 525,-104.6667 525,-125 525,-125 525,-125 525,-303 525,-359.7661 348.1104,-380.8558 247.2874,-388.2661"/>
<ellipse fill="none" stroke="#c0c0c0" stroke-width="2" cx="499.2446" cy="-66.6348" rx="4" ry="4"/>
<ellipse fill="none" stroke="#c0c0c0" stroke-width="2" cx="243.2584" cy="-388.5536" rx="4" ry="4"/>
</a>
</g>
<g id="a_CEP&#45;25___CEP&#45;20&#45;label"><a xlink:href="https://wissenswandler.atlassian.net/issues/?jql=key+in+(CEP-20,CEP-25)" xlink:title="Knowledge → = &#160;→ Knowledge → = &#160;↩" target="details">
<text text-anchor="middle" x="528" y="-211.5" font-family="Times,serif" font-size="10.00" fill="#000000">≡</text>
</a>
</g>
</g>
<!-- CEP&#45;25&#45;&gt;CEP&#45;24 -->
<g id="CEP&#45;25___CEP&#45;24" class="edge">
<title>CEP&#45;25&#45;&gt;CEP&#45;24</title>
<g id="a_CEP&#45;25___CEP&#45;24"><a xlink:href="https://wissenswandler.atlassian.net/issues/?jql=key+in+(CEP-24,CEP-25)" xlink:title="Knowledge → ist gebündelt in ◇ &#160;→ Instructor → aggregiert ◇ &#160;↩" target="details">
<path fill="none" stroke="#228b22" stroke-width="2" d="M459.8487,-63.6723C458.053,-70.6208 456.0915,-78.2113 454.1792,-85.6108"/>
<polygon fill="none" stroke="#228b22" stroke-width="2" points="454.1494,-85.7265 456.5209,-92.5365 451.1468,-97.3448 448.7754,-90.5348 454.1494,-85.7265"/>
</a>
</g>
</g>
<!-- K2 -->
<g id="K2" class="node">
<title>K2</title>
<g id="a_K2"><a xlink:title=" " target="details">
<path fill="#ffffff" stroke="transparent" d="M563,-428C563,-428 555,-428 555,-428 551,-428 547,-424 547,-420 547,-420 547,-364 547,-364 547,-360 551,-356 555,-356 555,-356 563,-356 563,-356 567,-356 571,-360 571,-364 571,-364 571,-420 571,-420 571,-424 567,-428 563,-428"/>
<text text-anchor="middle" x="559" y="-388.3" font-family="Helvetica,sans-Serif" font-size="14.00" fill="#000000">K</text>
</a>
</g>
</g>
<!-- K -->
<g id="K" class="node">
<title>K</title>
<g id="a_K"><a xlink:title=" " target="details">
<path fill="#ffffff" stroke="transparent" d="M563,-72C563,-72 555,-72 555,-72 551,-72 547,-68 547,-64 547,-64 547,-8 547,-8 547,-4 551,0 555,0 555,0 563,0 563,0 567,0 571,-4 571,-8 571,-8 571,-64 571,-64 571,-68 567,-72 563,-72"/>
<text text-anchor="middle" x="559" y="-32.3" font-family="Helvetica,sans-Serif" font-size="14.00" fill="#000000">K</text>
</a>
</g>
</g>
<!-- I -->
<g id="I" class="node">
<title>I</title>
<g id="a_I"><a xlink:title=" " target="details">
<path fill="#ffffff" stroke="transparent" d="M562,-161C562,-161 556,-161 556,-161 553,-161 550,-158 550,-155 550,-155 550,-95 550,-95 550,-92 553,-89 556,-89 556,-89 562,-89 562,-89 565,-89 568,-92 568,-95 568,-95 568,-155 568,-155 568,-158 565,-161 562,-161"/>
<text text-anchor="middle" x="559" y="-121.3" font-family="Helvetica,sans-Serif" font-size="14.00" fill="#000000">I</text>
</a>
</g>
</g>
<!-- K&#45;&gt;I -->
<g id="K___I" class="edge">
<title>K&#45;&gt;I</title>
<path fill="none" stroke="#228b22" d="M559,-72.1997C559,-74.3428 559,-76.5125 559,-78.688"/>
<polygon fill="#228b22" stroke="#228b22" points="555.5001,-78.8323 559,-88.8324 562.5001,-78.8324 555.5001,-78.8323"/>
</g>
<!-- D -->
<g id="D" class="node">
<title>D</title>
<g id="a_D"><a xlink:title=" " target="details">
<path fill="#ffffff" stroke="transparent" d="M563,-250C563,-250 555,-250 555,-250 551,-250 547,-246 547,-242 547,-242 547,-186 547,-186 547,-182 551,-178 555,-178 555,-178 563,-178 563,-178 567,-178 571,-182 571,-186 571,-186 571,-242 571,-242 571,-246 567,-250 563,-250"/>
<text text-anchor="middle" x="559" y="-210.3" font-family="Helvetica,sans-Serif" font-size="14.00" fill="#000000">D</text>
</a>
</g>
</g>
<!-- I&#45;&gt;D -->
<g id="I___D" class="edge">
<title>I&#45;&gt;D</title>
<path fill="none" stroke="#228b22" d="M559,-161.1997C559,-163.3428 559,-165.5125 559,-167.688"/>
<polygon fill="#228b22" stroke="#228b22" points="555.5001,-167.8323 559,-177.8324 562.5001,-167.8324 555.5001,-167.8323"/>
</g>
<!-- A -->
<g id="A" class="node">
<title>A</title>
<g id="a_A"><a xlink:title=" " target="details">
<path fill="#ffffff" stroke="transparent" d="M563,-339C563,-339 555,-339 555,-339 551,-339 547,-335 547,-331 547,-331 547,-275 547,-275 547,-271 551,-267 555,-267 555,-267 563,-267 563,-267 567,-267 571,-271 571,-275 571,-275 571,-331 571,-331 571,-335 567,-339 563,-339"/>
<text text-anchor="middle" x="559" y="-299.3" font-family="Helvetica,sans-Serif" font-size="14.00" fill="#000000">A</text>
</a>
</g>
</g>
<!-- D&#45;&gt;A -->
<g id="D___A" class="edge">
<title>D&#45;&gt;A</title>
<path fill="none" stroke="#228b22" d="M559,-250.1997C559,-252.3428 559,-254.5125 559,-256.688"/>
<polygon fill="#228b22" stroke="#228b22" points="555.5001,-256.8323 559,-266.8324 562.5001,-256.8324 555.5001,-256.8323"/>
</g>
<!-- A&#45;&gt;K2 -->
<g id="A___K2" class="edge">
<title>A&#45;&gt;K2</title>
<path fill="none" stroke="#228b22" d="M559,-339.1997C559,-341.3428 559,-343.5125 559,-345.688"/>
<polygon fill="#228b22" stroke="#228b22" points="555.5001,-345.8323 559,-355.8324 562.5001,-345.8324 555.5001,-345.8323"/>
</g>
</g>
</svg>
